<svg width="28" height="28" fill="none" xmlns="http://www.w3.org/2000/svg"><g clip-path="url(#a)" fill="#0E7496"><path d="m17.99 15.667-.416-.127.32-1.046a1.096 1.096 0 0 0-2.096-.638l-1.133 3.696-.087-.03a.436.436 0 0 0-.565.315l-.652 2.817c-.39-.51-.93-.884-1.544-1.072l-.066-.017a2.631 2.631 0 0 0-2.126-2.026v-.267a3.936 3.936 0 0 0 1.724-2.834h.463a1.316 1.316 0 0 0 1.313-1.313v-.438a1.316 1.316 0 0 0-1.313-1.312h-.437v-1.75a3.066 3.066 0 0 0-3.062-3.063H2.188A.437.437 0 0 0 1.75 7v.573a3.802 3.802 0 0 0 1.75 3.194v.608h-.437a1.316 1.316 0 0 0-1.313 1.313v.437a1.316 1.316 0 0 0 1.313 1.313h.463a3.907 3.907 0 0 0 1.129 2.349c.183.181.382.345.595.49v.262a2.63 2.63 0 0 0-2.126 2.026l-.066.017a3.047 3.047 0 0 0-2.183 2.932v4.174a.438.438 0 0 0 .438.437H15.75a.437.437 0 0 0 .411-.293l2.625-7.438a.431.431 0 0 0-.271-.56l-.11-.035.46-1.491a1.318 1.318 0 0 0-.875-1.641Zm-6.615-3.417h.438a.438.438 0 0 1 .437.438v.437a.438.438 0 0 1-.438.438h-.437V12.25ZM3.5 13.563h-.437a.438.438 0 0 1-.438-.438v-.438a.438.438 0 0 1 .438-.437H3.5v1.313Zm7.875 8.312a.438.438 0 1 1 0 .877.438.438 0 0 1 0-.877Zm-.696-2.651a1.72 1.72 0 0 1-.805-.709c.336.147.617.395.805.709Zm-.892.485.149.105-.823 1.02-.774-.582 1.448-.543Zm-2.35-.052-1.719-.643c.247-.393.385-.845.398-1.308.424.152.871.23 1.322.232.45-.001.897-.08 1.32-.232.014.463.152.915.399 1.308l-1.72.643Zm.508 1.395-.289.386H7.22l-.289-.386.508-.38.507.38ZM2.625 7.573v-.136h5.688A2.188 2.188 0 0 1 10.5 9.626v.875H5.552a2.931 2.931 0 0 1-2.927-2.927ZM4.375 14v-2.813c.38.125.777.189 1.177.188H10.5V14a3.062 3.062 0 1 1-6.125 0Zm.626 4.52c-.188.313-.47.56-.805.704.188-.313.47-.56.805-.705Zm.76 7.73H1.75v-3.736a2.162 2.162 0 0 1 1.391-2.026L3.4 21.53a1.75 1.75 0 0 0-1.211 1.659v.875a.438.438 0 0 0 .437.437H3.5v-.875h-.437v-.438a.875.875 0 1 1 1.75 0v.438h-.438v.875h.875a.438.438 0 0 0 .438-.438v-.875a1.755 1.755 0 0 0-1.4-1.715l-.311-1.25.136-.04 1.233 1.531a.438.438 0 0 0 .604.075l.28-.21.306.406-.774 4.266Zm0-5.416-.822-1.02.15-.105 1.447.543-.774.582Zm.889 5.416.713-3.938h.149l.713 3.938H6.65Zm8.79 0H9.112l-.774-4.266.306-.407.28.21a.438.438 0 0 0 .604-.074l1.233-1.531.175.052v.845a1.312 1.312 0 1 0 .876 0v-.565a2.174 2.174 0 0 1 1.242 1.47l-.354 1.54.848.202 1.208-5.22 3.058 1.02-2.376 6.724Zm2.585-9.196-.45 1.47-2.079-.696 1.142-3.719a.219.219 0 1 1 .416.132l-.446 1.46a.442.442 0 0 0 .288.548l.84.258a.44.44 0 0 1 .289.547Z"/><path d="M26.688.875H15.313a.438.438 0 0 0-.438.438v7.753l-1.25 2.084a.438.438 0 0 0 .375.662h12.688a.437.437 0 0 0 .437-.437V1.312a.437.437 0 0 0-.438-.437Zm-.438 10.063H14.773l.914-1.525a.437.437 0 0 0 .063-.226V1.75h10.5v9.188Z"/><path d="M16.625 2.625h1.75V3.5h-1.75v-.875Zm2.625 0h6.125V3.5H19.25v-.875Zm-2.625 2.188h2.625v.875h-2.625v-.875Zm3.5 0h5.25v.875h-5.25v-.875ZM16.625 7h8.75v.875h-8.75V7Zm0 2.188h5.688v.874h-5.688v-.874Zm-10.5 4.375a.438.438 0 0 0 .438-.438v-.438a.438.438 0 0 0-.875 0v.438a.438.438 0 0 0 .437.438Zm2.625 0a.438.438 0 0 0 .438-.438v-.438a.438.438 0 0 0-.876 0v.438a.438.438 0 0 0 .438.438Z"/></g><defs><clipPath id="a"><path fill="#fff" d="M0 0h28v28H0z"/></clipPath></defs></svg>