<svg width="28" height="28" fill="none" xmlns="http://www.w3.org/2000/svg"><g clip-path="url(#a)" fill="#0E7496"><path d="M11.812 14.864h-.77l.268-1.34a.484.484 0 0 0-.474-.58H9.067a.485.485 0 0 0-.474.39l-.306 1.53H7.205l.268-1.34a.484.484 0 0 0-.475-.58H5.23a.485.485 0 0 0-.474.39l-.31 1.546a.41.41 0 0 0 .116.804h.164c.23 0 .43-.164.474-.389l.306-1.53h1.083l-.268 1.34c-.06.3.17.579.474.579h1.769c.23 0 .43-.164.474-.389l.306-1.53h1.083l-.268 1.34c-.06.3.169.579.474.579h.843v1.098H10.22c-.23 0-.43.164-.475.39l-.354 1.771c-.06.3.17.579.474.579h1.611v1.098H9.451c-.23 0-.43.164-.474.39l-.306 1.53H7.588l.268-1.341a.484.484 0 0 0-.474-.579H5.613c-.23 0-.43.164-.474.389l-.306 1.53H3.75l.268-1.34a.484.484 0 0 0-.475-.579H2.7v-1.098h1.257c.23 0 .429-.164.474-.39l.354-1.771a.484.484 0 0 0-.474-.579h-1.61V15.68a.41.41 0 0 0-.054-.817h-.283a.484.484 0 0 0-.483.484v1.772c0 .267.217.484.483.484h1.537l-.22 1.098H2.365a.484.484 0 0 0-.483.484v1.772c0 .267.217.483.483.483h.77l-.268 1.341c-.06.3.169.579.474.579H5.11c.23 0 .43-.164.474-.39l.306-1.53h1.083l-.269 1.341c-.06.3.17.579.475.579h1.769c.23 0 .429-.164.474-.39l.306-1.53h2.085a.484.484 0 0 0 .484-.483v-1.772a.484.484 0 0 0-.484-.484h-1.537l.22-1.098h1.317a.484.484 0 0 0 .484-.484v-1.772a.484.484 0 0 0-.484-.483Z"/><path d="M6.026 19.522h1.77c.23 0 .429-.164.474-.389l.354-1.772a.484.484 0 0 0-.474-.578H6.38a.485.485 0 0 0-.474.388l-.354 1.772c-.06.3.17.579.474.579Zm.63-1.92H7.74l-.22 1.1H6.437l.22-1.1ZM25.77 5.324a1.193 1.193 0 0 0-1.86.22l-1.262-.252.2-.983a1.19 1.19 0 0 0 .988-2.026 1.193 1.193 0 0 0-2.026.988l-1.003.204-.249-1.257a1.193 1.193 0 0 0 .237-1.87 1.193 1.193 0 0 0-1.807 1.545l-.245.369a.41.41 0 1 0 .683.454l.244-.367c.027.007.054.012.081.017l.332 1.673a.41.41 0 0 0 .484.322l1.495-.305-.3 1.476a.41.41 0 0 0 .321.484l1.666.333c.005.033.012.065.02.097l-2.363 1.575c-.1.067-.08.067-.9.882l-3.29-3.29c.818-.824.815-.8.882-.9l.242-.364a.41.41 0 0 0-.683-.455l-.235.353L16.39 5.28a.471.471 0 0 0 0 .667l.124.124h-.533a.48.48 0 0 0-.48.48v.341a1.1 1.1 0 0 1-1.098 1.098h-1.3a.48.48 0 0 0-.48.48v3.195c0 .265.215.48.48.48H15.5V24.16h-2.399a.48.48 0 0 0-.48.48v2.88c0 .265.216.48.48.48h9.456a.48.48 0 0 0 .48-.48v-2.88a.48.48 0 0 0-.48-.48h-2.399v-3.613a.41.41 0 1 0-.82 0V24.5c0 .265.215.48.48.48h2.398v2.2h-8.774v-2.2h2.399a.48.48 0 0 0 .48-.48V11.804a.48.48 0 0 0-.48-.48h-2.399V8.812h.96a1.92 1.92 0 0 0 1.918-1.919h1.013l2.005 2.004v9.737a.41.41 0 0 0 .82 0V9.717l.014.013a.472.472 0 0 0 .666 0l1.034-1.033 2.352-1.568a1.19 1.19 0 0 0 1.546-1.805ZM19.69.929a.372.372 0 1 1 .525.526.372.372 0 0 1-.526-.526Zm3.04 1.934a.372.372 0 1 1 .526.527.372.372 0 0 1-.526-.527Zm2.46 3.566a.372.372 0 1 1-.525-.526.372.372 0 0 1 .525.526Z"/><path d="M20.215 7.562a.41.41 0 1 0 .58-.58l-1.658-1.658a.41.41 0 1 0-.58.58l1.658 1.658Z"/></g><defs><clipPath id="a"><path fill="#fff" d="M0 0h28v28H0z"/></clipPath></defs></svg>