<svg width="28" height="28" fill="none" xmlns="http://www.w3.org/2000/svg"><g clip-path="url(#a)" fill="#0E7496"><path d="M24.938 12.25h.875v7.875h-.875V12.25Zm-14 .438v-1.313a.438.438 0 0 0-.438-.438H8.75a.438.438 0 0 0-.438.438v1.313H7a.438.438 0 0 0-.438.437v1.75a.438.438 0 0 0 .438.438h1.313v1.312a.438.438 0 0 0 .437.438h1.75a.438.438 0 0 0 .438-.438v-1.313h1.312a.438.438 0 0 0 .438-.437v-1.75a.438.438 0 0 0-.438-.438h-1.313Zm.874 1.75H10.5a.438.438 0 0 0-.438.437v1.313h-.874v-1.313a.438.438 0 0 0-.438-.438H7.437v-.874H8.75a.438.438 0 0 0 .438-.438v-1.313h.874v1.313a.438.438 0 0 0 .438.438h1.313v.874Zm1.751-2.625h.874v12.25h-.874v-12.25Zm-7 6.125h.875v.875h-.875v-.875Zm1.75 0h4.374v.875H8.314v-.875Zm0 1.75h4.374v.875H8.314v-.875Zm0 1.75h4.374v.875H8.314v-.875Zm0 1.75h4.374v.875H8.314v-.875Zm7-10.5h.874v.874h-.875v-.874Zm1.75 0h.875v.874h-.875v-.874Zm3.937 0h.875v.874H21v-.874Zm-3.937 1.75h4.812v.874h-4.813v-.874Zm-1.75 1.75h.874v.875h-.875v-.875Zm1.75 0h1.75v.875h-1.75v-.875Zm0 1.75h1.312v.875h-1.313v-.875Zm-1.75 1.75h.874v.875h-.875v-.875Zm1.75 0h1.312v.875h-1.313v-.875Z"/><path d="M25.813 21c-.323 0-.635.119-.875.335a1.305 1.305 0 0 0-1.313-.259V12.25h-.875v8.827a1.302 1.302 0 0 0-.875-.002v-2.262a1.313 1.313 0 0 0-2.625 0v3.756l-.294-.294a1.366 1.366 0 0 0-2.331.966v.04c0 .327.117.642.329.89l1.032 1.204H5.688v-1.569l.912-.912c.162-.162.281-.362.345-.581h.493v-.875h-.53a1.368 1.368 0 0 0-1.22-.874V9.625h6.562V8.75H4.375a1.752 1.752 0 0 0-1.75 1.75v1.313H3.5V10.5a.876.876 0 0 1 .875-.875h.438v11.213c-.051.038-.1.08-.144.124L3.5 22.133v-9.445h-.875v5.944l-1.11 1.11a2.172 2.172 0 0 0-.64 1.546v5.838h.875v-5.838a1.304 1.304 0 0 1 .384-.928l.491-.49v3.319a.438.438 0 0 0 .747.309l1.916-1.916a.49.49 0 0 1 .693.694l-1.478 1.478a.437.437 0 0 0-.055.552 1.924 1.924 0 0 1 0 2.14.437.437 0 0 0-.073.242v.438h.875v-.311c.106-.178.192-.367.257-.564h13.23l.619.722a.437.437 0 0 0 .331.153h7a.438.438 0 0 0 .438-.438v-4.375A1.314 1.314 0 0 0 25.812 21Zm.437 5.25h-6.361l-2.27-2.649a.49.49 0 0 1-.119-.32v-.04a.49.49 0 0 1 .837-.347l1.041 1.04a.438.438 0 0 0 .747-.309v-4.813a.438.438 0 0 1 .875 0v3.5a.438.438 0 0 0 .875 0 .438.438 0 0 1 .875 0 .438.438 0 0 0 .875 0 .438.438 0 0 1 .875 0 .438.438 0 0 0 .875 0 .438.438 0 0 1 .875 0v3.938Z"/><path d="M24.938.875h-9.625a2.196 2.196 0 0 0-1.895 1.093l.757.439a1.318 1.318 0 0 1 1.137-.657h9.626a1.314 1.314 0 0 1 1.312 1.313v6.124a1.314 1.314 0 0 1-1.313 1.313h-3.062a.438.438 0 0 0-.28.101l-1.907 1.59v-1.254a.438.438 0 0 0-.438-.437h-3.938A1.314 1.314 0 0 1 14 9.187V3.064h-.875v6.124a2.19 2.19 0 0 0 2.188 2.188h3.5v1.75a.438.438 0 0 0 .717.336l2.504-2.086h2.904a2.19 2.19 0 0 0 2.187-2.188V3.064a2.19 2.19 0 0 0-2.188-2.19Z"/><path d="M14.875 3.938V8.75a.438.438 0 0 0 .438.438h10.062v-.876H24.5v-3.5h-.875v3.5h-.875V3.939h-.875v4.374H21V5.688h-.875v2.625h-.875V5.25h-.875v3.063H17.5v-1.75h-.875v1.75h-.875V3.936h-.875Z"/></g><defs><clipPath id="a"><path fill="#fff" d="M0 0h28v28H0z"/></clipPath></defs></svg>