<svg width="28" height="28" fill="none" xmlns="http://www.w3.org/2000/svg"><g clip-path="url(#a)" fill="#0E7496"><path d="M3.267 22.4a2.336 2.336 0 0 1-2.334-2.333v-3.734H0v3.734a3.27 3.27 0 0 0 3.267 3.266h2.8V22.4h-2.8ZM.933 14.467H0v.933h.933v-.933Zm13.534 4.666h-.934v.934h.934v-.934Z"/><path d="M24.267 1.867H22.4v-1.4A.467.467 0 0 0 21.933 0H6.067A.467.467 0 0 0 5.6.467v1.4H3.733c-1.03 0-1.866.835-1.866 1.866v16.334c0 1.03.835 1.866 1.866 1.866h6.674L8.592 25.2H6.067a1.4 1.4 0 1 0 0 2.8h15.866a1.4 1.4 0 1 0 0-2.8h-2.525l-1.815-3.267h6.674a1.867 1.867 0 0 0 1.866-1.866V3.733c0-1.03-.835-1.866-1.866-1.866ZM6.533.933h14.934v14H6.533v-14Zm15.4 25.2a.467.467 0 0 1 0 .934H6.067a.467.467 0 0 1 0-.934h15.866ZM18.34 25.2H9.66l1.815-3.267h5.05L18.34 25.2Zm6.86-5.133a.933.933 0 0 1-.933.933H3.733a.933.933 0 0 1-.933-.933V18.2h22.4v1.867Zm0-2.8H2.8V3.733c0-.515.418-.933.933-.933H5.6v12.6c0 .258.209.467.467.467h15.866a.467.467 0 0 0 .467-.467V2.8h1.867c.515 0 .933.418.933.933v13.534Z"/><path d="M12.463 2.003a.467.467 0 0 0-.33-.136h-2.8V2.8h2.607l.797.797.66-.66-.934-.934Zm3.404-.136a.467.467 0 0 0-.33.136l-.934.934.66.66.797-.797h2.607v-.933h-2.8Zm1.4 8.4h-2.8v-.934h2.8V8.4h-2.8v-.933H18.2v-.934h-3.733V5.6h2.8v-.933h-2.8v-.934h-.934v.934h-2.8V5.6h2.8v.933H9.8v.934h3.733V8.4h-2.8v.933h2.8v.934h-2.8a1.867 1.867 0 1 0 1.867 1.866 1.849 1.849 0 0 0-.26-.933h3.32a1.848 1.848 0 0 0-.26.933 1.867 1.867 0 1 0 1.867-1.866Zm-6.534 2.8a.933.933 0 1 1 0-1.867.933.933 0 0 1 0 1.867Zm6.534 0a.933.933 0 1 1 0-1.867.933.933 0 0 1 0 1.867ZM28 4.2h-.933v7.933H28V4.2Zm0 8.867h-.933V14H28v-.933Z"/></g><defs><clipPath id="a"><path fill="#fff" d="M0 0h28v28H0z"/></clipPath></defs></svg>