<svg width="209" height="244" fill="none" xmlns="http://www.w3.org/2000/svg"><g clip-path="url(#a)"><path d="m107.006 133.706.022.333.021-.001.02-.004-.063-.328Zm37.618-13.847.253.219.005-.007-.258-.212Zm4.535-19.801.224-.248-.013-.011-.013-.01-.198.269Zm58.25 84.626a.332.332 0 0 0 .006-.471l-2.098-2.153a.333.333 0 1 0-.478.466l1.865 1.914-1.914 1.864a.334.334 0 0 0 .467.479l2.152-2.099ZM1.117 58.341c.132.3.267.602.405.908l.61-.276a99.267 99.267 0 0 1-.403-.901l-.612.269Zm1.268 2.766c.283.596.577 1.202.883 1.817l.598-.297a115.83 115.83 0 0 1-.878-1.806l-.603.286Zm1.8 3.627c.31.597.628 1.201.956 1.813l.589-.316c-.327-.609-.644-1.21-.951-1.804l-.594.307Zm1.923 3.58c.325.586.66 1.177 1.002 1.773l.579-.333c-.341-.593-.674-1.181-.998-1.764l-.583.324Zm2.026 3.528c.341.574.69 1.153 1.046 1.736l.57-.349c-.355-.58-.702-1.156-1.041-1.728l-.575.34Zm2.122 3.47c.356.564.718 1.132 1.088 1.702l.56-.363a157.24 157.24 0 0 1-1.082-1.695l-.566.356Zm2.211 3.411c.37.555.746 1.113 1.129 1.671l.551-.377a147.81 147.81 0 0 1-1.124-1.664l-.556.37Zm2.294 3.35c.385.546.776 1.095 1.172 1.644l.542-.392a161.39 161.39 0 0 1-1.168-1.637l-.546.385Zm2.378 3.29c.4.538.805 1.076 1.215 1.615l.531-.405c-.409-.536-.812-1.072-1.21-1.608l-.536.398Zm2.462 3.23c.414.528.832 1.056 1.256 1.584l.52-.418c-.421-.526-.838-1.052-1.25-1.578l-.526.412Zm2.544 3.166c.428.518.86 1.035 1.297 1.551l.51-.431a160 160 0 0 1-1.291-1.544l-.516.425Zm2.625 3.098c.441.507.887 1.013 1.339 1.518l.498-.445c-.45-.503-.894-1.007-1.333-1.512l-.504.439Zm2.706 3.026c.456.496.916.99 1.382 1.483l.485-.458c-.463-.49-.922-.983-1.375-1.477l-.492.452Zm2.788 2.952c.47.484.945.966 1.425 1.446l.472-.472c-.477-.478-.95-.958-1.418-1.44l-.48.466Zm2.87 2.872c.485.471.974.94 1.468 1.406l.459-.485c-.492-.464-.979-.931-1.46-1.4l-.466.479Zm2.954 2.788c.5.458 1.003.912 1.51 1.363l.444-.499c-.505-.449-1.006-.901-1.502-1.356l-.452.492Zm3.038 2.699c.513.442 1.03.88 1.553 1.316l.427-.513c-.519-.433-1.034-.87-1.544-1.309l-.436.506Zm3.12 2.602c.528.425 1.059.846 1.594 1.264l.41-.527c-.532-.415-1.06-.834-1.584-1.257l-.42.52Zm3.206 2.499c.54.407 1.084.81 1.633 1.209l.393-.541c-.546-.396-1.087-.797-1.625-1.201l-.401.533Zm3.288 2.389c.554.388 1.112.772 1.674 1.151l.373-.555a106.87 106.87 0 0 1-1.664-1.143l-.383.547Zm3.371 2.272c.568.367 1.14.73 1.715 1.088l.352-.568c-.572-.355-1.14-.716-1.704-1.081l-.363.561Zm3.453 2.145c.58.346 1.166.687 1.755 1.022l.33-.58c-.585-.333-1.166-.672-1.743-1.015l-.342.573Zm3.532 2.012c.594.323 1.193.641 1.795.952l.307-.593a96.209 96.209 0 0 1-1.783-.946l-.32.587Zm3.61 1.869a96.87 96.87 0 0 0 1.833.879l.283-.605c-.611-.285-1.219-.577-1.822-.873l-.295.599Zm3.683 1.718c.62.274 1.245.541 1.873.802l.256-.617a91.49 91.49 0 0 1-1.86-.796l-.269.611Zm3.755 1.56c.631.246 1.266.486 1.905.718l.229-.627a92.992 92.992 0 0 1-1.89-.713l-.244.622Zm3.822 1.393c.64.217 1.285.428 1.933.631l.2-.637a87.53 87.53 0 0 1-1.919-.627l-.214.633Zm3.882 1.218c.649.187 1.301.368 1.957.541l.17-.646a93.993 93.993 0 0 1-1.942-.536l-.185.641Zm3.935 1.037c.656.156 1.316.306 1.978.447l.14-.653a83.443 83.443 0 0 1-1.963-.443l-.155.649Zm3.975.849c.664.125 1.331.243 2.002.353l.108-.659a80.436 80.436 0 0 1-1.986-.351l-.124.657Zm4.01.658c.673.093 1.348.179 2.026.257l.076-.664a81.86 81.86 0 0 1-2.009-.255l-.092.662Zm4.04.463a84.41 84.41 0 0 0 2.033.16l.044-.667a83.102 83.102 0 0 1-2.016-.157l-.06.664Zm4.061.269c.674.028 1.351.048 2.031.061l.012-.668a83.758 83.758 0 0 1-2.015-.06l-.028.667Zm4.076.073a85.708 85.708 0 0 0 2.021-.036l-.02-.668c-.671.021-1.34.032-2.005.036l.004.668Zm4.058-.12c.341-.018.683-.039 1.025-.061l-.043-.666c-.34.022-.679.042-1.017.06l.035.667Zm1.066-.066c.321-.061.654-.126.997-.194l-.13-.655c-.342.067-.672.132-.992.193l.125.656Zm2.981-.601c.636-.135 1.298-.279 1.981-.432l-.146-.652c-.681.152-1.34.296-1.974.43l.139.654Zm3.963-.887c.644-.151 1.301-.309 1.97-.473l-.159-.649c-.667.164-1.323.321-1.964.473l.153.649Zm3.941-.969c.647-.166 1.302-.338 1.961-.515l-.173-.646c-.657.177-1.309.348-1.954.514l.166.647Zm3.92-1.054c.648-.182 1.299-.37 1.95-.561l-.188-.64c-.649.19-1.297.377-1.943.558l.181.643Zm3.894-1.147c.648-.2 1.294-.405 1.936-.614l-.207-.635c-.639.208-1.281.411-1.926.611l.197.638Zm3.863-1.259c.646-.222 1.285-.449 1.915-.679l-.229-.627c-.626.229-1.26.454-1.903.675l.217.631Zm3.818-1.398a75.27 75.27 0 0 0 1.885-.767l-.26-.615c-.607.257-1.231.511-1.868.76l.243.622Zm3.749-1.59a48.179 48.179 0 0 0 1.83-.894l-.306-.594a45.4 45.4 0 0 1-1.804.881l.28.607Zm3.625-1.884a24.663 24.663 0 0 0 1.725-1.115l-.388-.544c-.512.365-1.073.727-1.678 1.085l.341.574Zm3.331-2.417c.263-.247.505-.498.723-.75l-.506-.437a9.123 9.123 0 0 1-.675.7l.458.487Zm.728-.757c.188-.228.381-.47.578-.725l-.528-.408c-.193.249-.382.486-.565.709l.515.424Zm1.679-2.222c.342-.49.687-1.009 1.028-1.549l-.565-.356a39.871 39.871 0 0 1-1.011 1.523l.548.382Zm1.98-3.144c.301-.535.593-1.085.87-1.645l-.599-.295a33.33 33.33 0 0 1-.853 1.612l.582.328Zm1.641-3.341c.241-.58.459-1.165.649-1.752l-.636-.205a22.613 22.613 0 0 1-.63 1.701l.617.256Zm1.136-3.563c.133-.63.225-1.254.266-1.868l-.666-.044a12.818 12.818 0 0 1-.253 1.774l.653.138Zm.216-3.772a7.361 7.361 0 0 0-.485-1.861l-.618.255c.22.532.364 1.099.441 1.692l.662-.086Zm-1.48-3.518a6.753 6.753 0 0 0-.671-.7l-.449.495c.223.201.425.412.606.631l.514-.426Zm-.697-.722a15.231 15.231 0 0 0-.906-.615l-.355.566c.315.198.604.395.864.587l.397-.538Zm-2.829-1.657a18.612 18.612 0 0 0-2.032-.805l-.209.635c.693.227 1.349.492 1.959.775l.282-.605Zm-4.148-1.357a15.396 15.396 0 0 0-2.176-.262l-.031.667a14.79 14.79 0 0 1 2.081.251l.126-.656Zm-4.373-.19a12.62 12.62 0 0 0-2.157.443l.191.64a11.9 11.9 0 0 1 2.043-.419l-.077-.664Zm-4.201 1.263c-.631.322-1.254.707-1.866 1.164l.399.535c.582-.435 1.173-.8 1.77-1.104l-.303-.595Zm-3.519 2.609c-.251.254-.499.523-.744.806l.506.437c.234-.273.473-.53.713-.774l-.475-.469Zm-.744.806c-.218.252-.428.51-.631.772l.527.41c.196-.254.4-.502.61-.745l-.506-.437Zm-1.773 2.404c-.352.56-.678 1.138-.979 1.731l.595.302a20.88 20.88 0 0 1 .95-1.678l-.566-.355Zm-1.801 3.539c-.248.61-.472 1.233-.674 1.867l.636.202a25.64 25.64 0 0 1 .657-1.818l-.619-.251Zm-1.209 3.776a31.66 31.66 0 0 0-.406 1.937l.658.117c.113-.64.245-1.273.397-1.896l-.649-.158Zm-.694 3.895a36.625 36.625 0 0 0-.176 1.969l.666.042c.041-.648.099-1.293.174-1.933l-.664-.078Zm-.251 3.943c-.009.658-.001 1.317.021 1.975l.668-.022a42.036 42.036 0 0 1-.022-1.944l-.667-.009Zm.134 3.946c.051.658.118 1.313.199 1.964l.662-.082a45.86 45.86 0 0 1-.195-1.934l-.666.052Zm.482 3.917c.109.653.231 1.299.366 1.94l.653-.138a45.392 45.392 0 0 1-.36-1.911l-.659.109Zm.813 3.862a45.1 45.1 0 0 0 .53 1.9l.639-.194a43.735 43.735 0 0 1-.522-1.871l-.647.165Zm1.147 3.778c.224.63.459 1.246.706 1.846l.618-.256a38.46 38.46 0 0 1-.695-1.814l-.629.224Zm1.51 3.651c.144.3.291.595.441.884l.593-.307a30.372 30.372 0 0 1-.432-.866l-.602.289Zm.441.884c.142.274.297.564.467.872l.585-.322c-.168-.303-.32-.59-.459-.857l-.593.307Zm1.463 2.593c.32.532.672 1.096 1.056 1.688l.56-.362a65.524 65.524 0 0 1-1.044-1.671l-.572.345Zm2.162 3.348c.361.527.744 1.07 1.147 1.629l.541-.391c-.4-.554-.779-1.094-1.137-1.616l-.551.378Zm2.331 3.227c.39.514.797 1.038 1.22 1.57l.523-.415a86.478 86.478 0 0 1-1.211-1.559l-.532.404Zm2.474 3.114c.415.5.845 1.007 1.288 1.518l.505-.438a91.636 91.636 0 0 1-1.28-1.507l-.513.427Zm2.611 3.012c.438.484.888.972 1.351 1.463l.486-.458c-.459-.488-.907-.972-1.342-1.453l-.495.448Zm2.725 2.89c.459.467.928.936 1.409 1.404l.466-.477a92.052 92.052 0 0 1-1.398-1.395l-.477.468Zm2.851 2.784a92.6 92.6 0 0 0 1.463 1.344l.446-.497a95.883 95.883 0 0 1-1.453-1.334l-.456.487Zm2.953 2.656c.498.43 1.006.859 1.523 1.287l.426-.515a99.589 99.589 0 0 1-1.514-1.278l-.435.506Zm3.068 2.537a92.7 92.7 0 0 0 1.57 1.217l.403-.533c-.528-.4-1.047-.803-1.558-1.207l-.415.523Zm3.172 2.406c.532.386 1.07.769 1.618 1.148l.381-.548a97.036 97.036 0 0 1-1.607-1.14l-.392.54Zm3.265 2.265c.55.365 1.108.726 1.674 1.084l.357-.565a93.244 93.244 0 0 1-1.663-1.076l-.368.557Zm3.362 2.124a83.69 83.69 0 0 0 1.721 1.01l.331-.579a90.228 90.228 0 0 1-1.708-1.003l-.344.572Zm3.453 1.977c.579.315 1.166.626 1.759.932l.306-.594a89.69 89.69 0 0 1-1.746-.924l-.319.586Zm3.539 1.825c.591.288 1.19.572 1.794.85l.28-.607a91.631 91.631 0 0 1-1.781-.843l-.293.6Zm3.617 1.665c.602.262 1.211.517 1.826.768l.253-.618a82.839 82.839 0 0 1-1.813-.763l-.266.613Zm3.687 1.502c.612.234 1.231.463 1.857.686l.223-.63a86.702 86.702 0 0 1-1.842-.679l-.238.623Zm3.745 1.335a86.82 86.82 0 0 0 1.888.603l.196-.639a83.844 83.844 0 0 1-1.874-.598l-.21.634Zm3.802 1.168c.633.178 1.27.351 1.914.517l.167-.646a90.883 90.883 0 0 1-1.899-.514l-.182.643Zm3.851.997c.639.151 1.284.296 1.934.434l.139-.653a86.775 86.775 0 0 1-1.92-.431l-.153.65Zm3.892.829c.644.122 1.294.239 1.949.349l.111-.659a87.504 87.504 0 0 1-1.936-.347l-.124.657Zm3.925.659c.648.096 1.301.184 1.959.266l.083-.663a90.379 90.379 0 0 1-1.946-.263l-.096.66Zm3.948.494c.651.067 1.307.128 1.967.183l.055-.666a92.355 92.355 0 0 1-1.952-.182l-.07.665Zm3.96.328c.654.041 1.313.075 1.977.104l.028-.668a95.835 95.835 0 0 1-1.964-.103l-.041.667Zm3.968.168c.334.008.669.014 1.006.019l.008-.668a163.47 163.47 0 0 1-.999-.018l-.015.667Z" fill="#8AD058"/></g><defs><clipPath id="a"><path fill="#fff" transform="rotate(-30.769 106.173 29.214)" d="M0 0h114.211v215.732H0z"/></clipPath></defs></svg>