<svg width="51" height="51" fill="none" xmlns="http://www.w3.org/2000/svg"><path d="M14.64 38.6c-.534 0-.8-.243-.8-.728 0-.146.048-.28.145-.4l17.982-23.66c.17-.219.34-.389.51-.51.17-.121.412-.182.727-.182h2.257c.534 0 .8.243.8.728 0 .146-.048.28-.145.4l-17.981 23.66a2.52 2.52 0 0 1-.51.51c-.145.121-.388.182-.728.182H14.64Zm17.91.182c-1.651 0-2.961-.437-3.932-1.31-.946-.874-1.468-2.039-1.565-3.495a21.863 21.863 0 0 1-.073-1.674c.024-.485.049-1.068.073-1.747.072-1.456.57-2.633 1.492-3.531.946-.898 2.281-1.347 4.004-1.347 1.723 0 3.046.449 3.968 1.347.946.898 1.456 2.075 1.528 3.53.05.68.073 1.262.073 1.748 0 .485-.024 1.043-.073 1.674-.072 1.456-.606 2.621-1.601 3.495-.97.873-2.269 1.31-3.895 1.31Zm0-2.985c.46 0 .824-.097 1.091-.291a1.66 1.66 0 0 0 .583-.764c.145-.316.23-.643.254-.983a17.25 17.25 0 0 0 .073-1.493c0-.46-.024-.97-.073-1.528a2.561 2.561 0 0 0-.473-1.384c-.291-.412-.776-.618-1.456-.618-.68 0-1.165.206-1.456.618a3.038 3.038 0 0 0-.473 1.384 35.543 35.543 0 0 0-.037 1.528c0 .437.013.935.037 1.493a6.5 6.5 0 0 0 .218.983c.122.315.316.57.583.764.29.194.667.291 1.128.291ZM17.588 25.97c-1.65 0-2.96-.425-3.931-1.274-.947-.873-1.469-2.038-1.566-3.494a21.775 21.775 0 0 1-.072-1.638c.024-.485.048-1.068.072-1.747.073-1.48.57-2.658 1.493-3.531.946-.898 2.28-1.347 4.004-1.347 1.747 0 3.082.449 4.004 1.347.922.873 1.42 2.05 1.492 3.53a24.8 24.8 0 0 1 .073 1.748c0 .46-.024 1.007-.073 1.638-.073 1.456-.594 2.62-1.565 3.494-.97.85-2.281 1.274-3.931 1.274Zm0-2.948c.46 0 .825-.097 1.092-.291a1.66 1.66 0 0 0 .582-.765c.146-.315.23-.63.255-.946.049-.583.073-1.092.073-1.529 0-.461-.024-.958-.073-1.492a2.561 2.561 0 0 0-.473-1.384c-.292-.436-.777-.655-1.456-.655-.68 0-1.165.219-1.456.655a3.038 3.038 0 0 0-.473 1.384 33.096 33.096 0 0 0-.037 1.492c0 .437.012.946.037 1.529.048.315.133.63.254.946.122.316.316.57.583.765.267.194.63.29 1.092.29Z" fill="#fff"/><path d="M49.3 25.3c.276 0 .5.224.495.5a24.5 24.5 0 1 1-5.092-15.459.492.492 0 0 1-.1.696.508.508 0 0 1-.704-.102A23.5 23.5 0 1 0 48.795 25.8a.508.508 0 0 1 .505-.5Z" fill="#fff" stroke="#fff" stroke-linejoin="round"/><circle cx="47" cy="17.6" fill="#fff" r="1.4"/></svg>