<svg xmlns="http://www.w3.org/2000/svg" height="512" viewBox="0 0 512.242 512.242" width="512"><g fill="#0E7496"><path d="M423.677 34.777h-10.31v-10.31C413.368 10.977 402.391 0 388.899 0h-263.32c-1.951 0-3.825.76-5.225 2.119L66.372 54.536a7.498 7.498 0 0 0-2.275 5.381v287.138c0 4.143 3.358 7.5 7.5 7.5s7.5-3.357 7.5-7.5V67.437l39.759.106h.039c3.741 0 7.26-1.452 9.914-4.091a13.967 13.967 0 0 0 4.145-9.931L133.058 15H312.99v77.815c0 12.511 10.179 22.689 22.69 22.689s22.689-10.179 22.689-22.689V54.168c0-4.143-3.358-7.5-7.5-7.5s-7.5 3.357-7.5 7.5v38.647c0 4.24-3.45 7.689-7.689 7.689-4.24 0-7.69-3.449-7.69-7.689V15h60.91c5.221 0 9.468 4.247 9.468 9.468v111.083c0 4.143 3.358 7.5 7.5 7.5s7.5-3.357 7.5-7.5V49.777h10.31c5.221 0 9.469 4.248 9.469 9.469v428.528c0 5.221-4.248 9.468-9.469 9.468H123.343c-5.221 0-9.468-4.247-9.468-9.468v-10.31H388.9c13.492 0 24.468-10.977 24.468-24.469V170.229c0-4.143-3.358-7.5-7.5-7.5s-7.5 3.357-7.5 7.5v282.768c0 5.221-4.248 9.469-9.468 9.469H88.565c-5.221 0-9.469-4.248-9.469-9.469V381.97c0-4.143-3.358-7.5-7.5-7.5s-7.5 3.357-7.5 7.5v71.026c0 13.492 10.977 24.469 24.469 24.469h10.31v10.31c0 13.491 10.977 24.468 24.468 24.468h300.334c13.492 0 24.469-10.977 24.469-24.468V59.246c0-13.492-10.977-24.469-24.469-24.469zM117.955 52.54l-27.919-.074 18.557-18.02 9.436-9.162z"/><path d="M248.797 105.232h-20.13c-8.557 0-15.519 6.962-15.519 15.519v22.499a.52.52 0 0 1-.519.519H190.13c-8.557 0-15.519 6.962-15.519 15.519v20.13c0 8.558 6.962 15.52 15.519 15.52h22.499a.52.52 0 0 1 .519.519v22.499c0 8.557 6.961 15.519 15.519 15.519h20.13c8.557 0 15.519-6.962 15.519-15.519v-22.499a.52.52 0 0 1 .519-.519h22.499c8.557 0 15.519-6.962 15.519-15.52v-20.13c0-8.557-6.962-15.519-15.519-15.519h-22.499a.52.52 0 0 1-.519-.519v-22.499c0-8.557-6.962-15.519-15.519-15.519zm16.038 53.537h22.499a.52.52 0 0 1 .519.519v20.13a.52.52 0 0 1-.519.52h-22.499c-8.557 0-15.519 6.962-15.519 15.519v22.499a.52.52 0 0 1-.519.519h-20.13a.52.52 0 0 1-.519-.519v-22.499c0-8.557-6.962-15.519-15.519-15.519H190.13a.52.52 0 0 1-.519-.52v-20.13a.52.52 0 0 1 .519-.519h22.499c8.557 0 15.519-6.962 15.519-15.519v-22.499a.52.52 0 0 1 .519-.519h20.13a.52.52 0 0 1 .519.519v22.499c0 8.557 6.962 15.519 15.519 15.519zM211.43 266.664h-86.822c-4.142 0-7.5 3.357-7.5 7.5s3.358 7.5 7.5 7.5h86.822c4.142 0 7.5-3.357 7.5-7.5s-3.358-7.5-7.5-7.5zm44.691 15h96.735c4.142 0 7.5-3.357 7.5-7.5s-3.358-7.5-7.5-7.5h-96.735c-4.142 0-7.5 3.357-7.5 7.5s3.358 7.5 7.5 7.5zm-44.691 25.488h-86.822c-4.142 0-7.5 3.357-7.5 7.5s3.358 7.5 7.5 7.5h86.822c4.142 0 7.5-3.357 7.5-7.5s-3.358-7.5-7.5-7.5zm141.426 0h-96.735c-4.142 0-7.5 3.357-7.5 7.5s3.358 7.5 7.5 7.5h96.735c4.142 0 7.5-3.357 7.5-7.5s-3.357-7.5-7.5-7.5zm-141.426 40.49h-86.822c-4.142 0-7.5 3.357-7.5 7.5s3.358 7.5 7.5 7.5h86.822c4.142 0 7.5-3.357 7.5-7.5s-3.358-7.5-7.5-7.5zm141.426 0h-96.735c-4.142 0-7.5 3.357-7.5 7.5s3.358 7.5 7.5 7.5h96.735c4.142 0 7.5-3.357 7.5-7.5s-3.357-7.5-7.5-7.5zM211.43 388.13h-86.822c-4.142 0-7.5 3.357-7.5 7.5s3.358 7.5 7.5 7.5h86.822c4.142 0 7.5-3.357 7.5-7.5s-3.358-7.5-7.5-7.5zm141.426 0h-96.735c-4.142 0-7.5 3.357-7.5 7.5s3.358 7.5 7.5 7.5h96.735c4.142 0 7.5-3.357 7.5-7.5s-3.357-7.5-7.5-7.5z"/></g></svg>