<svg xmlns="http://www.w3.org/2000/svg" height="512" width="512"><g fill="#0E7496"><path d="M393.926 237.559c0-93.502-98.562-154.79-196.963-154.79C98.169 82.769 0 144.345 0 237.559c0 35.265 15.445 69.75 43.491 97.104 1.073 1.047 1.484 2.636 1.072 4.146-8.809 32.271-29.673 61.423-38.234 72.459-2.663 3.433-3.101 7.973-1.142 11.85 1.915 3.791 5.701 6.113 9.931 6.113.096 0 .191-.001.287-.003 41.893-1.045 90.452-12.869 120.468-42.379 1.049-1.032 2.554-1.44 4.028-1.089 18.442 4.374 37.641 6.591 57.062 6.591 98.765-.002 196.963-61.553 196.963-154.792zM143.362 371.163c-6.521-1.549-13.254.317-18.005 4.988-30.017 29.513-79.032 36.222-102.235 37.713 10.599-14.631 27.832-41.502 35.912-71.106 1.847-6.766-.096-13.982-5.07-18.834C28.474 299.063 15 269.198 15 237.559c0-77.08 81.628-139.79 181.963-139.79s181.963 62.709 181.963 139.79-81.628 139.79-181.963 139.79c-18.257 0-36.29-2.082-53.601-6.186z"/><path d="M442.165 362.18C485.894 340.081 512 302.416 512 261.426c0-57.931-52.367-107.431-124.518-117.702a7.5 7.5 0 0 0-2.113 14.85C450.053 167.782 497 211.037 497 261.426c0 35.212-23.028 67.873-61.601 87.367-7.5 3.791-11.519 12.171-9.772 20.381 3.657 17.185 11.442 33.098 17.669 43.884-44.291-7.372-61.078-28.624-66.386-37.822-3.277-5.678-9.405-9.198-16.018-9.198h-.058l-.55.001c-8.317 0-16.645-.577-24.75-1.716a7.5 7.5 0 1 0-2.086 14.854 193.635 193.635 0 0 0 26.836 1.861l.61-.001h.011c1.255 0 2.407.649 3.012 1.696 20.313 35.203 67.008 44.191 86.141 46.421 4.226.492 8.252-1.439 10.507-5.05 2.249-3.603 2.221-8.063-.075-11.64-5.763-8.976-16.048-26.94-20.191-46.412a3.526 3.526 0 0 1 1.866-3.872zM80.258 210.733c-14.333 0-25.993 11.661-25.993 25.993s11.66 25.993 25.993 25.993 25.993-11.661 25.993-25.993-11.66-25.993-25.993-25.993zm0 36.987c-6.062 0-10.993-4.932-10.993-10.993s4.932-10.993 10.993-10.993 10.993 4.932 10.993 10.993-4.932 10.993-10.993 10.993zm74.153-36.987c-14.333 0-25.993 11.661-25.993 25.993s11.66 25.993 25.993 25.993 25.993-11.661 25.993-25.993-11.66-25.993-25.993-25.993zm0 36.987c-6.062 0-10.993-4.932-10.993-10.993s4.932-10.993 10.993-10.993 10.993 4.932 10.993 10.993-4.931 10.993-10.993 10.993zm74.152-36.987c-14.333 0-25.993 11.661-25.993 25.993s11.66 25.993 25.993 25.993 25.993-11.661 25.993-25.993-11.66-25.993-25.993-25.993zm0 36.987c-6.062 0-10.993-4.932-10.993-10.993s4.932-10.993 10.993-10.993 10.993 4.932 10.993 10.993-4.931 10.993-10.993 10.993zm74.154-36.987c-14.333 0-25.993 11.661-25.993 25.993s11.66 25.993 25.993 25.993 25.993-11.661 25.993-25.993-11.66-25.993-25.993-25.993zm0 36.987c-6.062 0-10.993-4.932-10.993-10.993s4.932-10.993 10.993-10.993 10.993 4.932 10.993 10.993-4.932 10.993-10.993 10.993z"/></g></svg>