<svg xmlns="http://www.w3.org/2000/svg" viewBox="0 0 480 480" style="enable-background:new 0 0 480 480" xml:space="preserve" width="512" height="512"><path d="M56 384c-22.08-.026-39.974-17.92-40-40v-64H0v64c.04 30.911 25.089 55.96 56 56h48v-16H56zM0 248h16v16H0zm232 80h16v16h-16z" fill="#0E7496"/><path d="M416 32h-32V8a8 8 0 0 0-8-8H104a8 8 0 0 0-8 8v24H64c-17.673 0-32 14.327-32 32v280c0 17.673 14.327 32 32 32h114.4l-31.112 56H104c-13.255 0-24 10.745-24 24s10.745 24 24 24h272c13.255 0 24-10.745 24-24s-10.745-24-24-24h-43.296L301.6 376H416c17.673 0 32-14.327 32-32V64c0-17.673-14.327-32-32-32zM112 16h256v240H112V16zm264 432a8 8 0 0 1 0 16H104a8 8 0 0 1 0-16h272zm-61.6-16H165.6l31.112-56h86.584l31.104 56zM432 344c0 8.837-7.163 16-16 16H64c-8.837 0-16-7.163-16-16v-32h384v32zm0-48H48V64c0-8.837 7.163-16 16-16h32v216a8 8 0 0 0 8 8h272a8 8 0 0 0 8-8V48h32c8.837 0 16 7.163 16 16v232z" fill="#0E7496"/><path d="M213.656 34.344A8 8 0 0 0 208 32h-48v16h44.688l13.656 13.656 11.312-11.312-16-16zM272 32a8 8 0 0 0-5.656 2.344l-16 16 11.312 11.312L275.312 48H320V32h-48zm24 144h-48v-16h48v-16h-48v-16h64v-16h-64V96h48V80h-48V64h-16v16h-48v16h48v16h-64v16h64v16h-48v16h48v16h-48c-17.673 0-32 14.327-32 32s14.327 32 32 32 32-14.327 32-32a31.675 31.675 0 0 0-4.448-16h56.896A31.675 31.675 0 0 0 264 208c0 17.673 14.327 32 32 32 17.673 0 32-14.327 32-32s-14.327-32-32-32zm-112 48c-8.837 0-16-7.163-16-16s7.163-16 16-16 16 7.163 16 16-7.163 16-16 16zm112 0c-8.837 0-16-7.163-16-16s7.163-16 16-16 16 7.163 16 16-7.163 16-16 16zM464 72h16v136h-16zm0 152h16v16h-16z" fill="#0E7496"/></svg>