<svg xmlns="http://www.w3.org/2000/svg" width="14" height="18" viewBox="0 0 199.109 256"><path d="M4.799.1c-.003.054-.001.475.003.935.005.46-.032 1.034-.082 1.274-.2.958-.94 2.152-1.773 2.861C1.371 6.511.688 7.482.213 9.055.026 9.673 0 9.891 0 10.91c0 .934.031 1.274.169 1.775 1.178 4.304 6 6.454 10.01 4.463 1.823-.906 3.116-2.53 3.67-4.612.216-.808.197-2.474-.036-3.338-.195-.718-.594-1.606-.976-2.17-.351-.517-1.582-1.772-1.739-1.772-.086 0-.189.184-.321.572-.292.857-1.052 1.95-1.147 1.649-.02-.06-.054-.415-.077-.787-.117-1.868-1.339-4.298-2.751-5.47C6.292.797 5.037 0 4.88 0c-.042 0-.079.045-.081.1zm1.837 2.894c.503.633 1.064 1.702 1.354 2.58.104.316.193.86.23 1.394.064.958.167 1.246.566 1.582a1.43 1.43 0 0 0 1.596.167c.207-.106.721-.632.97-.992l.137-.2.172.2c.095.11.31.486.477.836 1.313 2.753.163 6.01-2.615 7.4-1.777.89-3.988.765-5.65-.32-.624-.407-1.432-1.248-1.8-1.871a5.707 5.707 0 0 1-.66-3.898c.272-1.37.993-2.492 2.27-3.537 1.019-.833 1.902-2.138 2.24-3.31.101-.35.195-.636.208-.636.013 0 .24.272.505.605z" transform="matrix(14.22236 0 0 14.22222 -.002 .74)" fill="#1b7889" fill-rule="evenodd" font-family="none" font-weight="none" font-size="none" text-anchor="none" style="mix-blend-mode:normal"/></svg>