<svg xmlns="http://www.w3.org/2000/svg" width="143" height="41" fill="none"><path d="M0 33.25h3.768V13.649h10.71V33.25h3.769V10H0v23.25ZM21.66 41h3.8v-8.638a6.68 6.68 0 0 0 1.938 1.001c.73.248 1.532.371 2.408.371 1.564 0 2.919-.403 4.065-1.21 1.157-.808 2.054-1.906 2.69-3.294.636-1.389.953-2.955.953-4.699 0-1.765-.323-3.342-.969-4.73-.636-1.389-1.543-2.482-2.72-3.278-1.178-.797-2.565-1.195-4.16-1.195-.959 0-1.83.15-2.61.452a6.263 6.263 0 0 0-2.065 1.292v-1.26h-3.33V41Zm7.567-10.753c-1.511 0-2.595-.528-3.252-1.582-.657-1.066-.985-2.444-.985-4.134 0-1.7.323-3.078.97-4.133.656-1.055 1.704-1.582 3.142-1.582 1.011 0 1.84.258 2.486.775.657.505 1.142 1.194 1.455 2.066.323.861.484 1.82.484 2.874 0 1.066-.156 2.03-.469 2.89-.302.861-.771 1.55-1.407 2.067-.636.506-1.444.759-2.424.759ZM47.7 33.734c1.626 0 3.111-.43 4.456-1.291 1.355-.872 2.356-2.1 3.002-3.681l-3.721-1.163c-.75 1.658-2.07 2.486-3.956 2.486-1.282 0-2.293-.382-3.033-1.146-.74-.775-1.183-1.884-1.33-3.326h12.228c.146-2.099-.078-3.918-.672-5.457-.595-1.54-1.507-2.729-2.737-3.569-1.22-.84-2.705-1.259-4.456-1.259-1.657 0-3.117.388-4.378 1.163-1.261.764-2.246 1.851-2.955 3.261-.709 1.41-1.063 3.068-1.063 4.973 0 1.765.36 3.326 1.078 4.682.73 1.357 1.741 2.417 3.034 3.181 1.292.764 2.793 1.146 4.503 1.146Zm-.063-15c1.168 0 2.064.318 2.69.953.636.625 1.037 1.62 1.204 2.987h-8.319c.449-2.626 1.924-3.94 4.425-3.94Zm9.77 14.516h3.612v-9.607l4.8 9.607h1.486l4.8-9.607v9.607H75.7V15.812h-3.08l-6.067 12.045-6.051-12.044h-3.096V33.25Zm36.357-17.437h-2.986L82.71 26.904V15.812h-3.612V33.25h3.018l8.037-11.383V33.25h3.611V15.812Zm2.515 17.437h3.955l3.487-5.813h3.596v5.813h3.769V15.812h-6.849c-.385 0-.865.011-1.438.033a8.835 8.835 0 0 0-1.689.193c-1.303.27-2.36.883-3.174 1.841-.813.958-1.22 2.223-1.22 3.794 0 1.368.313 2.492.939 3.375a5.182 5.182 0 0 0 2.454 1.873l-3.83 6.329Zm7.63-8.864c-.198 0-.427-.005-.688-.016a3.982 3.982 0 0 1-.766-.146c-.511-.15-.959-.446-1.345-.887-.375-.453-.563-1.018-.563-1.696 0-.667.188-1.232.563-1.695.375-.463.787-.764 1.235-.904.271-.076.548-.124.829-.146.292-.021.537-.032.735-.032h3.408v5.522h-3.408Z" fill="#4E4E4E"/><path d="M129.343 28.992a.302.302 0 0 1 .314 0l7.625 4.665a.3.3 0 0 0 .453-.305l-1.459-8.73a.3.3 0 0 1 .087-.265l6.194-6.019a.3.3 0 0 0-.169-.512l-8.51-1.138a.301.301 0 0 1-.23-.166l-3.878-7.968a.3.3 0 0 0-.54 0l-3.878 7.968a.301.301 0 0 1-.23.166l-8.51 1.138a.3.3 0 0 0-.169.512l6.194 6.02a.3.3 0 0 1 .087.264l-1.459 8.73a.3.3 0 0 0 .453.305l7.625-4.665Z" fill="#E4B674"/><path d="M30.857 9.003h1.514v-7.58h4.303v7.58h1.513V.013h-7.33v8.99ZM39.558 12h1.527V8.66c.23.166.49.295.779.387.293.096.615.143.967.143.628 0 1.172-.156 1.633-.468a3.104 3.104 0 0 0 1.08-1.274c.256-.536.383-1.142.383-1.816 0-.683-.13-1.293-.39-1.83a3.027 3.027 0 0 0-1.092-1.267c-.473-.308-1.03-.462-1.67-.462-.386 0-.736.058-1.05.175-.314.116-.59.283-.829.5V2.26h-1.338V12Zm3.04-4.158c-.607 0-1.042-.204-1.306-.612-.264-.412-.396-.945-.396-1.598 0-.658.13-1.19.39-1.599.264-.408.684-.612 1.262-.612.406 0 .74.1.999.3.264.196.458.462.584.8.13.332.195.703.195 1.11 0 .413-.063.785-.189 1.118-.121.333-.31.6-.565.8-.256.195-.58.293-.974.293Zm7.333 1.348c.678 0 1.27-.15 1.778-.45.506-.303.9-.721 1.18-1.254.285-.537.428-1.155.428-1.854 0-.695-.14-1.31-.421-1.842a3.127 3.127 0 0 0-1.181-1.261c-.507-.304-1.101-.456-1.784-.456-.666 0-1.252.15-1.759.45-.506.3-.902.715-1.187 1.248-.285.533-.427 1.153-.427 1.86 0 .696.138 1.312.415 1.849.28.532.674.95 1.18 1.255.507.304 1.1.455 1.778.455Zm0-1.41c-.582 0-1.024-.194-1.325-.581-.297-.392-.446-.914-.446-1.567 0-.637.142-1.153.427-1.549.289-.4.737-.6 1.344-.6.595 0 1.04.196 1.338.588.297.387.446.907.446 1.56 0 .633-.149 1.15-.446 1.549-.293.4-.74.6-1.338.6Zm3.749 2.722h1.514V9.003h5.527v1.499h1.508v-2.91h-.678V.012L55.653 0l-.157 2.504c-.042.74-.099 1.496-.17 2.266-.046.52-.123.995-.232 1.424-.11.424-.275.763-.497 1.017-.217.254-.523.381-.916.381v2.91Zm2.356-2.91c.18-.212.314-.429.402-.65.092-.22.161-.48.207-.78.05-.3.096-.672.138-1.117.046-.458.082-.88.107-1.268.025-.387.048-.77.07-1.148.024-.38.05-.785.075-1.218l3.002.013v6.168h-4.001ZM66.23 9.19c.678 0 1.27-.15 1.777-.45a3.12 3.12 0 0 0 1.18-1.254c.286-.537.428-1.155.428-1.854 0-.695-.14-1.31-.42-1.842a3.128 3.128 0 0 0-1.182-1.261c-.506-.304-1.101-.456-1.784-.456-.665 0-1.252.15-1.758.45a3.14 3.14 0 0 0-1.187 1.248c-.285.533-.428 1.153-.428 1.86 0 .696.139 1.312.415 1.849.28.532.674.95 1.18 1.255.508.304 1.1.455 1.779.455Zm0-1.41c-.583 0-1.024-.194-1.326-.581-.297-.392-.446-.914-.446-1.567 0-.637.143-1.153.427-1.549.29-.4.737-.6 1.344-.6.595 0 1.041.196 1.338.588.298.387.446.907.446 1.56 0 .633-.148 1.15-.446 1.549-.293.4-.739.6-1.337.6Zm4.38 1.223h1.545V5.756l2.594 3.247h2.003l-2.858-3.371 2.632-3.372h-1.89l-2.481 3.247V2.26h-1.533l-.013 6.743Z" fill="#4E4E4E"/><path d="M78.707 9.003h1.514V3.596h2.267V2.26h-6.049v1.336h2.268v5.407Zm7.468.187c.678 0 1.27-.15 1.777-.45a3.13 3.13 0 0 0 1.181-1.254c.285-.537.427-1.155.427-1.854 0-.695-.14-1.31-.42-1.842a3.128 3.128 0 0 0-1.181-1.261c-.507-.304-1.102-.456-1.784-.456-.666 0-1.252.15-1.759.45-.507.3-.902.715-1.187 1.248-.285.533-.427 1.153-.427 1.86 0 .696.138 1.312.414 1.849.281.532.675.95 1.181 1.255.507.304 1.1.455 1.778.455Zm0-1.41c-.582 0-1.024-.194-1.325-.581-.298-.392-.447-.914-.447-1.567 0-.637.143-1.153.428-1.549.289-.4.737-.6 1.344-.6.594 0 1.04.196 1.338.588.297.387.446.907.446 1.56 0 .633-.149 1.15-.446 1.549-.294.4-.74.6-1.338.6Zm4.38 4.22h1.526V8.66c.23.166.49.295.779.387.293.096.615.143.967.143.628 0 1.173-.156 1.633-.468a3.104 3.104 0 0 0 1.08-1.274c.256-.536.384-1.142.384-1.816 0-.683-.13-1.293-.39-1.83a3.027 3.027 0 0 0-1.093-1.267c-.473-.308-1.03-.462-1.67-.462-.386 0-.735.058-1.05.175-.313.116-.59.283-.828.5V2.26h-1.338V12Zm3.04-4.158c-.607 0-1.043-.204-1.307-.612-.263-.412-.395-.945-.395-1.598 0-.658.13-1.19.389-1.599.264-.408.685-.612 1.263-.612.406 0 .739.1.998.3.264.196.459.462.584.8.13.332.195.703.195 1.11 0 .413-.063.785-.188 1.118-.122.333-.31.6-.566.8-.255.195-.58.293-.973.293Zm7.332 1.348c.679 0 1.271-.15 1.778-.45a3.14 3.14 0 0 0 1.181-1.254c.285-.537.427-1.155.427-1.854 0-.695-.14-1.31-.421-1.842a3.123 3.123 0 0 0-1.181-1.261c-.506-.304-1.101-.456-1.784-.456-.665 0-1.252.15-1.758.45a3.14 3.14 0 0 0-1.187 1.248c-.285.533-.427 1.153-.427 1.86 0 .696.138 1.312.414 1.849.28.532.674.95 1.18 1.255.508.304 1.1.455 1.778.455Zm0-1.41c-.582 0-1.023-.194-1.325-.581-.297-.392-.446-.914-.446-1.567 0-.637.142-1.153.427-1.549.29-.4.737-.6 1.344-.6.595 0 1.041.196 1.338.588.298.387.446.907.446 1.56 0 .633-.148 1.15-.446 1.549-.293.4-.739.6-1.338.6Zm4.38 1.223h3.336c.209 0 .414-.008.615-.025a3.3 3.3 0 0 0 .534-.094c.423-.12.743-.335.961-.643.222-.312.333-.695.333-1.148 0-.4-.08-.71-.239-.93a1.503 1.503 0 0 0-.578-.5 1.734 1.734 0 0 0-.464-.144c.146-.041.295-.125.446-.25.15-.12.272-.274.364-.462.092-.187.138-.424.138-.711 0-.487-.126-.868-.377-1.143a1.86 1.86 0 0 0-.867-.562 3.76 3.76 0 0 0-.496-.093 4.84 4.84 0 0 0-.622-.038h-3.084v6.743Zm1.533-3.958V3.44h1.225c.042 0 .136.004.282.013.151.004.279.025.384.062.159.05.274.142.345.275a.9.9 0 0 1 .113.45.92.92 0 0 1-.1.43.606.606 0 0 1-.302.275 1.24 1.24 0 0 1-.32.081 3.634 3.634 0 0 1-.371.019h-1.256Zm0 2.797V6.225h1.664c.063 0 .143.004.239.012a.84.84 0 0 1 .277.056.739.739 0 0 1 .364.244c.104.12.157.285.157.493 0 .15-.036.294-.107.431a.557.557 0 0 1-.327.287 1.853 1.853 0 0 1-.571.094h-1.696Z" fill="#4E4E4E"/></svg>