<svg xmlns="http://www.w3.org/2000/svg" width="670" height="134" fill="none"><path d="M63.196 11.708c1.197-3.685 6.41-3.685 7.608 0l10.34 31.824a4 4 0 0 0 3.805 2.764h33.461c3.875 0 5.486 4.958 2.351 7.236L93.691 73.2a4 4 0 0 0-1.454 4.472l10.34 31.824c1.198 3.685-3.02 6.75-6.155 4.472L69.352 94.3a4 4 0 0 0-4.703 0l-27.071 19.668c-3.135 2.278-7.353-.787-6.155-4.472l10.34-31.824A4 4 0 0 0 40.31 73.2L13.239 53.532c-3.135-2.278-1.524-7.236 2.35-7.236h33.462a4 4 0 0 0 3.805-2.764l10.34-31.824Zm134 0c1.197-3.685 6.411-3.685 7.608 0l10.34 31.824a4.001 4.001 0 0 0 3.805 2.764h33.461c3.875 0 5.486 4.958 2.351 7.236L227.69 73.2a4 4 0 0 0-1.453 4.472l10.34 31.824c1.198 3.685-3.02 6.75-6.155 4.472L203.351 94.3a4 4 0 0 0-4.702 0l-27.071 19.668c-3.135 2.278-7.353-.787-6.155-4.472l10.34-31.824a4 4 0 0 0-1.453-4.472l-27.071-19.668c-3.135-2.278-1.524-7.236 2.351-7.236h33.461a4.001 4.001 0 0 0 3.805-2.764l10.34-31.824Zm134 0c1.197-3.685 6.411-3.685 7.608 0l10.34 31.824a4.001 4.001 0 0 0 3.805 2.764h33.461c3.875 0 5.486 4.958 2.351 7.236L361.69 73.2a4 4 0 0 0-1.453 4.472l10.34 31.824c1.198 3.685-3.02 6.75-6.155 4.472L337.351 94.3a4 4 0 0 0-4.702 0l-27.071 19.668c-3.135 2.278-7.353-.787-6.155-4.472l10.34-31.824a4 4 0 0 0-1.453-4.472l-27.071-19.668c-3.135-2.278-1.524-7.236 2.351-7.236h33.461a4.001 4.001 0 0 0 3.805-2.764l10.34-31.824Zm134 0c1.197-3.685 6.411-3.685 7.608 0l10.34 31.824a4.001 4.001 0 0 0 3.805 2.764h33.461c3.875 0 5.486 4.958 2.351 7.236L495.69 73.2a4 4 0 0 0-1.453 4.472l10.34 31.824c1.198 3.685-3.02 6.75-6.155 4.472L471.351 94.3a4 4 0 0 0-4.702 0l-27.071 19.668c-3.135 2.278-7.353-.787-6.155-4.472l10.34-31.824a4 4 0 0 0-1.453-4.472l-27.071-19.668c-3.135-2.278-1.524-7.236 2.351-7.236h33.461a4.001 4.001 0 0 0 3.805-2.764l10.34-31.824Zm134 0c1.197-3.685 6.411-3.685 7.608 0l10.34 31.824a4.001 4.001 0 0 0 3.805 2.764h33.461c3.875 0 5.486 4.958 2.351 7.236L629.69 73.2a4 4 0 0 0-1.453 4.472l10.34 31.824c1.198 3.685-3.02 6.75-6.155 4.472L605.351 94.3a4 4 0 0 0-4.702 0l-27.071 19.668c-3.135 2.278-7.353-.787-6.155-4.472l10.34-31.824a4 4 0 0 0-1.453-4.472l-27.071-19.668c-3.135-2.278-1.524-7.236 2.351-7.236h33.461a4.001 4.001 0 0 0 3.805-2.764l10.34-31.824Z" fill="#FFB100"/></svg>