<svg xmlns="http://www.w3.org/2000/svg" id="Слой_1" x="0" y="0" viewBox="0 0 800 800" style="enable-background:new 0 0 800 800" xml:space="preserve"><style>.st1{fill:none;stroke:#256ca1;stroke-width:9.906;stroke-linecap:round;stroke-linejoin:round;stroke-miterlimit:10}</style><path style="fill:#dfe7e8" d="M157.1 787.4h515.1V649.8l-59.5-2 .1-96.7-33 37.1-38.9-37.1v95.8l-39.5 2.9V448.1h-25V287.6H454v-66.7l-11.4-6.8-50.8-132.9-42.1 139.7h-11.4l-2.6 60.1-19.8 6.6v156.2l-21.2 4.3-3.8 201.7-38-.9.1-94.2-36 34.3-35.9-37.9v97.8l-24 .9z"/><path class="st1" d="M501.4 649.8h170.8M338.3 220.9H454v66.7H338.3zm11.4 0h92.9L396.1 66.7z"/><path class="st1" d="m396.1 9.7 10.5 21.2 23.4 3.4-16.9 16.5 4 23.3-21-11-20.9 11 4-23.3-16.9-16.5 23.4-3.4zm-80.2 277.9h160.5v160.5H315.9z"/><circle transform="rotate(-38.541 396.124 367.838)" class="st1" cx="396.1" cy="367.9" r="60.4"/><path class="st1" d="M405.1 367.9c0 4.9-4 8.9-8.9 8.9s-8.9-4-8.9-8.9 4-8.9 8.9-8.9c4.9-.1 8.9 3.9 8.9 8.9z"/><path class="st1" d="M396.1 414.5v-46.6h46.4M396.1 63.1v157.8m-57.8 66.7h23.1s-4.9-37-11.6-37c-6.6.1-11.5 37-11.5 37z"/><path class="st1" d="M361.4 287.6h23.1s-4.9-37-11.6-37c-6.6.1-11.5 37-11.5 37zm23.2 0h23.1s-4.9-37-11.6-37c-6.6.1-11.5 37-11.5 37zm23.1 0h23.1s-4.9-37-11.6-37c-6.6.1-11.5 37-11.5 37zm23.2 0H454s-4.9-37-11.6-37c-6.6.1-11.5 37-11.5 37zM324.8 688.3h-33.9V448.1h210.5v240.2h-33m144.3-40.5V626h.1v-74.9c-39.1 17.5-35.9 74.9-35.9 74.9h-.1s3.2-57.4-35.9-74.9v97m-288 .8V626h.1v-74.9c-39.1 17.5-35.9 74.9-35.9 74.9h-.1s3.2-57.4-35.9-74.9v97.8m109.8.9H157.1m314.3 38.5h89v94.8m-328.5-14.9v-79.9h92.9m-8.9-212.8V499m80.2-23.5V499m80.3-23.5V499"/><path class="st1" d="M467.5 741.8v-60s-3.5-14-17.4-26.3c-22.1-19.6-39.3-44.2-52.5-70.7l-2.3-4.7-1.2 2.6c-13.4 28.4-32.6 53.3-54.7 75.5-11.5 11.6-14.6 23.7-14.6 23.7v15.7m-33.9-174.1h210.5"/><path class="st1" d="M409.4 646.9c0 7.3-5.9 13.2-13.2 13.2-7.3 0-13.2-5.9-13.2-13.2 0-7.3 5.9-13.2 13.2-13.2 7.3-.1 13.2 5.9 13.2 13.2z"/></svg>