<svg width="49" height="80" fill="none" xmlns="http://www.w3.org/2000/svg"><path d="M34.89 59.6c.564-.333 1.148-.396 1.783-.26l-.062-7.871c-.073-.02-.125-.042-.177-.052-.772-.073-1.293-.511-1.647-1.157-.636-1.126-.761-2.315-.344-3.545.177-.521.48-.99.813-1.439a7.22 7.22 0 0 1 1.532-1.553c.26-.188.522-.375.772-.584.25-.198.5-.406.719-.646.605-.646 1.199-1.314 1.647-2.085.104-.188.198-.386.282-.584a1.19 1.19 0 0 0 .083-.605c-.031-.406-.031-.813-.031-1.22l-.032-3.137c0-.032-.01-.052-.02-.084h-.563c-.105 0-.198.01-.303.01-.281-.01-.48-.176-.5-.427-.02-.25.156-.458.427-.5.167-.021.324-.021.49-.031l.449-.032v-.229c0-.375-.01-.74-.01-1.116 0-.083 0-.177.02-.25a.454.454 0 0 1 .417-.344.45.45 0 0 1 .459.292c.031.094.052.209.052.313.01.354.01.698.01 1.053 0 .073.01.135.01.24h.24c.23-.01.46-.032.689-.021.27.01.448.177.48.406a.464.464 0 0 1-.376.522c-.146.03-.302.03-.448.041l-.563.032c-.01.073-.01.125-.01.166.01 1.168.03 2.336.04 3.503 0 .376.105.72.22 1.064.406 1.157 1.042 2.168 1.939 3.002.386.355.771.698 1.157 1.053.344.313.688.636 1.022.949.052.041.094.104.146.114.198.053.292.209.406.355.303.365.542.771.74 1.199.167.354.24.73.292 1.115.126.949 0 1.856-.406 2.721-.26.563-.699.97-1.2 1.314-.145.094-.322.166-.406.302-.073.125-.03.323-.03.48-.022 2.314-.032 4.639-.053 6.953v.271c.073-.01.115-.02.167-.031.813-.219 1.543-.031 2.189.49.605.49.96 1.147 1.168 1.887.02.063.01.125.02.188.01.072.021.156.053.218a.52.52 0 0 1 .041.355l-.156.563c-.198.75-.532 1.428-.918 2.095a3.29 3.29 0 0 1-.125.198c-.052.073-.052.136-.02.22.03.104.052.218.062.333l.125 7.986c0 .166.052.323.084.48.052.28.25.458.417.646.177.198.333.406.49.625a.55.55 0 0 1 .093.386c-.01.27-.02.542 0 .813.053.855.094 1.7.063 2.554 0 .084-.01.177-.02.26-.053.272-.282.418-.553.387a4.189 4.189 0 0 0-.511-.032c-7.027-.02-14.043-.062-21.07-.062-8.267 0-16.534.041-24.8.062-.272 0-.543.052-.814.073a.772.772 0 0 1-.219 0 .48.48 0 0 1-.313-.177.267.267 0 0 0-.073-.084c-.23-.145-.292-.375-.312-.625-.042-.823.24-1.501.948-1.96.344-.219.73-.281 1.137-.219.052.01.093.01.177.021v-.24c-.031-1.178-.052-2.366-.084-3.544-.01-.647-.03-1.303-.052-1.95a.604.604 0 0 0-.104-.344c-.26-.375-.521-.75-.792-1.126a3.773 3.773 0 0 0-.376-.438C.248 68.587-.086 67.722.02 66.7a2.96 2.96 0 0 1 .552-1.49c.271-.376.563-.74.866-1.095.667-.782 1.396-1.522 2.126-2.242.615-.604 1.095-1.313 1.522-2.064a.827.827 0 0 0 .115-.469c-.02-.97-.031-1.95-.042-2.92 0-.04-.01-.083-.02-.156h-.261c-.094 0-.188 0-.282-.02a.467.467 0 0 1-.01-.907c.094-.021.188-.021.271-.032h.26c0-.083.011-.145.011-.218 0-.355-.01-.699-.01-1.053 0-.094 0-.188.02-.282a.467.467 0 0 1 .438-.354.47.47 0 0 1 .449.312c.03.105.041.209.041.313.01.344.01.688.021 1.032v.26c.104 0 .188 0 .282.011.104.01.219 0 .323.032a.457.457 0 0 1-.031.897c-.094.02-.199.01-.303.01h-.23c-.01.052-.02.104-.02.156.01.876.031 1.762.042 2.638 0 .114.02.177.135.24.177.093.209.27.22.458.02.26.04.51.083.761.114.646.469 1.147 1.032 1.49a.34.34 0 0 0 .135.042c.146.01.303 0 .47 0 .01-.062.01-.125.01-.187l-.032-2.92c0-.625.01-1.24.021-1.865 0-.355-.01-.72 0-1.074.01-.626-.208-1.168-.604-1.658-.23-.281-.428-.594-.657-.875-.209-.261-.407-.511-.553-.814a4.299 4.299 0 0 1-.438-2.158 4.49 4.49 0 0 1 .845-2.366c.605-.865 1.334-1.605 2.116-2.304.521-.47.99-.97 1.428-1.522.324-.407.647-.803.96-1.21.208-.27.406-.552.48-.896.02-.083.03-.167.03-.25-.01-1.45-.03-2.909-.041-4.358 0-.031-.01-.073-.01-.125-.053-.01-.105-.02-.168-.02h-.939c-.26-.022-.448-.21-.459-.45a.471.471 0 0 1 .407-.479c.083-.02.167-.01.26-.01h.887c.01-.084.02-.146.02-.209 0-.354-.01-.698-.01-1.053 0-.093 0-.187.021-.281a.446.446 0 0 1 .428-.355.448.448 0 0 1 .458.324.944.944 0 0 1 .042.292c.01.333.01.677.01 1.01v.23c.073.01.126.021.178.021.24 0 .49-.01.73-.01.083 0 .177.01.25.03a.457.457 0 0 1-.052.897c-.105.021-.22.01-.324.01-.25.011-.5.011-.76.022-.011.073-.011.135-.011.198.01 1.386.031 2.773.052 4.17 0 .114.031.23.052.334a.26.26 0 0 0 .115.197.368.368 0 0 1 .166.313c0 .136.063.24.136.334.375.51.74 1.032 1.136 1.532.324.417.678.814 1.022 1.22.052.052.104.115.177.157 0-.188.063-.324.178-.46.041-.051.052-.135.062-.197.47-2.492.938-4.994 1.408-7.486.083-.437.156-.875.25-1.303.02-.093-.021-.135-.073-.187-.157-.157-.323-.303-.48-.459-.177-.177-.365-.344-.542-.521a1.27 1.27 0 0 1-.156-.178.457.457 0 0 1 .177-.646.796.796 0 0 1 .344-.083c.271-.01.542-.01.813-.01.073 0 .136-.011.177-.011.084-.396.146-.782.23-1.157.615-2.857 1.23-5.724 1.834-8.58.438-2.044.876-4.087 1.304-6.13.03-.146.02-.313.02-.47 0-.594 0-1.188-.01-1.782 0-.459-.01-.917-.01-1.376 0-.136-.052-.22-.167-.292-.761-.48-1.24-1.168-1.376-2.054-.084-.521-.01-1.042.166-1.543a.453.453 0 0 1 .292-.292.594.594 0 0 0 .198-.114c.313-.261.626-.532.928-.793.522-.458.949-1 1.22-1.636.177-.417.282-.855.302-1.314.01-.177.032-.354.042-.532.01-.052.01-.125.031-.166.105-.157.084-.324.084-.5-.021-.762-.032-1.523-.052-2.274 0-.073-.01-.156-.01-.218h-.783c-.083 0-.177.01-.26 0a.469.469 0 0 1-.407-.46c0-.229.156-.427.396-.458.188-.031.386-.031.574-.042.146-.01.281-.01.458-.02v-.25l-.03-1.262c0-.083 0-.177.02-.26A.466.466 0 0 1 23.215 0c.219 0 .406.156.448.386.01.073.01.146.01.208.01.459.021.918.042 1.376 0 .032.01.052.01.094.063 0 .115.01.167.01.313-.01.615-.03.918-.041.094 0 .187 0 .27.031a.447.447 0 0 1 .324.417c0 .198-.084.355-.26.438a.666.666 0 0 1-.293.063c-.291.02-.583.03-.875.041-.073 0-.146.01-.23.021-.01.063-.02.115-.02.167.02.855.02 1.7.062 2.554.031.594.094 1.199.177 1.793.136.949.595 1.752 1.24 2.45.282.313.574.615.866.928.188.198.292.438.313.709.031.563.042 1.115-.157 1.658-.187.52-.49.969-.938 1.303-.104.073-.146.156-.135.281.062.865.114 1.73.166 2.596.011.23.011.459.011.688 0 .115.01.23.031.344.563 2.481 1.126 4.952 1.7 7.423.344 1.511.688 3.023 1.042 4.535.26 1.126.521 2.262.782 3.388.031.135.052.26.073.417h.573c.146 0 .292 0 .428.031.375.073.531.428.323.75-.125.188-.271.355-.407.533-.167.208-.323.416-.49.625a.3.3 0 0 0-.062.292c.23 1.053.458 2.095.677 3.148.386 1.814.782 3.618 1.168 5.432.292 1.345.584 2.69.865 4.024.01.052.032.115.053.198h.52c.063 0 .126 0 .199-.01.344-.01.552.177.563.531.01.365.031.73.031 1.095 0 .219-.01.448-.01.667 0 .052.01.104.02.146.063.313-.072.532-.385.605-.042.01-.084.02-.146.031-.01.063-.032.136-.032.209l-.187 2.439c-.021.281-.042.573-.073.855-.01.094-.042.198-.073.302.208.188.417.386.625.584.397.386.772.803 1.095 1.261.292.428.49.886.573 1.397.063.063.063.105.084.178Zm-7.14-4.378c.27-.302.542-.584.782-.876.177-.208.333-.427.469-.667.219-.375.208-.803.198-1.25h-.313c-3.044.02-6.099.04-9.143.062-.448 0-.907.01-1.355.01-.125 0-.188.042-.26.146-.116.177-.251.334-.376.49-.031.042-.063.094-.104.136-.073.083-.136.187-.22.26a2.025 2.025 0 0 0-.51.636c-.125.271-.25.553-.344.834a2.441 2.441 0 0 0-.094.615c-.01.417-.01.834-.01 1.24 0 1.638-.01 3.274-.01 4.921 0 .084.01.167.01.24 1.324-.052 2.147.584 2.554 1.752.208-.021.396-.053.584-.053 1.98.021 3.961.053 5.942.073.052 0 .104-.01.188-.02-.073-.146-.115-.292-.209-.365-.292-.22-.521-.511-.782-.772a2.781 2.781 0 0 1-.698-1.24c-.24-.907-.167-1.783.354-2.575.344-.522.73-1.012 1.105-1.512a.38.38 0 0 0 .094-.292c-.02-.427-.031-.855-.042-1.282-.01-.323.063-.615.282-.876.177-.219.333-.459.5-.698.032-.042.063-.084.094-.115.209-.219.49-.23.698-.02.073.082.136.176.188.28.167.292.292.584.428.918Zm-1.93-21.465c.052-.084.083-.125.104-.178.417-.802.845-1.605 1.272-2.408a.496.496 0 0 0 .052-.386 1110.52 1110.52 0 0 1-1.303-5.692c-.459-1.99-.917-3.992-1.366-5.984a3.363 3.363 0 0 0-.073-.292l-2.45.094c-.02.084-.041.136-.052.198-.177.813-.344 1.627-.52 2.43-.522 2.428-1.043 4.868-1.565 7.297-.146.709-.302 1.407-.458 2.116-.021.094-.032.167.02.26.49.814.98 1.627 1.47 2.45.032.043.063.084.115.147l.448-.74c.522-.866 1.043-1.731 1.554-2.596.23-.386.657-.417.938-.021.063.094.115.198.177.292.521.948 1.032 1.897 1.554 2.846 0 .062.03.094.083.167Zm-1.7 39.803c.063 1.793.115 3.565.168 5.348 3.575.02 7.12.031 10.675.052-.032-1.835 0-3.649-.052-5.473-3.597.031-7.183.052-10.79.073Zm-5.035-8.945c.032.042.084.104.125.167.146.198.199.407.042.636-.02.031-.031.083-.042.125-.145.552-.281 1.115-.291 1.689a167.02 167.02 0 0 0-.042 2.366l-.063 3.003c0 .302.021.615.031.907.23.156.146.156.543.125 1.209-.094 2.418-.094 3.628-.073.041 0 .083-.01.125-.01v-.563c-.01-.188.02-.355.135-.5.031-.043.052-.105.073-.157.073-.167.125-.355.22-.511.593-1.001 1.448-1.543 2.647-1.418.01 0 .021-.01.052-.02 0-.053.01-.115.01-.178l-.03-4.942c0-.156-.021-.312-.042-.469-.136-.01-.24-.01-.344-.02-2.085-.032-4.18-.053-6.266-.084-.167-.02-.344-.052-.51-.073ZM35.913 78.96h.281c1.856.01 3.711.02 5.567.02 1.95.011 3.899.011 5.838.011.084 0 .167-.01.25-.01 0-.084.01-.146.01-.198 0-.876 0-1.762-.01-2.638a.464.464 0 0 0-.073-.24c-.156-.208-.333-.406-.5-.615-.073-.093-.157-.125-.282-.125-3.617 0-7.235 0-10.842-.01-.073 0-.156.01-.24.01v3.795ZM7.077 68.274c.02 2.325.052 4.619.104 6.912.073-.094.114-.188.156-.281.594-1.428 1.199-2.867 1.783-4.306a.863.863 0 0 1 .459-.48c.25-.114.51-.03.635.21.042.072.063.155.094.239.636 1.74 1.283 3.482 1.919 5.212.01.042.041.084.072.136.032-.052.053-.084.063-.115l2.408-4.847c.084-.178.167-.344.26-.522a.49.49 0 0 1 .46-.292c.219 0 .375.126.469.313.02.042.041.094.062.136.595 1.376 1.189 2.762 1.783 4.139a1.7 1.7 0 0 0 .115.24c.031-.074.031-.147.031-.21-.031-.823-.083-1.646-.083-2.47 0-1.21.052-2.419.072-3.628v-.271c-3.617-.02-7.235-.063-10.862-.115Zm28.283-2.21c-.01.084-.01.146-.01.198-.021 1.606-.053 3.211-.073 4.806v.303a.31.31 0 0 0 .135.26c.031-.052.052-.104.073-.146.26-.552.521-1.105.772-1.647.344-.73.677-1.449 1.021-2.179a.58.58 0 0 1 .542-.365c.24 0 .376.146.47.344l1.532 3.097c.417.834.823 1.668 1.24 2.502a.858.858 0 0 0 .105.146c.041-.105.073-.178.104-.25.75-1.814 1.49-3.629 2.241-5.442.084-.209.22-.344.449-.376.052-.01.093-.031.146-.041.292-.105.52-.01.657.27.062.126.114.261.166.397.542 1.22 1.084 2.45 1.627 3.67.02.041.041.083.062.114.01 0 .031-.01.042-.01l-.094-5.745c-3.753.042-7.464.073-11.207.094ZM9.88 63.145a.373.373 0 0 0 .074-.104c.625-.845 1.47-1.272 2.512-1.22.907.042 1.627.448 2.106 1.24a.81.81 0 0 0 .094.136c.052-.062.094-.125.146-.166.177-.178.344-.365.542-.522.125-.104.177-.198.177-.354 0-1.97.01-3.93.021-5.9v-.262c-.552-.02-1.084-.02-1.626-.02-.532 0-1.063-.01-1.585-.01a82.64 82.64 0 0 0-1.605-.022c-.532 0-1.064-.02-1.595 0 .073 2.2.052 4.379.083 6.537.198.208.428.427.657.667Zm27.71-9.737c0 .094-.01.146-.01.198.01 2.023.032 4.055.042 6.078 0 .104.032.177.115.26.177.199.334.407.5.616.032.041.052.083.094.135.042-.052.073-.094.115-.135.177-.198.344-.407.542-.584.803-.678 1.71-.897 2.72-.553.647.22 1.137.647 1.533 1.189.042.052.084.114.136.177a.336.336 0 0 0 .063-.073c.156-.208.312-.427.49-.625a.534.534 0 0 0 .156-.397c.01-1.99.031-3.982.041-5.973 0-.063-.01-.125-.01-.209a1365.63 1365.63 0 0 0-6.526-.104Zm-2.355 11.718h.354c2.336-.02 4.66-.031 6.996-.052 1.24-.01 2.491-.021 3.732-.021.114 0 .198-.01.27-.125a13.14 13.14 0 0 0 .887-1.595c.104-.23.177-.48.25-.761-4.493.073-8.955.146-13.459.208.334.803.647 1.564.97 2.346ZM21.203 40.429c.583-.72 1.334-1.137 2.272-1.157.939-.021 1.7.375 2.294 1.094.886-.938 1.95-1.313 3.21-1.115-.156-.74-.312-1.45-.468-2.18-3.399.022-6.787.053-10.175.074l-.438 2.335c1.345-.459 2.408-.052 3.305.949ZM7.17 67.294c.417.063 10.52.178 10.707.136.146-.647.282-1.293.427-1.96-3.888-.01-7.766-.031-11.686-.042.27.636.49 1.23.552 1.866Zm20.048-1.71v.292c0 1.46.01 2.92.01 4.38 0 .166-.02.322-.03.49 0 .04 0 .093.03.114.136.156.282.313.428.48.125-.136.23-.293.365-.418 1.157-1.157 2.887-.948 3.732.324.031.041.062.083.104.145.073-.125.198-.187.198-.333 0-.24-.02-.47-.01-.71.041-1.49.094-2.991.135-4.482 0-.052-.01-.104-.01-.177-1.647-.031-3.284-.073-4.952-.104ZM23.34 78.909c-.052-1.48-.094-2.93-.146-4.368-.334-.084-3.983-.063-4.285.02 0 .022-.01.053-.01.084l.125 2.096c.01.219.094.396.27.52.157.115.272.272.345.46.114.291.125.594.083.906-.01.094-.031.178-.052.282h3.67Zm-.084-70.36a5.1 5.1 0 0 1-1.387 1.929c-.427.376-.854.74-1.282 1.116-.041.031-.093.083-.093.135-.021.355-.052.699.093 1.043.261.594.71 1.011 1.293 1.282.042.021.084.021.125.021.834-.01 1.679-.031 2.513-.042.062 0 .146-.02.198-.062.302-.22.542-.511.688-.855.177-.396.167-.824.167-1.24 0-.053-.042-.105-.073-.147-.26-.281-.511-.563-.782-.834-.626-.636-1.116-1.355-1.408-2.21 0-.052-.02-.073-.052-.135ZM6.16 78.97h.22c3.982-.01 7.953-.03 11.936-.041.406 0 .417-.01.521-.396.031-.105.031-.23.031-.344 0-.136-.062-.23-.156-.313-.094-.073-.188-.084-.302-.084-3.701-.03-7.402-.052-11.093-.083-.166 0-.344-.02-.49.104-.03.032-.093.021-.146.032a.414.414 0 0 0-.135.041c-.22.167-.521.647-.386 1.085Zm34.288-4.785c-.198-.5-2.554-5.233-2.679-5.358-.073.156-.135.302-.208.448-.47 1.011-.949 2.023-1.418 3.034-.063.146-.136.281-.198.427-.032.073-.073.157-.073.24 0 .344 0 .688.01 1.032 0 .052.01.115.021.188 1.512-.01 3.023-.01 4.545-.01Zm6.203.01L44.2 68.64h-.052c-.76 1.845-1.522 3.68-2.293 5.557h4.795ZM18.586 51.533c.292.052 10.467-.032 10.654-.094.032-.292-.01-.97-.062-1.116H18.534c.01.407.031.803.052 1.21ZM3.209 71.579v.532c.042 1.72.083 3.43.114 5.15 0 .062.01.135-.01.187-.063.188.031.313.156.46.167-.345.365-.647.657-.887a2.31 2.31 0 0 1 .98-.5c.365-.073.72.03 1.095.062-.031-1.689-.021-3.346-.063-5.014-.98.01-1.939.01-2.93.01Zm9.747 5.181c.01.021.021.042.032.052h1.563c.511 0 1.033.01 1.543.01.521 0 1.032.022 1.554 0-.073-.301-2.096-4.93-2.21-5.076a748.83 748.83 0 0 1-2.482 5.014Zm26.929-34.642c-.094.114-.178.218-.272.312a.39.39 0 0 0-.104.376c.032.114.052.24.115.344.135.26.27.542.448.782.375.5.782.98 1.178 1.47.396.49.813.959 1.2 1.46.426.562.677 1.208.791 1.907.094.615.053 1.21-.291 1.762a1.514 1.514 0 0 0-.074.166h.324c.083 0 .125-.03.177-.093a2.01 2.01 0 0 1 .281-.313c.49-.448.782-1.011.897-1.647.188-1.022-.094-1.919-.834-2.648-.761-.74-1.553-1.46-2.335-2.18-.522-.49-1.032-.99-1.408-1.605-.031-.03-.062-.052-.093-.093Zm1.866 8.527c.073-.114.135-.208.198-.302.219-.323.406-.657.385-1.074a3.284 3.284 0 0 0-.354-1.376 5.74 5.74 0 0 0-.73-1.053c-.417-.49-.844-.97-1.261-1.46-.48-.583-.897-1.198-1.178-1.907-.01-.021-.032-.042-.042-.073-.156.115-.302.219-.302.427 0 .042-.042.094-.053.136-.03.104-.072.198-.072.302-.032.449.072.865.229 1.282.302.824.698 1.596 1.115 2.367.5.907 1.095 1.762 1.502 2.731h.563ZM11.59 76.792c-.22-.615-.428-1.178-.636-1.741-.209-.553-.407-1.116-.615-1.668-.209-.553-.397-1.116-.647-1.71-.72 1.72-1.418 3.388-2.116 5.077 1.345.02 2.658.031 4.014.042Zm6.797-40.596 9.977-.062c.219-.292.406-.553.615-.855-3.732.031-7.423.041-11.145.073.136.146.24.27.355.385a.533.533 0 0 1 .198.46Zm19.036 8.257c-.27.25-.334.386-.406.792-.094.553-.115 1.105-.126 1.668-.02.897.167 1.752.605 2.534.198.364.417.719.709 1.021a.372.372 0 0 0 .281.125c.49 0 .99.021 1.48.031.043 0 .095-.01.157-.02a5.215 5.215 0 0 0-.135-.26c-.365-.637-.73-1.262-1.095-1.898-.427-.74-.844-1.502-1.115-2.315-.126-.375-.25-.76-.303-1.157-.02-.167-.031-.323-.052-.521Zm-3.106 26.136c.01-.115.01-.188.01-.271l.031-2.555c.01-.636 0-1.271.021-1.907a1.204 1.204 0 0 0-.115-.574l-.719-1.72c-.031-.062-.052-.125-.083-.177h-.042a.228.228 0 0 0-.042.052c-.146.219-.188.459-.198.709-.062 2.054-.125 4.118-.198 6.172 0 .052.01.104.01.187.47-.146.887-.093 1.325.084ZM16.02 53.929c-.094-.062-.177-.02-.26.021-.136.073-.282.094-.407.01-.135-.083-.271-.083-.417-.083-.26 0-.532 0-.792-.01-.125 0-.23.02-.323.114a.428.428 0 0 1-.605 0c-.094-.093-.188-.145-.323-.135-.115.01-.24-.02-.355.052-.166.115-.344.094-.52 0-.21-.104-.418-.125-.627.01a.455.455 0 0 1-.52-.01.41.41 0 0 0-.261-.083c-.282 0-.563-.01-.834-.01a.594.594 0 0 0-.23.04.575.575 0 0 1-.396 0c-.26-.093-.532-.04-.834-.051.073.094.115.146.146.208.156.24.323.48.448.73.084.167.167.23.355.23 2.054.01 4.107.041 6.161.062.063 0 .125-.01.167-.01.146-.365.281-.72.427-1.085Zm1.189-10.821h.052c.063-.031.125-.063.198-.083a2.282 2.282 0 0 1 1.793-.053c.573.22 1.011.616 1.355 1.116.052.073.105.156.167.25.615-.928 1.47-1.438 2.575-1.47 1.095-.031 1.981.428 2.638 1.314 1.063-1.137 2.314-1.543 3.836-1.064a9.593 9.593 0 0 0-.135-.583c-4.14.041-8.247.083-12.385.135-.032.146-.063.282-.094.438Zm8.674 6.245v-.136c-.073-.657-.397-1.167-.96-1.49-.98-.574-1.96-.522-2.93.052a2.185 2.185 0 0 0-.948 1.146c-.052.146-.073.292-.01.428h4.848ZM3.74 68.775a5 5 0 0 0-.03-.167c-.022-.209-.063-.407-.063-.615a4.46 4.46 0 0 1 .365-1.73c.364-.824.834-1.575 1.397-2.284a1.59 1.59 0 0 0 .187-.313c.177-.438.459-.802.845-1.094.052-.032.093-.084.146-.125-.146-.188-.292-.355-.438-.532-.021.031-.042.052-.052.083-.178.376-.407.72-.688 1.033-.48.542-.96 1.084-1.46 1.605-.521.553-.99 1.136-1.334 1.803-.25.49-.271 1.001-.188 1.523.031.156.083.312.146.469.062.166.198.292.365.302.26.063.531.042.802.042Zm37.124-28.148c-.093.167-.166.323-.26.459-.115.177-.094.344 0 .5.083.136.167.26.26.386.303.396.689.73 1.053 1.063.813.75 1.616 1.501 2.43 2.252.27.26.5.552.677.876.615 1.126.709 2.283.177 3.46-.156.345-.375.658-.563.98a.664.664 0 0 0-.062.126c.083-.032.125-.042.167-.073.146-.094.291-.198.438-.303.427-.291.688-.698.844-1.178.24-.719.23-1.449.125-2.189-.042-.313-.177-.604-.323-.886a.789.789 0 0 0-.115-.146c-.094-.094-.198-.188-.292-.281-.459-.438-.917-.887-1.376-1.324-.48-.449-.98-.876-1.46-1.335-.677-.657-1.25-1.397-1.636-2.273a.912.912 0 0 0-.084-.114Zm-16.43-22.769c-.052-.98-.104-1.928-.177-2.877-.313-.031-2.001 0-2.127.042v2.919c.772-.021 1.512-.052 2.304-.084Zm19.693 33.83c-.312-.052-6.39-.157-6.547-.115v.886l6.547.094v-.865Zm-13.573-5.233c-.052-.042-.073-.084-.104-.094-.063-.01-.125-.01-.188-.01-2.398-.011-4.796-.011-7.193-.022-1.47 0-2.93-.01-4.4-.01-.062 0-.114.01-.177.01.427.126.813.292 1.168.542.354.25.646.574.896.95.793-.98 1.793-1.46 3.013-1.45 1.23.01 2.22.532 2.898 1.574 1.116-1.157 2.45-1.699 4.087-1.49Zm1.751 17.243c-.26-.053-5.379-.042-5.525.01.083.209.156.427.25.636.084.188.198.313.449.313.74-.01 1.49.02 2.23.041.73.01 1.46.032 2.19.042.073 0 .146-.01.23-.01.062-.365.114-.699.176-1.032Zm-18.369.792c0-.135.01-.271 0-.407-.073-.625-.438-1.021-1.011-1.23-1.022-.365-2.377.303-2.481 1.637h3.492Zm11.52-19.12c-.073-.667-.865-1.595-2.085-1.563-.938.03-1.897.76-1.98 1.563h4.065Zm-11.572 1.585c-.01 0-.02.01-.031.01.02.073.052.146.073.22.219.656.448 1.313.646 1.98.188.626.292 1.272.24 1.929-.052.563-.219 1.094-.407 1.616a3.61 3.61 0 0 1-.083.229h.865c.052 0 .125-.042.146-.094A3.407 3.407 0 0 0 15.875 51a4.012 4.012 0 0 0-.709-2.22c-.406-.626-.844-1.22-1.282-1.825Zm-2.127-.427c-.01.02-.03.041-.041.062-.323.844-.615 1.71-.803 2.606-.156.75-.23 1.512-.104 2.283.073.46.198.897.438 1.293.03.042.073.104.114.104.136.01.282.032.438-.02.052-2.106-.02-4.212-.042-6.328Zm-1.01-.053c-.022-.01-.032-.02-.053-.031-.344.532-.698 1.043-1.011 1.585-.459.792-.792 1.626-.824 2.564-.02.626.052 1.23.292 1.804.052.125.136.25.22.365.03.041.103.093.155.093.23.01.449 0 .699 0-.02-.083-.042-.135-.063-.198-.354-.948-.427-1.918-.292-2.919.115-.875.355-1.72.636-2.554.073-.23.157-.469.24-.709Zm2.564 6.422c.198-.438.354-.896.48-1.365.166-.647.104-1.293-.074-1.93a22.813 22.813 0 0 0-.865-2.585c-.02-.052-.042-.093-.063-.146-.01 0-.03.01-.041.01l.031 6.016h.532Zm10.216-21.32c-.24.303-1.616 2.638-1.657 2.795h1.564c.52-.01 1.042.01 1.605-.021-.51-.949-1-1.856-1.512-2.773Zm6.777 13.814c-.084-.26-.042-.542-.271-.73a.523.523 0 0 1-.084-.125c-.146-.333-.406-.5-.74-.594a2.168 2.168 0 0 0-1-.031c-.574.114-1.064.365-1.44.823-.145.188-.26.396-.27.657h3.805Zm12.49 16.316c-.272-.563-.616-1.001-1.127-1.283-.5-.27-1.022-.302-1.543-.062-.594.27-.98.74-1.24 1.334-.01.01.01.042.01.073l3.9-.063ZM8.295 52.844c-.031-.083-.041-.125-.062-.167-.47-1.25-.428-2.502-.01-3.742.197-.615.52-1.178.844-1.73a1.7 1.7 0 0 0 .062-.136.115.115 0 0 0-.094.041c-.594.522-1.073 1.126-1.522 1.762-.563.813-.688 1.71-.51 2.659.083.417.25.802.51 1.146.053.063.125.146.198.146.178.032.365.021.584.021Zm11.676-3.471a.921.921 0 0 0-.02-.584c-.136-.386-.344-.73-.657-.99-.636-.532-1.335-.689-2.117-.376-.052.02-.093.052-.145.083.24.324.48.626.688.95.208.333.375.687.573 1.031.146-.114.334-.125.521-.125h.73c.135.01.281.01.427.01Zm.209-4.014c-.156-.48-.396-.886-.761-1.2-.594-.52-1.355-.53-1.98-.03a5.724 5.724 0 0 0-.46.417.277.277 0 0 0-.052.062c-.052.25-.094.5-.146.761 1.147-.01 2.263-.01 3.399-.01ZM5.586 65.293c-.052.083-.094.125-.115.166-.156.303-.313.605-.47.918a3.936 3.936 0 0 0-.385 1.334c-.031.313-.02.626.104.928.053.115.105.167.24.167.334-.01.667 0 1.011.01.053 0 .094-.01.167-.01v-.24c-.01-.49-.02-.99-.01-1.48 0-.209.01-.417-.063-.615-.125-.323-.24-.647-.365-.96-.041-.072-.073-.124-.114-.218Zm22.529-2.961c.145-.282.281-.553.437-.803.157-.26.344-.51.522-.771-.386-.532-.782-1.053-1.178-1.595-.376.458-.762.865-1.074 1.334a.21.21 0 0 0-.021.22c.104.228.188.468.313.677.229.417.542.76 1 .938Zm-2.878-20.715c.063-.198-.031-.344-.104-.48-.699-1.23-2.492-1.24-3.253-.02a1.54 1.54 0 0 0-.23.542c1.21-.01 2.41-.01 3.587-.042Zm22.33 20.006c-.208-.51-.468-.928-.896-1.21-.531-.354-1.074-.354-1.616-.041a1.792 1.792 0 0 0-.323.25c-.333.282-.542.636-.72 1.064l3.556-.063Zm-9.903.156c-.052-.709-.584-1.344-1.251-1.522-.605-.166-1.168.084-1.46.647-.135.26-.302.521-.448.782a.926.926 0 0 0-.073.146c1.095-.01 2.158-.032 3.232-.053ZM26.31 41.628c1.042-.01 2.095-.032 3.159-.042-.01-.084-.021-.146-.031-.209-.053-.229-.115-.458-.146-.688-.032-.25-.167-.375-.397-.448-.094-.031-.187-.063-.291-.073a2.346 2.346 0 0 0-1.93.636 2.36 2.36 0 0 0-.343.438c-.063.094-.084.219-.021.386ZM18.23 64.51c-.041-.188-.073-.365-.125-.532-.229-.76-.98-1.178-1.72-.959-.49.146-.834.49-1.053.949-.073.166-.156.333-.146.542h3.044Zm2.42-22.831c.02-.209 0-.292-.095-.48-.333-.636-1.136-1.053-1.855-.959-.313.042-.574.167-.762.438-.062.083-.156.136-.24.208-.03.032-.083.063-.093.105-.052.229-.084.458-.125.677 1.074.01 2.127.01 3.17.01Zm16.408 8.892c-.062-.093-.094-.156-.135-.219-.667-1.032-1.011-2.157-.98-3.388.01-.302.031-.594.052-.896 0-.042-.01-.094-.01-.136-.324.396-.605.813-.73 1.303a3.312 3.312 0 0 0 .02 1.804c.126.438.303.855.647 1.168.094.083.198.177.323.208.25.063.51.104.813.156Zm-22.372-4.149c.02.042.031.073.052.105.146.208.292.406.438.604.292.417.604.813.865 1.251.813 1.355 1.053 2.784.448 4.285-.01.031-.01.062-.02.114.354-.072.594-.26.792-.531.354-.49.417-1.043.323-1.616-.104-.667-.375-1.272-.761-1.824-.605-.866-1.355-1.596-2.075-2.367-.01 0-.02 0-.062-.02Zm13.51 26.136h3.024v-.125a1.235 1.235 0 0 0-.041-.209c-.178-.625-.689-1.073-1.293-1.115a1.39 1.39 0 0 0-1.001.313 1.804 1.804 0 0 0-.688 1.136Zm-18.89-8.08c-.083-1-.802-1.521-1.636-1.407-.71.094-1.293.772-1.251 1.408h2.888Zm22.362-9.142c.021-.01.042-.01.063-.021.073-.96.156-1.929.23-2.888h-1.669c.073 1.168.542 2.127 1.377 2.909ZM5.45 61.039c-.062.094-.104.136-.135.188a7.44 7.44 0 0 1-1.23 1.501 27.348 27.348 0 0 0-2.19 2.335c-.23.271-.448.553-.636.866a2.218 2.218 0 0 0 .178 2.533c.041.052.093.094.145.156.01-.052.01-.062.01-.073-.01-.03-.01-.073-.02-.104-.25-.938-.146-1.824.355-2.669a9.885 9.885 0 0 1 1.396-1.814 39.84 39.84 0 0 0 1.283-1.407c.219-.26.417-.542.604-.834.126-.188.209-.396.24-.678Zm24.812-.25c.146.24.282.47.407.709.125.24.24.5.354.75.365-.27 1.084-1.24 1.262-1.699-.157-.281-.793-1.042-.95-1.136-.354.448-.719.917-1.073 1.376ZM2.406 69.734c.052.083.073.125.104.156.136.188.292.376.417.574a.336.336 0 0 0 .313.166h2.7c.063 0 .125-.01.188-.01v-.699c0-.041-.01-.083-.021-.146-1.22-.02-2.44-.041-3.7-.041Zm21.872 2.846c.282.042 2.565.02 2.721-.021a1.132 1.132 0 0 0-1.199-1.251c-.667.031-1.345.594-1.522 1.272ZM30.2 51.438c.27.052 2.147.02 2.314-.032l-.031-1.073c-.25-.052-2.158-.042-2.325.01.02.365.031.73.041 1.095Zm-1.606 7.057c.365.5.72.98 1.074 1.46.208-.177.938-1.126 1.021-1.324-.333-.375-.667-.75-1-1.136l-1.095 1Zm-1.616-9.153h2.106c-.156-.01-.313-.01-.47-.01-.28-.01-.49-.209-.5-.459-.01-.26.178-.459.47-.49.073-.01.146-.01.218-.01h.324l.031-.939c-.542.126-1.053.345-1.49.699a3.152 3.152 0 0 0-.512.542.786.786 0 0 0-.177.667Zm5.4 23.196c.407.042 2.169.01 2.325-.041-.125-.386-.302-.72-.646-.96-.323-.229-.667-.229-1.011-.02-.355.24-.542.594-.668 1.021ZM2.75 78.971c0-.365-.094-.678-.375-.918a.692.692 0 0 0-.74-.125c-.397.156-.657.688-.553 1.115.542-.114 1.105-.01 1.668-.073Zm16.42-46.424h-.052c-.136.605-.261 1.22-.397 1.825h1.533c-.375-.636-.73-1.23-1.084-1.825Zm6.38 26.355c-.448.521-.667 1.095-.636 1.752.02.427.208.959.386 1.094l.406-1.188a.674.674 0 0 0 0-.25 24.543 24.543 0 0 1-.114-.918 5.74 5.74 0 0 1-.042-.49Zm2.502-24.572c-.146-.646-.292-1.261-.427-1.866h-.042c-.323.615-.657 1.23-.97 1.866h1.439ZM5.2 78.97c-.02-.594.177-1.094.553-1.553-.303-.062-.553-.02-.793.136-.448.302-.667.75-.792 1.25-.01.053 0 .105 0 .168H5.2Zm23.874-23.758c.177.344.406.656.656.938.23-.167.543-.563.647-.782-.209-.386-.407-.75-.615-1.126-.22.313-.449.626-.688.97Zm2.189 2.648c.23-.334.344-.668.427-1.022.021-.094 0-.167-.073-.23a15.276 15.276 0 0 0-.417-.406c-.062-.063-.125-.115-.187-.167-.22.282-.428.542-.647.813.292.334.584.668.897 1.012Zm1.22-.449c-.188.407-.365.782-.542 1.157.156.24.698.866.823.928.01-.041.031-.083.042-.125.156-.48.135-.97.114-1.46a.155.155 0 0 0-.041-.093c-.136-.136-.26-.26-.396-.407Zm-4.358.23c.344-.313.646-.584.938-.855-.219-.313-.417-.605-.636-.907-.114.104-.219.219-.333.302a.538.538 0 0 0-.22.417c-.041.375.115.678.25 1.043Zm-1.595 1.626c.042-.031.062-.031.073-.052.25-.282.49-.574.74-.855.052-.063.052-.115.02-.198l-.312-.907c-.01-.031-.031-.052-.042-.084a.822.822 0 0 0-.385.595 7.25 7.25 0 0 0-.115 1.25c.01.084.02.157.02.251Zm7.11 1.98c.25-.25.365-.53.344-.844-.01-.333-.063-.667-.104-1-.01-.084-.053-.157-.073-.24-.115.448-.23.875-.407 1.292-.01.032-.02.084 0 .126.073.208.146.427.24.667Zm-3.993.366c-.25.354-.5.677-.605 1.094h1.137a5.588 5.588 0 0 0-.532-1.094ZM30.94 48.34c-.052-.208-.094-.437-.146-.667a.158.158 0 0 0-.052-.062c-.23-.167-.49-.24-.814-.25.22.312.115.646.188.98h.824Zm1.782 13.428c-.01 0-.02-.01-.041-.01-.115.156-.23.323-.355.48-.114.156-.24.302-.375.479.25.031.47.052.615-.178.02-.03.063-.052.094-.083.031-.031.062-.073.062-.104.01-.209 0-.396 0-.584Zm-6.213-5.442c.146-.125.25-.23.365-.323a.113.113 0 0 0 .031-.073c-.01-.24 0-.49-.198-.709-.281.313-.25.678-.198 1.105Zm-.26 6.39c.24 0 .448.022.667-.01-.209-.27-.417-.521-.626-.792-.083.26-.01.521-.042.803ZM17.365 46.35v-.02h-.74c-.042.104-.073.208-.042.312.26-.104.521-.198.782-.292Zm12.802 2.94v.052h.98c-.02-.094-.041-.177-.062-.302-.261.323-.615.188-.918.25Z" fill="#256CA1"/><path d="M27.75 55.222a30.413 30.413 0 0 0-.386-.907.886.886 0 0 0-.188-.281c-.208-.22-.49-.209-.698.02-.032.042-.063.073-.094.115-.167.23-.323.48-.5.699-.22.26-.292.552-.282.875.01.428.02.855.042 1.283.01.114-.031.198-.094.291-.375.5-.761.99-1.105 1.512-.521.792-.594 1.668-.355 2.575.125.47.344.886.699 1.24.26.261.48.543.782.772.094.073.135.23.208.365-.083.01-.135.02-.187.02-1.981-.02-3.962-.051-5.943-.072-.187 0-.375.031-.584.052-.406-1.167-1.23-1.803-2.554-1.751 0-.084-.01-.157-.01-.24 0-1.637.01-3.274.01-4.92 0-.418-.01-.835.01-1.241.011-.209.032-.417.095-.615a6.39 6.39 0 0 1 .344-.835c.114-.25.291-.448.51-.635.084-.073.146-.167.22-.261.03-.042.062-.094.104-.136.125-.166.26-.323.375-.49.062-.104.135-.145.26-.145.449 0 .908 0 1.356-.01l9.143-.064h.312c.01.449.021.866-.198 1.252a5.9 5.9 0 0 1-.469.667 21.75 21.75 0 0 0-.823.865Zm-8.716 2.169h.032v1.678c0 .26.125.438.354.5.073.021.156.021.23.021.49 0 .969 0 1.459-.01.073 0 .146-.01.208-.021.303-.073.438-.323.355-.626a1.095 1.095 0 0 1-.052-.312c-.01-.146 0-.282 0-.428v-2.377c0-.166-.021-.323-.146-.438-.125-.114-.198-.26-.282-.396a9.252 9.252 0 0 0-.459-.677c-.218-.303-.698-.376-.917.093-.115.23-.25.449-.375.668a.307.307 0 0 1-.094.104c-.26.125-.313.354-.313.605v1.616Zm6.787-23.634a2.922 2.922 0 0 0-.104-.146c-.522-.949-1.032-1.898-1.554-2.846a1.682 1.682 0 0 0-.177-.292c-.281-.407-.709-.365-.938.02-.511.876-1.032 1.731-1.553 2.596l-.449.74c-.041-.062-.083-.104-.114-.145-.49-.813-.98-1.637-1.47-2.45-.063-.094-.042-.178-.021-.26.156-.71.302-1.408.459-2.117l1.563-7.298c.177-.813.344-1.626.521-2.429.01-.062.032-.125.053-.198l2.45-.094c.03.104.052.198.073.292.458 1.991.917 3.993 1.365 5.984.438 1.898.866 3.795 1.303 5.692.032.146.01.26-.052.386-.427.803-.844 1.605-1.272 2.408-.01.021-.041.073-.083.157ZM24.122 73.56c3.607-.021 7.193-.052 10.8-.073.052 1.824.021 3.638.052 5.473-3.555-.02-7.1-.031-10.675-.052a818.846 818.846 0 0 1-.177-5.348Zm-5.036-8.945c.167.02.344.052.511.052 2.085.031 4.18.052 6.266.084.104 0 .208.01.344.02.01.167.041.324.041.47l.032 4.941c0 .063-.01.125-.01.177a.174.174 0 0 1-.053.021c-1.199-.114-2.054.417-2.648 1.418-.094.156-.146.344-.219.51-.02.053-.042.115-.073.157-.125.146-.146.323-.135.5.01.188 0 .365 0 .564-.042 0-.084.01-.125.01-1.21-.02-2.419-.01-3.628.073-.396.031-.313.031-.543-.125-.01-.292-.03-.605-.03-.907.01-1 .041-2.002.062-3.002.01-.782.031-1.575.041-2.367.01-.573.146-1.136.292-1.689a.59.59 0 0 1 .042-.125c.146-.23.104-.438-.042-.636a1.56 1.56 0 0 1-.125-.146ZM35.913 78.96v-3.784c.083 0 .156-.01.24-.01 3.617 0 7.234.01 10.841.01.115 0 .209.031.282.125.167.208.344.406.5.615a.385.385 0 0 1 .073.24c.01.875 0 1.762.01 2.637 0 .052 0 .115-.01.198-.083 0-.166.01-.25.01-1.95 0-3.899-.01-5.838-.01-1.856-.01-3.711-.01-5.567-.02-.094-.01-.177-.01-.282-.01ZM7.077 68.274c3.627.052 7.245.094 10.883.146v.271c-.03 1.21-.073 2.419-.073 3.628 0 .824.052 1.647.084 2.471 0 .073 0 .136-.032.209-.041-.084-.072-.157-.114-.24-.594-1.376-1.189-2.763-1.783-4.139l-.062-.136c-.094-.198-.25-.312-.47-.312a.506.506 0 0 0-.458.292 8.04 8.04 0 0 0-.26.52l-2.41 4.849c-.01.03-.03.062-.062.114-.03-.052-.062-.094-.073-.135-.636-1.741-1.282-3.482-1.918-5.213-.031-.083-.052-.167-.094-.24-.135-.25-.385-.323-.636-.208a.832.832 0 0 0-.458.48c-.595 1.438-1.189 2.866-1.783 4.305-.042.094-.083.188-.156.281a308.415 308.415 0 0 1-.125-6.943Zm28.283-2.21c3.743-.02 7.464-.052 11.207-.073l.094 5.745c-.01 0-.031.01-.042.01-.02-.042-.042-.073-.062-.115-.543-1.22-1.085-2.45-1.627-3.67-.062-.135-.104-.26-.166-.396-.136-.281-.365-.375-.657-.27-.053.02-.094.041-.146.041-.23.031-.365.177-.449.375-.75 1.814-1.49 3.628-2.241 5.442-.031.073-.063.146-.104.25-.042-.062-.084-.104-.105-.146-.416-.834-.823-1.668-1.24-2.502a44391.9 44391.9 0 0 0-1.533-3.096c-.093-.198-.229-.354-.469-.344-.25 0-.427.136-.542.365-.344.73-.677 1.45-1.021 2.179-.261.553-.522 1.105-.772 1.647l-.073.146a.3.3 0 0 1-.135-.26v-.303c.02-1.605.052-3.21.072-4.806-.01-.073 0-.125.011-.219ZM9.88 63.145c-.239-.24-.458-.459-.666-.678-.032-2.168-.01-4.336-.084-6.536.532-.02 1.064 0 1.595 0 .532 0 1.074.01 1.606.02.532.011 1.063.011 1.584.011.532 0 1.074 0 1.627.021v.26c-.01 1.971-.021 3.931-.021 5.901 0 .157-.042.261-.177.355-.198.156-.365.344-.542.521-.053.052-.094.104-.146.167a.799.799 0 0 1-.094-.136c-.48-.792-1.2-1.199-2.106-1.24-1.043-.042-1.887.375-2.513 1.22a.206.206 0 0 1-.062.114Zm3.347-3.972c-.01 0-.01 0 0 0-.01.47-.01.938-.01 1.418 0 .083 0 .177.01.26a.457.457 0 0 0 .897.053c.02-.084.031-.188.031-.271.01-.98.01-1.96.01-2.94a.97.97 0 0 0-.03-.25.458.458 0 0 0-.418-.313.43.43 0 0 0-.438.281 1.034 1.034 0 0 0-.052.313c-.01.48 0 .96 0 1.45Zm-2.668.063v1.418c0 .083 0 .156.01.24a.475.475 0 0 0 .427.385.45.45 0 0 0 .47-.334c.02-.083.03-.187.03-.27v-2.878c0-.063 0-.125-.01-.188a.469.469 0 0 0-.928.01c-.01.074-.01.147-.01.22.01.458.01.928.01 1.397Zm27.031-5.828 6.537.094c0 .083.01.146.01.208-.01 1.992-.03 3.983-.04 5.974a.519.519 0 0 1-.157.396c-.177.188-.323.417-.49.626-.021.02-.031.041-.063.073a1.994 1.994 0 0 1-.135-.178c-.396-.542-.897-.97-1.533-1.188-1.01-.344-1.918-.125-2.72.553-.199.166-.366.385-.543.583-.042.042-.073.084-.114.136a1.528 1.528 0 0 0-.094-.136c-.167-.208-.323-.417-.5-.615a.424.424 0 0 1-.115-.26c-.01-2.023-.032-4.056-.042-6.078a.553.553 0 0 1 0-.188Zm5.412 2.742h.01v-1.22c0-.094 0-.188-.02-.281a.455.455 0 0 0-.428-.365.451.451 0 0 0-.459.313.702.702 0 0 0-.042.25c-.01.855-.01 1.699-.01 2.554 0 .094.02.198.052.292.073.177.25.292.438.281a.457.457 0 0 0 .427-.333c.021-.084.021-.167.021-.25.01-.407.01-.824.01-1.241Zm-4.223.062c0 .397 0 .803.01 1.2a.95.95 0 0 0 .042.291c.063.188.24.302.428.302a.447.447 0 0 0 .438-.312c.02-.084.031-.167.031-.25v-2.45a.956.956 0 0 0-.052-.292.443.443 0 0 0-.448-.271.445.445 0 0 0-.407.323 1.03 1.03 0 0 0-.031.25c-.01.407-.01.803-.01 1.21Zm2.565-.041h-.02v-1.137c0-.073 0-.146-.011-.219-.042-.25-.23-.427-.459-.427-.24 0-.438.177-.47.438v.104c.011.803.011 1.606.022 2.398 0 .073.01.156.031.23a.47.47 0 0 0 .459.354.446.446 0 0 0 .438-.344c.02-.094.03-.198.03-.292-.02-.355-.02-.73-.02-1.105Zm-6.109 8.955c-.323-.772-.636-1.533-.97-2.335 4.504-.073 8.966-.146 13.46-.209a5.018 5.018 0 0 1-.251.761c-.25.553-.563 1.074-.886 1.595-.073.115-.167.125-.271.125-1.24.01-2.492.021-3.732.021-2.336.021-4.66.031-6.996.052-.114-.01-.229-.01-.354-.01ZM21.203 40.429c-.907-1.001-1.97-1.408-3.316-.949l.438-2.335c3.399-.021 6.777-.052 10.175-.073.157.72.313 1.438.47 2.179-1.272-.198-2.325.177-3.212 1.115-.594-.72-1.355-1.115-2.293-1.094-.928.02-1.668.437-2.262 1.157ZM7.17 67.294c-.062-.646-.281-1.24-.552-1.866 3.92.01 7.798.032 11.686.042-.145.667-.291 1.314-.427 1.96-.188.052-10.29-.073-10.707-.136Zm20.048-1.709c1.668.03 3.305.062 4.952.104.01.073.02.125.01.177-.041 1.49-.093 2.992-.135 4.483-.01.24 0 .469.01.709 0 .146-.125.208-.198.333a3.185 3.185 0 0 0-.104-.145c-.834-1.272-2.575-1.48-3.732-.324-.125.125-.24.282-.365.417-.146-.166-.292-.323-.428-.48a.21.21 0 0 1-.03-.114c.01-.167.03-.323.03-.49 0-1.46-.01-2.919-.01-4.379v-.291Zm.823 2.168h.032v1.199c0 .073.01.156.02.23.053.208.23.343.439.354a.437.437 0 0 0 .448-.334c.031-.104.041-.208.041-.313l-.03-2.335a.777.777 0 0 0-.043-.27.448.448 0 0 0-.427-.303.448.448 0 0 0-.427.302.944.944 0 0 0-.042.292c-.01.396-.01.792-.01 1.178Zm2.2-.01h.021v.604c0 .24 0 .47.02.71a.455.455 0 0 0 .439.427.46.46 0 0 0 .48-.376c.02-.083.02-.166.02-.26-.01-.761-.01-1.522-.02-2.273 0-.073 0-.146-.021-.209a.466.466 0 0 0-.438-.354.448.448 0 0 0-.46.323c-.03.094-.03.198-.03.292-.01.375-.01.74-.01 1.116ZM23.34 78.908h-3.66c.021-.104.042-.188.053-.282.052-.312.041-.615-.084-.907a1.071 1.071 0 0 0-.344-.458.652.652 0 0 1-.27-.521c-.032-.699-.084-1.397-.126-2.096 0-.031 0-.052.01-.083.303-.084 3.952-.105 4.285-.021.042 1.438.084 2.888.136 4.368Zm-.084-70.359.052.104c.292.855.782 1.564 1.408 2.21.26.271.521.553.782.834.031.042.073.094.073.146 0 .417.01.844-.167 1.24a2.057 2.057 0 0 1-.688.855.32.32 0 0 1-.198.063c-.834.02-1.679.031-2.513.042-.041 0-.093 0-.125-.021-.584-.271-1.032-.688-1.293-1.283-.145-.333-.114-.688-.093-1.042 0-.042.052-.094.093-.135.428-.376.855-.74 1.283-1.116.552-.49 1.011-1.053 1.303-1.741a.49.49 0 0 0 .083-.156ZM6.16 78.97c-.147-.427.155-.917.374-1.084.032-.031.094-.031.136-.041.052-.01.115-.01.146-.032.146-.125.323-.104.49-.104 3.7.031 7.402.052 11.092.084.105 0 .209.01.303.083.104.083.166.177.156.313 0 .114 0 .229-.031.344-.094.396-.105.396-.522.396-3.982.01-7.954.031-11.936.041h-.209Z" fill="#DFE7E8"/><path d="M40.447 74.185h-4.545c-.01-.073-.02-.125-.02-.187 0-.344-.011-.688-.011-1.032 0-.084.031-.167.073-.24.062-.146.135-.282.198-.428.469-1.01.948-2.022 1.418-3.033.073-.146.135-.292.208-.449.125.146 2.481 4.88 2.68 5.37Zm6.203.011h-4.795c.771-1.877 1.532-3.712 2.293-5.557h.052l2.45 5.557ZM18.586 51.532c-.021-.407-.042-.803-.052-1.21h10.644c.052.146.083.824.062 1.116-.198.062-10.362.146-10.654.093ZM3.209 71.58h2.94c.041 1.667.031 3.335.062 5.014-.375-.032-.73-.146-1.094-.063-.376.073-.699.26-.98.5-.282.24-.48.542-.657.887-.125-.157-.22-.282-.157-.46.021-.062.01-.124.01-.187-.04-1.72-.083-3.43-.114-5.15-.01-.177-.01-.354-.01-.542Zm1.866 2.376c-.021-.386-.031-.771-.052-1.157a.59.59 0 0 0-.031-.188.47.47 0 0 0-.49-.365.47.47 0 0 0-.428.438c-.01.073 0 .157 0 .24l.094 2.147c0 .073.01.147.031.209.063.209.24.334.448.334a.456.456 0 0 0 .449-.365.852.852 0 0 0 .01-.282l-.031-1.011Zm7.881 2.804a1118.86 1118.86 0 0 1 2.492-5.004c.115.136 2.137 4.775 2.21 5.077-.521.021-1.043 0-1.553 0-.511 0-1.032-.01-1.543-.01h-1.564c-.02-.031-.031-.052-.042-.063Zm26.929-34.642c.03.041.052.052.073.073.375.615.886 1.115 1.407 1.605.782.73 1.574 1.439 2.335 2.179.74.73 1.032 1.626.834 2.648a2.874 2.874 0 0 1-.896 1.647 2.635 2.635 0 0 0-.282.313c-.052.062-.094.094-.177.094h-.323a2.61 2.61 0 0 1 .073-.167c.344-.542.385-1.136.291-1.762a4.124 4.124 0 0 0-.792-1.908c-.386-.5-.792-.97-1.199-1.46-.396-.49-.802-.969-1.178-1.47a5.171 5.171 0 0 1-.448-.781c-.052-.104-.083-.23-.115-.344a.39.39 0 0 1 .105-.375c.114-.073.198-.178.291-.292Z" fill="#DFE7E8"/><path d="M41.75 50.645h-.583c-.407-.98-1.001-1.824-1.501-2.731-.417-.761-.814-1.543-1.116-2.367-.156-.416-.25-.833-.23-1.282.011-.104.053-.208.074-.302.01-.052.052-.094.052-.136 0-.208.146-.312.302-.427.021.031.031.042.042.073.281.709.698 1.324 1.178 1.908.406.5.844.97 1.261 1.46a5.2 5.2 0 0 1 .73 1.052c.219.438.334.897.354 1.376.021.417-.166.74-.385 1.074-.042.094-.104.188-.177.302ZM11.59 76.792c-1.355-.01-2.668-.021-4.013-.042.709-1.7 1.407-3.357 2.116-5.077.25.594.438 1.157.647 1.71.208.552.406 1.115.615 1.668.208.573.417 1.136.636 1.74Zm6.798-40.596a.563.563 0 0 0-.188-.459c-.114-.114-.219-.24-.354-.385 3.721-.032 7.412-.042 11.144-.073a25.43 25.43 0 0 0-.615.855l-9.987.062Zm19.036 8.257c.021.198.021.354.042.521.052.396.177.782.302 1.157.271.824.688 1.575 1.116 2.315.365.636.73 1.261 1.094 1.897.042.083.084.167.136.26-.063.011-.115.021-.156.021l-1.48-.03a.372.372 0 0 1-.282-.126c-.282-.302-.5-.657-.71-1.022-.437-.792-.614-1.636-.604-2.533.01-.563.031-1.115.125-1.668.084-.406.157-.542.417-.792ZM16.021 53.93c-.146.364-.281.719-.438 1.094-.041 0-.104.01-.166.01l-6.162-.062c-.187 0-.27-.063-.354-.23-.125-.25-.292-.49-.448-.73-.042-.062-.084-.114-.146-.208.302.01.573-.041.834.052a.52.52 0 0 0 .396 0 .596.596 0 0 1 .23-.041c.28 0 .562.01.833.01a.41.41 0 0 1 .26.083c.168.126.345.126.522.01a.612.612 0 0 1 .626-.01c.177.094.354.115.52 0 .116-.072.23-.041.355-.052.136-.01.22.042.324.136a.428.428 0 0 0 .604 0 .392.392 0 0 1 .323-.115c.261.01.532.01.793.01.146 0 .281.011.417.084a.405.405 0 0 0 .406-.01c.084-.053.167-.084.271-.032Zm1.189-10.822c.031-.156.062-.292.094-.448 4.128-.042 8.246-.084 12.385-.136.041.198.083.376.135.584-1.522-.48-2.773-.083-3.836 1.063-.657-.875-1.543-1.344-2.638-1.313-1.094.031-1.95.542-2.575 1.47a2.762 2.762 0 0 0-.167-.25c-.344-.5-.771-.897-1.355-1.116a2.28 2.28 0 0 0-1.793.052 1.133 1.133 0 0 1-.198.084c0 .01-.01.01-.052.01Zm8.674 6.245h-4.848c-.063-.146-.042-.282.01-.428.178-.5.5-.886.949-1.146.959-.574 1.95-.626 2.93-.053.562.334.886.834.959 1.491v.136ZM3.74 68.775c-.27 0-.542.02-.792-.01a.466.466 0 0 1-.365-.303c-.052-.156-.114-.313-.146-.47-.093-.52-.062-1.042.188-1.521.344-.678.813-1.262 1.334-1.804.5-.521.98-1.063 1.46-1.605.281-.313.5-.657.688-1.032.01-.021.031-.042.052-.084l.438.532c-.052.042-.094.083-.146.125a2.511 2.511 0 0 0-.844 1.095 1.188 1.188 0 0 1-.188.312 9.867 9.867 0 0 0-1.397 2.283 4.519 4.519 0 0 0-.365 1.731c0 .209.042.407.063.615 0 .021.01.063.02.136Zm37.124-28.148c.042.062.073.094.084.135.386.866.959 1.616 1.637 2.273.469.459.98.886 1.46 1.334.468.438.916.876 1.375 1.324.094.094.198.188.292.282a.512.512 0 0 1 .115.146c.135.281.27.563.323.886.104.74.115 1.47-.125 2.19-.157.479-.428.885-.844 1.177-.146.105-.292.209-.438.303-.042.02-.084.041-.167.073a.445.445 0 0 0 .062-.126c.188-.323.417-.635.563-.98.532-1.177.438-2.335-.177-3.46a3.459 3.459 0 0 0-.678-.876 448.26 448.26 0 0 0-2.429-2.252c-.364-.344-.75-.667-1.053-1.063a3.137 3.137 0 0 1-.26-.386c-.094-.167-.115-.334 0-.5.094-.157.167-.313.26-.48Zm-16.43-22.769-2.304.094v-2.919c.126-.042 1.814-.083 2.127-.042.063.939.115 1.887.177 2.867Zm19.693 33.83v.865l-6.547-.094v-.886c.147-.041 6.235.063 6.547.115Z" fill="#DFE7E8"/><path d="M30.554 46.455c-1.637-.199-2.982.333-4.087 1.511-.677-1.042-1.668-1.564-2.898-1.574-1.22-.01-2.22.47-3.013 1.449-.25-.375-.531-.699-.896-.949a3.858 3.858 0 0 0-1.168-.542c.063 0 .115-.01.177-.01 1.47 0 2.93.01 4.4.01 2.398.01 4.795.01 7.193.021.063 0 .125-.01.188.01.031-.01.052.021.104.074Zm1.751 17.243c-.062.333-.114.667-.177 1.021-.083 0-.156.01-.23.01-.729-.01-1.459-.03-2.189-.04-.74-.011-1.49-.043-2.23-.043-.25 0-.365-.125-.449-.312-.094-.209-.167-.428-.25-.636.146-.042 5.265-.053 5.525 0Zm-18.369.792h-3.503c.105-1.334 1.46-1.991 2.482-1.637.583.209.948.605 1.01 1.23.022.136.011.272.011.407Zm11.52-19.12H21.39c.073-.802 1.043-1.532 1.981-1.563 1.22-.032 2.012.907 2.085 1.563Zm-11.572 1.585c.428.605.876 1.199 1.293 1.814a4.01 4.01 0 0 1 .709 2.22c.01.668-.188 1.283-.542 1.846-.032.041-.094.093-.146.093-.282.01-.553 0-.866 0 .032-.093.053-.166.084-.229.188-.521.365-1.053.406-1.616.053-.657-.052-1.303-.24-1.928-.197-.668-.427-1.314-.646-1.981-.02-.073-.052-.146-.073-.22 0 .011.01 0 .021 0Zm-2.127-.427c.021 2.116.084 4.222.053 6.328-.157.052-.303.03-.438.02-.042 0-.094-.062-.115-.104-.24-.396-.365-.834-.438-1.293-.125-.771-.062-1.532.104-2.283.188-.886.48-1.751.803-2.606 0-.02.021-.031.031-.063Zm-1.011-.053c-.083.24-.167.48-.25.73-.282.834-.521 1.678-.636 2.554-.135.99-.063 1.97.292 2.92.02.062.042.114.063.197-.24 0-.47.01-.699 0-.052 0-.125-.052-.156-.093a1.613 1.613 0 0 1-.22-.365 4.434 4.434 0 0 1-.291-1.804c.031-.938.365-1.772.823-2.564.313-.543.678-1.064 1.012-1.585.03-.01.041 0 .062.01Zm2.564 6.422h-.53l-.032-6.015c.01 0 .031-.01.042-.01.02.052.041.093.062.145.344.845.636 1.7.865 2.586.167.636.23 1.282.073 1.928-.125.48-.292.928-.48 1.366Zm10.217-21.319c.5.928 1.001 1.824 1.512 2.762-.553.042-1.074.021-1.605.021-.522.01-1.043 0-1.564 0 .041-.156 1.418-2.48 1.657-2.783Zm6.777 13.813h-3.795c.02-.27.125-.469.271-.657.375-.458.865-.709 1.439-.823a2.169 2.169 0 0 1 1 .031c.334.094.595.271.74.594.022.042.042.094.084.125.22.188.188.47.26.73Zm12.489 16.315-3.899.063c-.01-.031-.02-.052-.01-.073.26-.584.636-1.063 1.24-1.334.521-.23 1.043-.199 1.543.062.511.282.855.72 1.126 1.282ZM8.296 52.845c-.208 0-.396.01-.584-.01-.073-.01-.145-.084-.198-.146a2.777 2.777 0 0 1-.51-1.147c-.178-.949-.063-1.856.51-2.659.449-.646.939-1.25 1.522-1.761.021-.021.042-.032.094-.042-.02.042-.041.094-.062.136-.334.552-.647 1.115-.845 1.73-.406 1.24-.448 2.502.01 3.743.022.031.032.073.063.156Zm11.676-3.472h-.427c-.24 0-.49.01-.73 0-.187 0-.375.01-.521.126-.188-.344-.365-.699-.573-1.032-.209-.324-.449-.626-.688-.95.052-.03.093-.062.145-.083.782-.312 1.491-.156 2.117.376.313.26.521.604.657.99a.885.885 0 0 1 .02.574Zm.208-4.013h-3.398c.052-.26.094-.511.146-.761 0-.021.032-.052.052-.063.157-.135.303-.281.46-.417.625-.5 1.375-.49 1.98.032.375.323.605.73.76 1.209ZM5.586 65.293c.041.093.083.146.104.208.125.323.24.647.365.96.073.197.073.406.062.614-.01.49.01.99.01 1.48v.24c-.072.011-.114.011-.166.011-.334 0-.667-.01-1.011-.01-.125 0-.188-.053-.24-.167a1.76 1.76 0 0 1-.104-.928 3.98 3.98 0 0 1 .386-1.334c.156-.303.312-.616.469-.918.03-.031.073-.073.125-.156Zm22.528-2.961c-.469-.177-.771-.521-1-.938-.125-.22-.209-.459-.313-.678a.21.21 0 0 1 .02-.219c.313-.469.7-.886 1.075-1.334.406.542.792 1.063 1.178 1.595-.188.27-.365.51-.522.771-.156.26-.281.532-.438.803Zm-2.877-20.715a381.23 381.23 0 0 1-3.586.042c.042-.219.135-.386.23-.542.76-1.22 2.553-1.21 3.252.02.083.147.177.282.104.48Zm22.331 20.006c-1.2.02-2.356.042-3.555.063.177-.428.386-.782.72-1.064.103-.083.208-.177.322-.25.542-.313 1.095-.313 1.616.042.428.281.688.698.897 1.21Zm-9.904.157c-1.074.02-2.137.03-3.232.052.042-.073.052-.115.073-.146.146-.261.313-.511.448-.782.292-.553.855-.803 1.46-.647.667.188 1.199.814 1.25 1.522ZM26.31 41.628c-.072-.167-.051-.282.022-.386a2.36 2.36 0 0 1 .344-.438c.542-.5 1.188-.72 1.929-.636.093.01.197.042.291.073.22.063.365.198.396.448.032.23.094.46.146.688.01.063.021.125.032.209-1.064.01-2.106.02-3.16.042ZM18.231 64.51h-3.033c-.01-.197.062-.375.146-.541.219-.459.552-.793 1.053-.949.74-.23 1.48.198 1.72.96.041.166.073.343.114.53Zm2.419-22.83h-3.159c.042-.22.084-.449.125-.678.01-.042.063-.073.094-.104.073-.073.177-.125.24-.209.188-.27.448-.396.761-.438.72-.093 1.512.324 1.856.96.083.177.104.26.083.469Zm16.41 8.892c-.303-.052-.564-.093-.814-.156-.115-.031-.23-.125-.323-.208-.344-.313-.521-.73-.646-1.168a3.311 3.311 0 0 1-.021-1.804c.125-.49.406-.907.73-1.303 0 .042.01.094.01.136-.021.302-.042.594-.052.896-.032 1.23.313 2.356.98 3.388.041.063.073.115.135.22Z" fill="#DFE7E8"/><path d="M14.687 46.423c.031.01.052.01.062.021.72.771 1.47 1.501 2.075 2.367.386.552.657 1.157.761 1.824.094.573.031 1.126-.323 1.616-.198.27-.438.459-.792.532.01-.053.01-.084.02-.115.605-1.512.365-2.93-.448-4.285-.26-.438-.573-.834-.865-1.25a30.16 30.16 0 0 0-.438-.605c-.01-.021-.02-.053-.052-.105Zm13.511 26.136c.083-.48.323-.855.688-1.136a1.44 1.44 0 0 1 1-.313c.605.042 1.116.48 1.294 1.115.02.073.03.136.041.209.01.031 0 .073 0 .125h-3.023ZM9.308 64.48H6.42c-.042-.636.531-1.314 1.25-1.408.835-.114 1.554.407 1.638 1.408Zm22.362-9.143c-.835-.782-1.293-1.741-1.377-2.909h1.668c-.073.97-.156 1.929-.229 2.888-.031.01-.042.01-.063.02ZM5.45 61.04a1.35 1.35 0 0 1-.24.677 9.417 9.417 0 0 1-.604.834c-.417.48-.845.959-1.283 1.407a9.449 9.449 0 0 0-1.396 1.814c-.5.845-.595 1.73-.355 2.67a.37.37 0 0 1 .02.103c0 .01 0 .032-.01.073-.062-.062-.114-.104-.145-.156a2.235 2.235 0 0 1-.178-2.533 8.47 8.47 0 0 1 .636-.866 28.876 28.876 0 0 1 2.19-2.335 7.38 7.38 0 0 0 1.23-1.501c.031-.052.073-.104.135-.188Zm24.812-.25c.365-.46.72-.918 1.084-1.377.157.094.793.855.949 1.136-.177.449-.897 1.428-1.262 1.7-.114-.25-.229-.5-.354-.751-.135-.24-.281-.47-.417-.709ZM2.406 69.734c1.262 0 2.481.02 3.711.02.01.063.021.105.021.147v.698c-.073.01-.135.01-.187.01h-2.7c-.146 0-.24-.041-.313-.166-.125-.198-.282-.376-.417-.574-.042-.02-.063-.062-.115-.135Zm21.872 2.846c.177-.678.855-1.24 1.522-1.282a1.137 1.137 0 0 1 1.2 1.25c-.146.063-2.44.084-2.721.032ZM30.2 51.438c-.01-.365-.032-.73-.042-1.095.167-.052 2.074-.063 2.325-.01l.03 1.073c-.166.063-2.042.084-2.313.032Zm-1.606 7.057c.375-.343.72-.656 1.084-1 .334.385.668.76 1.001 1.136-.083.198-.803 1.136-1.022 1.324-.344-.48-.698-.96-1.063-1.46Zm-1.616-9.153a.817.817 0 0 1 .177-.677c.157-.198.324-.386.511-.542.438-.365.949-.574 1.491-.699l-.031.938h-.324c-.072 0-.145 0-.218.01-.282.032-.48.24-.47.49.01.25.22.449.5.46.157.01.314 0 .47.01-.698.01-1.397.01-2.106.01Zm5.4 23.196c.126-.427.313-.792.678-1.022.334-.208.678-.208 1.011.021.334.24.522.574.647.96-.167.052-1.929.083-2.336.041ZM2.75 78.97c-.573.053-1.126-.041-1.668.073-.094-.417.167-.959.553-1.115a.689.689 0 0 1 .74.125c.281.24.375.553.375.918Zm16.42-46.423c.354.595.709 1.2 1.094 1.825h-1.532c.125-.615.26-1.22.396-1.825h.042Zm6.38 26.355c.01.188.02.344.042.5.041.303.083.605.114.918a.677.677 0 0 1 0 .25c-.125.396-.27.792-.406 1.189-.178-.146-.365-.668-.386-1.095-.031-.667.188-1.24.636-1.762Zm2.502-24.572h-1.45c.324-.646.647-1.251.97-1.866h.042c.146.605.292 1.22.438 1.866ZM5.2 78.97H4.168c0-.052-.01-.114 0-.166.125-.5.344-.949.792-1.251.23-.157.48-.198.793-.136-.376.459-.584.96-.553 1.553Zm23.874-23.758c.24-.334.469-.657.688-.97.208.375.406.75.615 1.126-.104.219-.417.615-.647.782a5.04 5.04 0 0 1-.656-.938Zm2.189 2.648c-.313-.355-.594-.678-.897-1.022.22-.271.428-.532.647-.813.062.062.125.114.187.167.136.135.271.27.417.406.073.063.094.136.073.23-.083.364-.198.698-.427 1.032Zm1.22-.449c.135.146.27.271.396.407.02.02.041.062.041.094.021.49.042.99-.114 1.46-.01.04-.031.083-.042.124-.115-.062-.657-.688-.824-.928.178-.375.345-.75.543-1.157Zm-4.358.229c-.125-.364-.282-.667-.25-1.042.02-.188.083-.313.219-.417.114-.094.219-.198.333-.302.209.302.417.594.636.907-.302.27-.604.542-.938.855Zm-1.595 1.627c-.01-.094-.021-.167-.021-.24 0-.427.042-.844.115-1.25a.802.802 0 0 1 .385-.595.295.295 0 0 1 .042.083c.104.303.198.605.313.907.031.073.042.125-.021.198-.25.282-.49.574-.74.855a.337.337 0 0 1-.073.042Zm7.11 1.981c-.084-.24-.167-.459-.24-.667a.255.255 0 0 1 0-.126c.167-.417.292-.844.407-1.292.03.083.062.156.073.24.041.333.093.667.104 1 .01.313-.104.595-.344.845Zm-3.993.365c.24.354.386.709.532 1.094h-1.137c.105-.417.344-.74.605-1.094Zm1.293-13.272h-.824c-.073-.333.031-.656-.188-.98.324.01.584.073.814.25.02.022.041.042.052.063.052.23.104.449.146.667Zm1.782 13.428v.573c0 .032-.03.073-.062.105-.031.03-.073.052-.094.083-.146.24-.354.209-.615.177a12.3 12.3 0 0 0 .375-.48c.125-.156.24-.312.355-.479.02.01.031.021.041.021Zm-6.213-5.442c-.052-.427-.083-.792.198-1.105.198.219.177.47.198.709 0 .02-.01.063-.031.073-.115.094-.23.198-.365.323Zm-.261 6.391c.032-.282-.041-.542.042-.803.209.271.407.521.626.792-.23.032-.428.01-.668.01Z" fill="#DFE7E8"/><path d="M17.366 46.35c-.26.094-.521.188-.792.292a.558.558 0 0 1 .041-.313h.74c.011.01.011.021.011.021Zm12.802 2.94c.303-.062.657.073.918-.25.02.125.041.208.062.302h-.98v-.052Z" fill="#fff"/><path d="M19.034 57.39v-1.605c0-.26.052-.48.313-.605a.228.228 0 0 0 .094-.104c.125-.219.27-.438.375-.667.219-.47.699-.396.918-.094.156.219.312.448.458.678.084.135.157.281.282.396.125.104.146.27.146.438v2.377c0 .146-.01.281 0 .427.01.104.02.209.052.313.083.292-.052.552-.355.625-.073.021-.146.021-.208.021-.49.01-.97.01-1.46.01-.073 0-.156 0-.23-.02-.228-.063-.354-.24-.354-.5V57.4c-.01-.01-.02-.01-.03-.01Zm1.283-2.064c-.303.407-.334.48-.334.918.01.73.02 1.46.02 2.189 0 .063.011.125.022.198.219.01.417.01.615-.01.01-.053.02-.073.02-.094 0-.793 0-1.585-.01-2.377a.332.332 0 0 0-.031-.146l-.188-.438c-.02-.073-.062-.146-.114-.24Zm-7.09 3.847v-1.46a.79.79 0 0 1 .053-.312.438.438 0 0 1 .437-.282c.188.01.355.126.417.313.021.084.032.167.032.25 0 .98-.01 1.96-.01 2.94 0 .094-.011.188-.032.271a.458.458 0 0 1-.897-.052c-.01-.083-.01-.167-.01-.26 0-.47 0-.939.01-1.408-.01 0-.01 0 0 0Zm-2.668.063v-1.418c0-.073 0-.146.01-.219a.469.469 0 0 1 .928-.01c.01.062.01.125.01.187v2.877c0 .094-.01.188-.031.272a.45.45 0 0 1-.47.333.445.445 0 0 1-.427-.386c-.01-.072-.01-.156-.01-.24-.01-.448-.01-.927-.01-1.396Zm32.443-3.086v1.24c0 .084 0 .178-.021.25a.457.457 0 0 1-.428.334.443.443 0 0 1-.438-.281.957.957 0 0 1-.052-.292c0-.855 0-1.7.01-2.554 0-.084.011-.178.042-.25a.451.451 0 0 1 .46-.313c.208.01.385.156.427.365.02.093.02.187.02.281v1.22h-.02Zm-4.222.062v-1.199c0-.083.01-.177.03-.25a.457.457 0 0 1 .855-.052.96.96 0 0 1 .053.292c.01.813.01 1.626 0 2.45a.92.92 0 0 1-.032.25.447.447 0 0 1-.438.313.448.448 0 0 1-.427-.302.94.94 0 0 1-.042-.292c0-.407.01-.813 0-1.21Zm2.564-.042v1.116c0 .105 0 .198-.031.292a.445.445 0 0 1-.438.344.488.488 0 0 1-.459-.354.867.867 0 0 1-.031-.23c-.01-.802-.01-1.605-.021-2.398v-.104a.475.475 0 0 1 .47-.438c.228 0 .427.178.458.428.01.073.01.146.01.219v1.136c.032-.01.032-.01.042-.01ZM28.041 67.753v-1.178c0-.094.01-.198.042-.292a.448.448 0 0 1 .428-.302c.187 0 .364.115.427.302a.78.78 0 0 1 .042.271l.031 2.335c0 .105-.01.22-.042.313a.466.466 0 0 1-.448.334.467.467 0 0 1-.438-.355c-.02-.073-.02-.156-.02-.229v-1.199h-.021Zm2.2-.01v-1.116c0-.104.01-.198.032-.292a.448.448 0 0 1 .458-.323c.209.01.386.146.438.355.02.072.02.145.02.208.011.761.022 1.522.022 2.273 0 .083 0 .177-.021.26a.46.46 0 0 1-.48.376.46.46 0 0 1-.438-.428c-.02-.24-.01-.469-.02-.709v-.604h-.01ZM5.075 73.956c.01.334.031.667.042 1.011 0 .094 0 .188-.01.282a.448.448 0 0 1-.45.365.457.457 0 0 1-.447-.334.672.672 0 0 1-.032-.209c-.03-.719-.062-1.428-.093-2.147 0-.084-.01-.157 0-.24a.47.47 0 0 1 .427-.438c.23-.02.427.125.49.365.02.063.02.125.031.188 0 .386.021.771.042 1.157Z" fill="#256CA1"/><path d="M20.317 55.326c.052.094.093.167.125.25l.187.438a.332.332 0 0 1 .031.146c0 .793.01 1.585.01 2.377 0 .021-.01.042-.02.094-.198.02-.396.01-.615.01-.01-.072-.01-.135-.02-.198-.011-.73-.022-1.46-.022-2.189-.01-.448.021-.532.324-.928Z" fill="#DFE7E8"/></svg>