<svg width="80" height="80" fill="none" xmlns="http://www.w3.org/2000/svg"><g clip-path="url(#a)"><path d="m26.733 32.098 2.531 1.426L21.53 46.46l-2.87 7.409-2.165 9.645-8.362 1.806-.691 2.203-20.441.574v-9.19H2.484l24.25-26.81Zm27.613 0-2.44 1.419 7.471 12.87 2.768 7.371 2.088 9.596 8.05 1.797.667 2.947 19.71-.193V58.77H77.73L54.346 32.098Z" fill="#DFE7E8"/><path d="M-10.65 68.288H90.76m-72.184 2.914h13.44m1.318 3.612h8.572m-9.89 4.326h8.57m9.384-1.713h13.44m7.48 2.47h13.44m-89.224-6.048h13.44m46.787-2.143h8.57m-50.577 5.721h8.584M2.486 59.703l23.57-27.25 3.652 1.26-22.404 25.99m9.332-28.14 6.783 2.873m-24.8 16.279 7.734 3.495" stroke="#256DA2" stroke-miterlimit="10" stroke-linecap="round" stroke-linejoin="round"/><path d="M24.776 39.358 17.764 54.79l-1.128 8.577-8.66 2.721m2.054-8.477 6.606 5.754" stroke="#256DA2" stroke-miterlimit="10" stroke-linecap="round" stroke-linejoin="round"/><path d="M17.536 56.553h-6.72l5.25-7.19h4.17m-30.886 10.34H7.304v8.585m-17.954-5.343H6.353m-4.526 1.991v1.462M77.61 59.14 54.052 31.89l-3.651 1.26 22.404 25.99M63.473 31l-6.783 2.873m24.788 16.279-7.735 3.494" stroke="#256DA2" stroke-miterlimit="10" stroke-linecap="round" stroke-linejoin="round"/><path d="m72.12 65.524-8.647-2.722-1.141-8.576-7.012-15.431m14.759 18.253-6.606 5.754" stroke="#256DA2" stroke-miterlimit="10" stroke-linecap="round" stroke-linejoin="round"/><path d="M62.573 55.99h6.707l-5.237-7.19h-4.17m30.886 10.34H72.805v8.576m17.954-5.334H73.743m4.539 1.991v1.461" stroke="#256DA2" stroke-miterlimit="10" stroke-linecap="round" stroke-linejoin="round"/></g><defs><clipPath id="a"><path fill="#fff" d="M0 0h80v80H0z"/></clipPath></defs></svg>