<svg width="55" height="80" fill="none" xmlns="http://www.w3.org/2000/svg"><path d="M54.142 79.676c-.01.148-.105.243-.253.275-.17.031-34.82.074-43.62.031-3.211-.02-6.433-.031-9.645-.053-.148 0-.634.074-.623-.031.063-1.374-.032-6.698.01-7.828.01-.349.19-.497.518-.476.401.021.602.01 1.003.01.053 0 .212-.01.275-.02 0-.497.053-2.103.053-2.103s.063-.01.317-.042c.053-.01.106-.01.158-.01 1.511 0 3.022 0 4.532-.011H7.1c.01-.085.032-.159.032-.232.126-1.11.243-2.219.39-3.318.106-.75.254-1.5.391-2.25.095-.539.201-1.088.296-1.627 0-.02.01-.042.01-.074-.042-.285.117-.443.328-.591.74-.539 1.32-1.226 1.86-1.965.887-1.226 1.584-2.546 2.207-3.92 1.11-2.461 1.934-5.018 2.62-7.627a72.847 72.847 0 0 0 1.426-6.877c.011-.064.011-.116.011-.19-.074-.022-.148-.032-.211-.053-.243-.074-.328-.286-.222-.518a.66.66 0 0 0 .063-.285l-.095-3.201c-.01-.412.296-.74.698-.729h.316c.021-.053.043-.084.053-.116.222-.867.74-1.51 1.448-2.029.77-.57 1.648-.898 2.577-1.098.254-.053.518-.095.793-.138.042-.21.084-.412.126-.612.085-.37.19-.719.603-.846-1.268-1.31-.56-3.084.845-3.634.042-.158.074-.295.105-.433a.623.623 0 0 0 .021-.137c0-.338 0-.687-.01-1.025 0-.032-.01-.063-.021-.105-.085-.011-.17-.011-.254-.021a.349.349 0 0 1-.327-.254c-.021-.053-.032-.116-.074-.137-.148-.117-.17-.265-.17-.434 0-.137.011-.264 0-.401 0-.433.138-.813.434-1.13.2-.212.296-.444.327-.73.053-.38.148-.76.19-1.15.053-.518.074-1.036.085-1.564.021-.771.032-1.543.053-2.314 0-.137-.032-.222-.148-.306-1.004-.687-1.722-1.596-2.039-2.779-.38-1.384-.148-2.683.581-3.898.042-.063.085-.137.127-.2.053-.075.053-.138.01-.212a3.288 3.288 0 0 0-.729-.845c-.126-.106-.285-.095-.443-.085-.148 0-.296 0-.444-.02A.316.316 0 0 1 20.664 9c0-.148.074-.254.233-.306a.663.663 0 0 1 .2-.032c.106-.01.201.01.307 0 .422-.042.76.116 1.046.412.211.222.422.454.655.697a5.551 5.551 0 0 1 2.408-1.437c0-.074.01-.147.01-.21-.01-.783-.03-1.554-.052-2.336 0-.063-.01-.137-.042-.169-.275-.274-.391-.623-.444-.982-.232-1.437.053-2.768.92-3.951a1.73 1.73 0 0 1 .992-.655c.36-.095.645.032.898.253.254.212.433.486.581.782.55 1.141.74 2.335.55 3.592a2.064 2.064 0 0 1-.37.92.365.365 0 0 0-.074.21c.021.835.042 1.67.074 2.494 0 .02.01.042.021.095.676.222 1.289.57 1.828 1.035.031-.021.052-.021.063-.032.296-.401.708-.591 1.183-.686.296-.064.592-.148.898-.117a.799.799 0 0 1 .306.096c.148.084.201.253.148.4-.052.149-.2.233-.38.191a1.114 1.114 0 0 0-.528.01c-.18.053-.36.085-.539.138-.296.095-.454.243-.613.55.021.031.053.073.074.105 1.215 1.7 1.32 3.476.37 5.324-.36.708-.887 1.279-1.532 1.733-.137.095-.19.2-.169.37.074.686.148 1.373.212 2.07.042.497.095.993.116 1.49.031.771.211 1.51.39 2.25.022.106.064.211.117.306.232.433.274.909.285 1.384 0 .159-.032.296-.158.402-.043.031-.064.084-.085.137-.084.243-.2.328-.465.328h-.211c-.01 0-.032.01-.063.031v1.099c.073.032.158.063.243.106.813.37 1.373.972 1.584 1.848.19.814-.02 1.522-.634 2.103a2.89 2.89 0 0 1-.148.105c.423.423.402.94.444 1.458.19.032.38.063.56.106.982.222 1.88.612 2.641 1.278.57.486 1.004 1.056 1.183 1.806.01.032.021.053.043.096.19 0 .37-.011.56 0a2.5 2.5 0 0 1 .39.063c.18.053.264.18.286.36.01.073 0 .158 0 .232-.011 1.225-.032 2.44-.043 3.665 0 .243-.084.423-.327.54.021.21.032.432.053.644.327 2.873.94 5.673 1.848 8.42.856 2.577 1.934 5.06 3.328 7.394.771 1.29 1.627 2.525 2.63 3.655.37.412.761.803 1.152 1.194.159.159.306.317.243.57-.021.064.01.138.021.201.391 1.448.645 2.916.845 4.395.074.539.074 1.088.117 1.627.01.158.01.306.02.475.096.011.16.011.223.011 1.31 0 2.62.01 3.919-.021.444-.01.644.253.644.665 0 .36-.02.719-.02 1.078v.454c.094 0 1.383 0 1.943-.02.275-.011.496-.011.644.221-.02 2.229-.063 7.85-.074 7.955Zm-.686-4.955c-17.61.053-35.21.074-52.81.127-.075.37-.011 4.162.03 4.331.392.053 52.558.095 52.78.032v-4.49Zm-32.052-5.356v-.317l-.032-8.663c-.01-3.422-.021-6.834-.042-10.257-.01-2.42-.021-4.839-.021-7.269 0-.084.031-.18-.043-.274l-.073.074a12.698 12.698 0 0 0-1.363 1.658c-1.099 1.574-1.923 3.296-2.599 5.082-1.479 3.887-2.282 7.934-2.683 12.064-.117 1.162-.17 2.324-.233 3.497-.074 1.405-.053 2.8 0 4.204 0 .064.021.138.021.201h7.068Zm11.166-27.14c-.053.222-.02 26.929.032 27.098.36.042 6.687.021 6.867-.032v-.275c-.032-1.436-.053-2.884-.17-4.31-.073-.866-.115-1.743-.2-2.61a66.276 66.276 0 0 0-.972-6.623c-.475-2.387-1.078-4.754-1.912-7.046-.528-1.447-1.141-2.842-1.954-4.152-.423-.687-.898-1.331-1.49-1.88-.063-.053-.127-.106-.2-.17ZM.656 74.13l52.82-.127V72.27c-17.588.117-35.157-.084-52.746.043a108.88 108.88 0 0 0-.074 1.817Zm21.403-33.415c-.053.222.021 19.512.084 19.723 3.223.032 6.445.074 9.667.106.053-.317.02-19.65-.021-19.83h-9.73Zm-8.483 28.671c0-.295.01-.55 0-.803a58.314 58.314 0 0 1 .612-10.152 48.963 48.963 0 0 1 1.184-5.662c.58-2.124 1.31-4.184 2.292-6.16.676-1.352 1.447-2.65 2.44-3.802.307-.36.655-.687.983-1.036.074-.074.19-.158.2-.243a3.004 3.004 0 0 0-.01-.813h-3.835c-.01.032-.031.053-.031.074l-.096.55c-.38 2.292-.845 4.574-1.447 6.824-.708 2.651-1.553 5.25-2.704 7.743-.666 1.437-1.405 2.831-2.367 4.1-.496.654-1.035 1.267-1.69 1.763a.706.706 0 0 0-.306.518c-.085.613-.18 1.215-.286 1.817-.306 1.69-.507 3.402-.676 5.113v.148c1.934.021 3.835.021 5.737.021Zm18.973-28.058c.085.052.19.095.264.169.285.253.57.507.835.781.708.761 1.257 1.627 1.743 2.536.803 1.49 1.416 3.063 1.933 4.67.835 2.577 1.426 5.218 1.87 7.89.401 2.43.676 4.87.824 7.332.085 1.437.106 2.874.148 4.321v.264c.317.064 5.736.032 5.948-.042-.032-.518-.043-1.046-.085-1.574-.042-.475-.127-.94-.2-1.405-.18-1.173-.37-2.356-.666-3.507a.638.638 0 0 0-.18-.317 20.8 20.8 0 0 1-2.07-2.346c-1.247-1.637-2.282-3.401-3.17-5.25-1.405-2.905-2.419-5.948-3.116-9.096a36.788 36.788 0 0 1-.718-4.426c-.021-.212-.053-.412-.074-.624h-3.286v.624ZM22.133 64.61v4.775c3.243-.01 6.465-.031 9.677-.042.02-.053.031-.074.031-.095v-4.437c0-.053-.01-.106-.01-.159 0-.01-.01-.01-.01-.02l-.022-.022h-9.666Zm12.825-28.766a10.844 10.844 0 0 0-.137-.37c-.19-.423-.497-.75-.846-1.046-1.014-.824-2.197-1.194-3.486-1.215-2.292-.031-4.595-.01-6.888-.01-.422 0-.834-.032-1.257.053-.37.074-.76.105-1.13.19-.867.2-1.67.538-2.356 1.13a2.888 2.888 0 0 0-.803 1.078c-.032.074-.053.158-.095.274 5.683-.01 11.314-.053 16.998-.084ZM24.732 17.769c-.011.095-.011.138-.021.19-.011.529-.032 1.057-.032 1.585 0 1.141-.074 2.271-.307 3.391-.063.307-.148.592-.38.814-.38.359-.38.803-.349 1.267.328.064 6.191.096 6.413.032 0-.37-.021-.74-.18-1.088a4.057 4.057 0 0 1-.2-.497c-.17-.676-.328-1.341-.391-2.038-.085-.909-.159-1.817-.233-2.716-.031-.348-.074-.697-.116-1.066-.676.285-1.363.475-2.081.496a5.736 5.736 0 0 1-2.123-.37Zm-.021-5.187v.254l.031 3.898c0 .275 0 .275.243.37 1.257.486 2.493.412 3.708-.148.211-.095.2-.095.2-.338l-.126-3.867v-.042c-.01-.148-.032-.18-.18-.19h-.116l-3.169.032c-.2 0-.38.02-.591.031Zm2.841 51.29v-.254l-.031-1.14c0-.096 0-.202.031-.297a.317.317 0 0 1 .317-.232.33.33 0 0 1 .328.222c.031.084.042.18.042.275l.032 1.162c0 .084.01.169.02.264h.444c0-.095.011-.17.011-.243v-1.173c0-.084 0-.169.021-.253a.337.337 0 0 1 .317-.265.323.323 0 0 1 .349.254c.02.084.031.18.031.275v1.172c0 .074.011.148.011.233h.93c0-.095.01-.17.01-.243v-1.215c0-.095.01-.19.042-.275a.335.335 0 0 1 .349-.222c.148.01.275.116.306.275.022.084.022.169.022.254v1.426h.665c.053-.275.042-2.42-.01-2.589-.413-.052-9.508-.126-9.667-.074v2.673h.793c.01-.095.01-.18.01-.264 0-.37 0-.729.01-1.099 0-.084 0-.169.032-.253a.352.352 0 0 1 .36-.243c.147.01.274.116.306.275a.869.869 0 0 1 .021.232c0 .39-.01.782-.01 1.173 0 .063.01.116.02.18.286.041.91.031 1.089-.022 0-.031.01-.074.01-.105a46.43 46.43 0 0 1-.02-1.215c0-.095.01-.201.03-.296.043-.137.149-.211.297-.222.148-.01.264.042.327.18a.81.81 0 0 1 .064.316c.01.38.01.761.01 1.141 0 .074.01.148.01.243.286.011.55.022.835 0v-1.457a1 1 0 0 1 .032-.254c.042-.127.148-.2.285-.211.137 0 .243.063.285.19a.97.97 0 0 1 .053.296c.01.401.01.813.021 1.215 0 .063.01.137.021.21.18-.02.338-.02.54-.02Zm8.631-24.921h-.338l-11.282.158c-2.44.032-4.87.063-7.31.106-.085 0-.16.01-.254.02.01.254-.011.476.031.72.254.01.476.041.708.041h17.77c.073 0 .136.011.21 0a.354.354 0 0 0 .148-.052c.095-.053.18-.117.307-.201v-.412c.01-.116.01-.232.01-.38Zm-6.148-28.894c-1.849-1.87-5.082-1.479-6.55.38.36.487.729.962 1.226 1.321a.463.463 0 0 0 .242.064c1.13-.01 2.272-.021 3.402-.021.18 0 .36.01.539.01a.252.252 0 0 0 .148-.053.728.728 0 0 0 .169-.19c.264-.507.55-1.014.824-1.51ZM25.82 4.944c.76-.422 1.51-.401 2.24-.031a.49.49 0 0 0 .052-.085c.021-.063.042-.137.064-.2.126-.54.116-1.078.042-1.628-.085-.602-.233-1.172-.518-1.71a2.135 2.135 0 0 0-.306-.434c-.2-.222-.402-.243-.634-.053a2.696 2.696 0 0 0-.444.476c-.232.327-.39.697-.496 1.077-.212.718-.296 1.447-.127 2.187.032.137.074.253.127.401Zm.211 22.745c.021 1.31.032 2.567.053 3.835h1.86c0-1.268-.011-2.525-.064-3.793-.613-.01-1.215-.031-1.849-.042Zm4.5-17.05a.711.711 0 0 0-.074.116c-.137.264-.253.538-.401.792a4.412 4.412 0 0 1-.475.687.543.543 0 0 0-.159.39c.063 1.184.116 2.377.17 3.56 0 .053.02.106.03.16 1.733-1.31 2.209-3.962.91-5.706Zm-7.51.412c-1.142 1.669-.772 4.288.982 5.461.01-.042.02-.074.01-.116-.032-1.363.074-2.736.01-4.099a.306.306 0 0 0-.105-.243 34.989 34.989 0 0 1-.613-.665 8.422 8.422 0 0 0-.285-.338Zm-.075 25.586c-.01.01-.01.032-.02.042.052.043.105.074.158.116.37.275.39.698.02.983-.147.116-.337.2-.517.254-.56.19-1.151.274-1.743.274-.613.01-1.226-.01-1.838-.053-.454-.031-.898-.105-1.32-.274a1.641 1.641 0 0 1-.445-.243c-.327-.254-.327-.645-.031-.93.042-.042.084-.074.148-.137h-.423c.021.613.032 1.204.053 1.817 4.934-.074 9.835-.137 14.737-.211-.148-.085-.296-.117-.444-.17a2.39 2.39 0 0 1-.517-.264c-.307-.232-.307-.612-.021-.866.148-.127.327-.2.496-.296.053-.031.106-.053.18-.084h-2.145c.064.074.138.116.211.158.402.254.423.687.043.983a1.25 1.25 0 0 1-.307.169 3.446 3.446 0 0 1-.464.158 7.792 7.792 0 0 1-1.775.233c-.539.01-1.078-.01-1.606-.053a5.209 5.209 0 0 1-.983-.19 1.54 1.54 0 0 1-.549-.285c-.285-.222-.285-.592-.01-.835.105-.095.232-.148.359-.222.042-.021.084-.053.148-.095-.486.021-.94.021-1.395.021Zm1.564-9.846c.095.01.158.01.232.01 1.226.011 2.462.022 3.687.022.211 0 .412-.032.623-.053v-.982H24.51v1.003Zm6.085 5.684c0-.116.01-.212 0-.307-.01-.105-.021-.221-.053-.316-.063-.265-.275-.391-.55-.328-.37.084-.739.106-1.109.032-.063-.01-.116-.01-.2-.021v.221c-.01.254-.095.391-.349.465a1.343 1.343 0 0 1-.412.064c-.56.01-1.12 0-1.68 0a.469.469 0 0 0-.306.084c-.254.18-.528.053-.57-.253-.011-.074-.011-.159-.011-.233 0-.127 0-.253-.01-.39-.053.01-.085.01-.096.01-.538.19-1.077.222-1.627.053a.277.277 0 0 0-.158.01c-.127.043-.254.106-.391.148-.085.032-.158.064-.18.159-.042.19-.084.39-.137.612 2.641-.01 5.23-.01 7.839-.01Zm-6.223-1.553a.958.958 0 0 0-.095-.106c-.549-.496-.602-1.204-.116-1.764.232-.275.528-.454.866-.56.085-.032.18-.053.264-.074.032-.222.032-.222-.147-.285a1.778 1.778 0 0 0-1.912.486c-.38.422-.476 1.035-.244 1.521.254.539.899.824 1.384.782Zm4.268-2.324c.106-.01.19-.01.275-.021.338-.022.666.02.972.2.718.412.813 1.257.211 1.817-.063.053-.116.106-.2.18.549-.085 1.045-.645 1.088-1.247.052-.792-.455-1.436-1.057-1.753a.39.39 0 0 0-.158-.043c-.296 0-.592.011-.877.021h-.232c-.022.296-.022.56-.022.846ZM26.21 6.994a2.649 2.649 0 0 1 1.543-.021v-1.3c0-.053-.042-.116-.095-.148-.465-.222-.93-.243-1.384 0-.042.021-.095.095-.095.148 0 .423.021.856.032 1.32ZM17.887 37.27c.718.454 3.824.465 4.606.021-.75-.433-3.793-.475-4.606-.021Zm10.966 0c-.94-.37-3.761-.264-4.258.084.845.38 3.476.317 4.258-.084Zm2.588.127c.729.359 3.222.274 3.793-.106-.761-.37-3.106-.264-3.793.106Zm-2.779-7.1c.328.085.708 0 .93-.21.264-.244.222-.54-.095-.698-.275-.137-.55-.116-.834-.042v.95Zm-3.338-1.13c-.306.074-.539.222-.697.476-.116.19-.106.39.021.538.18.201.402.264.666.275.01-.444.01-.856.01-1.289Zm2.472-21.044c.032-.338.01-.38-.296-.475-.39-.127-.781-.085-1.162.074-.084.031-.137.095-.126.2.01.064.01.138.02.212.529-.01 1.036-.01 1.564-.01Zm7.776 28.45c0 .01-.011.02-.011.031.116.074.222.127.328.212.274.2.422.538.084.877a1.16 1.16 0 0 1-.38.253c-.233.095-.476.158-.708.232a.685.685 0 0 0-.127.053h1.437v-1.658h-.623Z" fill="#256CA1"/><path d="M53.456 74.721v4.5c-.222.064-52.388.022-52.78-.031-.041-.17-.105-3.972-.03-4.331 17.6-.053 35.21-.085 52.81-.138Zm-52.8-.591c.02-.613-.053-1.31-.032-1.923 17.59-.116 35.264.19 52.853.063v1.733c-17.61.053-35.2.095-52.821.127Zm21.403-33.415h9.719c.053.18.074 19.512.021 19.829-3.222-.032-6.444-.074-9.666-.106-.053-.21-.137-19.501-.074-19.723Zm7.543 10.733h-.053c0-2.504-.275-7.775-.338-7.88-.317-.508-.972-1.385-1.426-1.765-1.183-1.025-1.29-.528-1.965-.169a6.938 6.938 0 0 0-1.627 1.754 2.48 2.48 0 0 0-.412 1.426c.063 4.69.116 9.37.169 14.06 0 .117-.01.233-.01.35.01.285.221.485.464.412.18-.064.37-.064.55-.064h4.225c.254 0 .38-.106.412-.349.01-.095.01-.19.01-.274v-7.5ZM13.576 69.386H7.86v-.148c.17-1.711.37-3.422.677-5.113.105-.602.2-1.215.285-1.817a.706.706 0 0 1 .306-.517c.655-.497 1.194-1.11 1.69-1.765.951-1.267 1.701-2.662 2.367-4.099 1.14-2.493 1.996-5.102 2.704-7.743.602-2.25 1.067-4.532 1.448-6.825.031-.18.063-.37.095-.549 0-.021.02-.042.031-.074h3.835a3.5 3.5 0 0 1 .01.814c-.01.084-.126.169-.2.242-.327.35-.676.677-.982 1.036-.994 1.151-1.765 2.45-2.44 3.803-.983 1.975-1.712 4.035-2.293 6.159a48.96 48.96 0 0 0-1.183 5.662 57.233 57.233 0 0 0-.613 10.153c-.01.232-.021.486-.021.781ZM32.55 41.328v-.613h3.285c.02.211.053.412.074.623.158 1.49.39 2.958.718 4.427.697 3.148 1.711 6.19 3.116 9.095.888 1.85 1.923 3.613 3.17 5.25a20.8 20.8 0 0 0 2.07 2.346.64.64 0 0 1 .18.317c.296 1.151.475 2.335.665 3.507.074.465.159.94.201 1.405.053.529.063 1.057.085 1.575-.201.073-5.62.105-5.948.042v-.264c-.053-1.437-.063-2.884-.148-4.321a71.073 71.073 0 0 0-.824-7.332c-.444-2.672-1.035-5.313-1.87-7.891-.517-1.606-1.14-3.18-1.933-4.67-.486-.908-1.035-1.774-1.743-2.535-.264-.275-.55-.528-.835-.782-.074-.084-.169-.127-.264-.18ZM7.924 70.126c1.817-.01 3.644-.01 5.462-.021h.232m37.26-.064v1.448c-16.11.105-32.2 0-48.29.116.022-.497.033-.962.043-1.448.095 0 .18-.01.254-.01h4.067m15.382-.063c3.095-.011 6.18-.011 9.275-.022l-9.276.022Zm-7.955.031c.084 0 .169-.01.243-.01l-.243.01Zm7.754-5.504h9.655l.022.021c0 .01.01.01.01.021a.85.85 0 0 1 .01.159v4.437c0 .021-.01.042-.03.095-3.212.01-6.434.032-9.678.042.01-1.605.01-3.18.01-4.775Zm12.825-28.766-16.977.095c.042-.116.063-.2.095-.275.17-.433.454-.782.803-1.077.687-.592 1.49-.93 2.356-1.13.37-.085.75-.117 1.13-.19.423-.085.835-.054 1.257-.054 2.293 0 4.596-.02 6.888.01 1.278.022 2.472.392 3.486 1.216.35.285.655.623.846 1.046.02.105.063.21.116.359ZM24.732 17.77a5.71 5.71 0 0 0 2.123.358c.718-.02 1.405-.21 2.081-.496.042.38.085.729.116 1.067.085.909.159 1.817.233 2.715.063.687.222 1.363.39 2.039.043.169.117.338.201.496.159.349.17.719.18 1.088-.222.064-6.075.032-6.413-.031-.031-.465-.031-.909.35-1.268.232-.222.316-.507.38-.813.232-1.12.306-2.25.306-3.391 0-.529.02-1.057.032-1.585a.575.575 0 0 0 .02-.18Zm-.022-5.188c.212-.01.402-.031.581-.031l3.17-.032h.116c.148.01.169.032.18.19v.042l.126 3.867c.01.232.01.243-.2.338-1.215.56-2.451.634-3.708.148-.254-.095-.243-.095-.243-.37l-.032-3.898c.01-.074.01-.148.01-.254Zm2.842 51.29h-.538a1.58 1.58 0 0 1-.022-.212c-.01-.401-.01-.813-.02-1.214a.97.97 0 0 0-.054-.296.266.266 0 0 0-.285-.19.295.295 0 0 0-.285.21c-.032.075-.032.17-.032.254v1.458c-.285.021-.55.021-.834 0-.01-.095-.01-.169-.01-.243 0-.38 0-.76-.012-1.14a.81.81 0 0 0-.063-.318.319.319 0 0 0-.327-.18c-.148.011-.254.085-.296.223-.032.095-.032.2-.032.296 0 .401.01.813.021 1.214 0 .043-.01.074-.01.106-.18.053-.803.063-1.088.021a.928.928 0 0 1-.021-.18c0-.39.01-.781.01-1.172 0-.074 0-.159-.021-.233a.336.336 0 0 0-.306-.274.352.352 0 0 0-.36.243c-.02.084-.02.169-.031.253-.01.37-.01.73-.01 1.1 0 .084-.011.168-.011.263h-.793v-2.673c.17-.052 9.255.021 9.666.074.053.159.064 2.314.011 2.589h-.665v-1.427c0-.084 0-.169-.022-.253a.336.336 0 0 0-.306-.275.343.343 0 0 0-.349.222.787.787 0 0 0-.042.275v1.215c0 .074-.01.148-.01.243h-.93c-.01-.085-.01-.159-.01-.233v-1.172c0-.096-.011-.19-.032-.275a.33.33 0 0 0-.349-.254.337.337 0 0 0-.317.264c-.021.085-.021.17-.021.254v1.173c0 .074-.01.148-.01.243h-.444c-.01-.096-.021-.18-.021-.264l-.032-1.163c0-.095-.021-.19-.042-.274-.053-.148-.17-.222-.328-.222a.317.317 0 0 0-.317.232c-.031.095-.031.201-.031.296l.031 1.141v.275Zm8.631-24.922v.794c-.127.084-.211.148-.306.2a.61.61 0 0 1-.148.053c-.074.011-.137 0-.211 0h-17.77a7.85 7.85 0 0 1-.707-.042c-.042-.243-.021-.465-.032-.718.095-.01.17-.021.254-.021 2.44-.032 4.87-.064 7.31-.106l11.283-.158h.327Zm-6.148-28.893c-.275.497-.55 1.015-.835 1.522a.731.731 0 0 1-.169.19.229.229 0 0 1-.148.053c-.18 0-.359-.01-.538-.01-1.13.01-2.272.02-3.402.02-.085 0-.18-.01-.243-.063-.497-.37-.866-.835-1.226-1.32 1.469-1.87 4.702-2.272 6.56-.392ZM25.82 4.944c-.053-.148-.095-.264-.127-.39-.17-.74-.085-1.469.127-2.187.105-.38.264-.75.496-1.078.127-.169.275-.338.444-.475.232-.19.433-.17.634.053.116.126.222.285.306.433.285.528.433 1.109.518 1.711.074.539.084 1.088-.043 1.627-.02.063-.042.137-.063.2a.396.396 0 0 1-.053.085c-.729-.38-1.479-.401-2.24.021Zm.211 22.746c.634.01 1.236.03 1.849.041.053 1.268.053 2.525.063 3.793h-1.86c-.02-1.268-.03-2.535-.052-3.835Zm4.5-17.051c1.3 1.743.824 4.394-.919 5.694l-.031-.159c-.053-1.183-.106-2.377-.17-3.56-.01-.159.053-.264.159-.39.18-.212.338-.445.475-.688.148-.253.275-.528.402-.792a.461.461 0 0 0 .084-.105Zm-7.511.411c.095.117.19.233.285.338.201.222.412.444.613.666.074.074.095.137.106.243.063 1.363-.043 2.736-.01 4.099 0 .032-.011.074-.011.116-1.754-1.183-2.124-3.792-.983-5.462Zm-.074 25.587h1.395c-.074.042-.117.063-.148.095-.116.074-.254.127-.36.222-.274.243-.274.602.011.835.159.126.36.232.55.285.317.095.655.169.982.19.539.042 1.078.063 1.606.053a7.181 7.181 0 0 0 1.775-.233 3.47 3.47 0 0 0 .464-.158c.106-.042.212-.106.307-.17.38-.295.359-.728-.043-.982a.74.74 0 0 1-.21-.158h2.144c-.074.032-.127.053-.18.084-.169.095-.348.17-.496.296-.296.243-.286.634.02.866.149.117.339.19.518.265.138.063.296.095.444.169-4.902.074-9.803.137-14.737.211-.021-.613-.032-1.215-.053-1.817h.423a2.027 2.027 0 0 0-.148.137c-.306.275-.296.676.031.93.138.105.296.18.444.243.423.169.867.243 1.32.275.614.042 1.226.052 1.839.052.592-.01 1.183-.084 1.743-.274.18-.064.37-.148.518-.254.37-.274.359-.697-.021-.982-.053-.043-.106-.074-.159-.117.01-.031.021-.052.021-.063Zm1.564-9.846v-1.003h4.542v.982c-.21.021-.422.053-.623.053-1.225 0-2.461-.01-3.687-.021-.074.01-.137 0-.232-.01Z" fill="#DFE7E8"/><path d="M30.595 32.475h-7.807c.053-.222.095-.412.137-.613.021-.095.095-.137.18-.158.127-.043.253-.106.39-.148a.265.265 0 0 1 .16-.01 2.6 2.6 0 0 0 1.626-.054c.021-.01.042-.01.095-.01 0 .137 0 .264.01.39 0 .075 0 .16.011.233.042.306.317.433.57.254a.468.468 0 0 1 .307-.085c.56 0 1.12.01 1.68 0 .137 0 .274-.021.412-.063.243-.074.338-.201.348-.465v-.222c.074.01.138.01.201.021.37.074.74.053 1.11-.032.263-.063.475.064.549.328.02.106.042.211.052.317-.031.105-.031.2-.031.317Zm-6.223-1.553c-.485.053-1.13-.243-1.384-.771-.232-.486-.137-1.1.244-1.522a1.782 1.782 0 0 1 1.912-.486c.18.064.18.064.148.286-.085.02-.17.053-.265.074a1.816 1.816 0 0 0-.866.56c-.486.56-.444 1.267.116 1.764a.406.406 0 0 1 .095.095Zm4.268-2.324v-.845h.233c.296-.011.591-.022.877-.022.052 0 .105.011.158.043.602.317 1.099.961 1.056 1.753-.031.602-.538 1.162-1.088 1.247.085-.074.148-.127.201-.18.602-.56.507-1.405-.211-1.817a1.72 1.72 0 0 0-.972-.2 1.6 1.6 0 0 1-.254.02ZM26.21 6.994c-.01-.465-.031-.898-.031-1.331 0-.053.053-.117.095-.148a1.49 1.49 0 0 1 1.384 0c.042.02.095.095.095.148.01.422 0 .855 0 1.3a2.743 2.743 0 0 0-1.542.03Zm-3.718 30.298c-.75-.433-3.793-.475-4.606-.021.718.454 3.835.465 4.606.021Zm6.36-.022c-.782.402-3.413.455-4.258.085.497-.348 3.317-.454 4.258-.084Zm2.588.128c.687-.37 3.021-.476 3.793-.106-.571.38-3.054.475-3.793.106Z" fill="#DFE7E8"/><path d="M28.662 30.299v-.951c.285-.074.57-.095.834.042.317.159.349.454.095.697-.222.201-.591.296-.93.212Zm-3.339-1.131v1.289c-.264-.01-.496-.074-.665-.275-.127-.148-.138-.348-.021-.538.147-.254.38-.402.686-.476Zm2.472-21.044h-1.553c-.01-.074-.01-.137-.02-.211-.011-.106.041-.159.126-.2.38-.16.76-.202 1.162-.075.296.116.317.148.285.486Zm7.775 28.45h.624v1.658h-1.437c.042-.02.085-.042.127-.053.232-.074.475-.137.708-.232.137-.053.274-.148.38-.254.328-.338.19-.665-.084-.876-.106-.074-.222-.138-.328-.212 0-.01.01-.02.01-.031Z" fill="#DFE7E8"/><path d="M29.602 51.448v7.5c0 .096 0 .19-.01.276-.032.242-.16.348-.413.348h-4.226c-.19 0-.37 0-.549.063-.243.074-.454-.126-.465-.411 0-.117.01-.233.01-.35-.052-4.69-.094-9.37-.168-14.06a2.48 2.48 0 0 1 .412-1.426 7.133 7.133 0 0 1 1.627-1.754c.137-.106.274-.222.422-.328a.85.85 0 0 1 .55-.147c.042 0 .718.412.982.644.454.38.845.824 1.162 1.331.064.106.497.74.497 1.056.02.106.148 7.258.169 7.258Zm-5.103-2.398c.021 1.521.085 3.212.106 4.733l.063 4.785c0 .096.01.19.01.275h4.205v-.327l-.031-9.53a2.34 2.34 0 0 0-.148-.887 5.794 5.794 0 0 0-.867-1.51 3.91 3.91 0 0 0-1.056-.94c-.095-.064-.18-.064-.275.01-.634.486-1.183 1.056-1.553 1.785m2.937-2.039c.032.043.877 1.236.93 1.3.01-.074.021-.116.021-.148 0-.634 0-1.257-.01-1.891a.926.926 0 0 0-.074-.338 4.663 4.663 0 0 0-.824-1.373 3.681 3.681 0 0 0-1.046-.888c-.17-.095-.317-.105-.486.021a7.03 7.03 0 0 0-1.543 1.574c-.264.37-.359.76-.348 1.205.01.507.01 1.014.02 1.52 0 .075.011.149.011.254.043-.031.064-.042.074-.052.455-.676 1.036-1.215 1.69-1.69.085-.064.18-.117.286-.16.19-.073.687-.094 1.215.624" fill="#256CA1"/><path d="m24.605 53.783.063 4.785c0 .096.01.19.01.275h4.205v-.327l-.031-9.53a2.34 2.34 0 0 0-.148-.887 5.794 5.794 0 0 0-.867-1.51 3.91 3.91 0 0 0-1.056-.94c-.095-.064-.18-.064-.275.01-.644.486-2.398.36-1.901 8.124Z" fill="#DFE7E8"/><path d="M28.82 46.705c-.127-.159-1.384-2.356-2.24-1.944a.942.942 0 0 0-.285.158c-.655.465-1.236 1.015-1.69 1.69a.316.316 0 0 1-.074.054c0-.106-.01-.18-.01-.254-.011-.507-.011-1.014-.022-1.521-.01-.444.095-.845.349-1.205a7.04 7.04 0 0 1 1.542-1.574c.17-.126.317-.116.486-.02.412.221.75.528 1.046.887.349.412.634.866.824 1.373a.924.924 0 0 1 .074.338c.01.634.01 1.257.01 1.891.011.021 0 .053-.01.127Zm3.106 14.494h-9.804v2.683h9.804V61.2Z" fill="#DFE7E8"/><path d="M31.8 60.438h-9.667v.761h9.666v-.76Z" fill="#256CA1"/><path d="M29.602 59.667H23.97v.391h5.63v-.39Z" fill="#DFE7E8"/><path d="M23.242 62.065h-.634v2.007h.634v-2.007Zm1.448 0h-.635v2.007h.634v-2.007Zm1.33 0h-.633v2.007h.633v-2.007Zm1.332 0h-.634v2.007h.634v-2.007Zm1.32 0h-.634v2.007h.634v-2.007Zm1.352 0h-.634v2.007h.634v-2.007Zm1.216 0h-.635v2.007h.634v-2.007Z" fill="#256CA1"/></svg>