<svg width="64" height="57" fill="none" xmlns="http://www.w3.org/2000/svg"><path d="M60.667 9.14c-.02 1.628-.19 3.237-.44 4.845-.18 1.119-.379 2.227-.758 3.306-.31.88-.76 1.678-1.21 2.488-.958 1.718-2.307 3.066-3.955 4.115-.56.36-1.129.69-1.708 1.01-.29.159-.6.259-.91.379-.089.03-.119.08-.129.17-.06 1.808-.02 3.616.13 5.414.1 1.208.2 2.407.35 3.606.16 1.298.37 2.587.589 3.876.4 2.357.949 4.684 1.618 6.972.56 1.928 1.219 3.836 2.068 5.664.47 1.019.979 2.008 1.668 2.907.28.36.61.689.92 1.019.049.05.139.08.209.09 1.298.01 2.767.01 4.066.02.409 0 .829.17.819.479.05.55-.19.989-.77.979-.529 0-1.048-.01-1.578-.01l-11.368-.06c-.969-.01-49.636-.14-49.736-.17a.702.702 0 0 1-.54-.759c.02-.33.29-.63.64-.65.55-.02 1.089-.01 1.638-.01 1.708.01 3.417.01 5.135.03.19 0 .3-.06.4-.199.758-.949 1.368-2.118 1.917-3.197.86-1.718 1.529-3.506 2.098-5.344a53.418 53.418 0 0 0 1.379-5.434 80.923 80.923 0 0 0 1.069-6.803c.13-1.208.239-2.417.309-3.626.09-1.558.12-3.116.19-4.675.01-.13-.03-.2-.16-.26-.8-.379-1.508-.888-2.188-1.438-.989-.799-1.928-1.648-2.717-2.657-1.129-1.428-1.918-3.037-2.467-4.765-.39-1.219-.63-2.467-.85-3.716a70.854 70.854 0 0 1-.469-3.206c-.11-.89-.16-1.788-.23-2.687-.06-.86-.26-3.846-.27-3.926-.03-.5-.06-1-.099-1.499 0-.07.06-1.268.68-1.278 1.458 0 2.916 0 4.375-.01L33.107.07c8.98-.02 17.95-.05 26.93-.07.13 0 .52 0 .64.03" fill="#DFE7E8"/><path d="M60.667 9.14c-.02 1.628-.19 3.237-.44 4.845-.18 1.119-.379 2.227-.758 3.306-.31.88-.76 1.678-1.21 2.488-.958 1.718-2.307 3.066-3.955 4.115-.56.36-1.129.69-1.708 1.01-.29.159-.6.259-.91.379-.089.03-.119.08-.129.17-.06 1.808-.02 3.616.13 5.414.1 1.208.2 2.407.35 3.606.16 1.298.37 2.587.589 3.876.4 2.357.949 4.684 1.618 6.972.56 1.928 1.219 3.836 2.068 5.664.47 1.019.979 2.008 1.668 2.907.28.36.61.689.92 1.019.049.05.139.08.209.09 1.298.01 2.767.01 4.066.02.409 0 .829.17.819.479.05.55-.19.989-.77.979-.529 0-1.048-.01-1.578-.01l-11.368-.06c-.969-.01-49.636-.14-49.736-.17a.702.702 0 0 1-.54-.759c.02-.33.29-.63.64-.65.55-.02 1.089-.01 1.638-.01 1.708.01 3.417.01 5.135.03.19 0 .3-.06.4-.199.758-.949 1.368-2.118 1.917-3.197.86-1.718 1.529-3.506 2.098-5.344a53.418 53.418 0 0 0 1.379-5.434 80.923 80.923 0 0 0 1.069-6.803c.13-1.208.239-2.417.309-3.626.09-1.558.12-3.116.19-4.675.01-.13-.03-.2-.16-.26-.8-.379-1.508-.888-2.188-1.438-.989-.799-1.928-1.648-2.717-2.657-1.129-1.428-1.918-3.037-2.467-4.765-.39-1.219-.63-2.467-.85-3.716a70.854 70.854 0 0 1-.469-3.206c-.11-.89-.16-1.788-.23-2.687-.06-.86-.26-3.846-.27-3.926-.03-.5-.06-1-.099-1.499 0-.07.06-1.268.68-1.278 1.458 0 2.916 0 4.375-.01L33.107.07c8.98-.02 17.95-.05 26.93-.07.13 0 .52 0 .64.03M34.535 54.99v-.31c-.01-.369-.03-.738-.04-1.108-.04-2.128-.09-4.255-.12-6.393-.03-2.188.14-4.355.42-6.523.13-1.019.38-1.998.7-2.977.429-1.328 1.028-2.587 1.708-3.816.15-.27.41-.42.679-.35.31.08 1.998 2.638 2.357 3.677.57 1.678.87 3.396.89 5.164.02 2.847.04 5.694.03 8.551 0 1.249-.05 2.627-.08 3.876 0 .14.04.18.18.18l4.474-.03c.05 0 .1 0 .16-.01-.01-.04-.01-.06-.02-.09-.12-.51-.24-1.139-.36-1.649-.35-1.518-.669-3.036-.889-4.585a138.06 138.06 0 0 1-.499-4.075c-.16-1.548-.12-3.107 0-4.655.08-.959.23-1.918.38-2.867a8.02 8.02 0 0 1 .959-2.727c.1-.17.24-.32.4-.45a.6.6 0 0 1 .748-.02c.16.11 1.649 1.779 2.338 3.756.45 1.339.69 2.727.939 4.116.24 1.339.45 2.677.67 4.026.149.939.279 1.888.449 2.827.21 1.158.45 2.317.779 3.456.16.54 1.039 2.597 1.268 2.967.02.04.1.07.15.07.29 0 3.726-.05 3.726-.05-.14-.2-.29-.4-.43-.61-.958-1.428-1.667-2.976-2.297-4.575-.69-1.738-1.248-3.526-1.728-5.334a65.938 65.938 0 0 1-1.139-5.005c-.18-.979-.36-1.948-.5-2.927a84.174 84.174 0 0 1-.439-3.556 75.6 75.6 0 0 1-.27-3.696c-.05-1.128-.03-2.267-.05-3.396 0-.05 0-.11-.02-.15-.24-.37-.24-.37-.689-.36H48.6c.02.51.04.99.05 1.469 0 .12 0 .23-.02.35a.677.677 0 0 1-.719.579.704.704 0 0 1-.66-.68c-.01-.209.01-.429.01-.639v-1.048h-1.318v.18c0 .469.01.938 0 1.408 0 .29-.13.52-.39.66a.67.67 0 0 1-.719-.03c-.25-.16-.34-.41-.34-.69 0-.45 0-.89-.01-1.339v-.17h-1.128v.12c0 .48.01.95.01 1.429 0 .42-.29.74-.68.759-.399.02-.719-.25-.769-.68-.02-.13-.01-.259-.01-.389v-1.198H40.63v.16c.02.489.06.968.07 1.458.01.41-.29.729-.68.749-.4.02-.719-.26-.759-.67-.04-.429-.05-.858-.08-1.288-.01-.13.02-.31-.05-.37-.08-.07-.25-.02-.38-.02h-.888v.3l.03 1.169c.01.37-.21.68-.55.76-.47.109-.869-.21-.899-.71-.02-.44-.02-.88-.03-1.319 0-.05-.01-.11-.01-.15h-1.388c.01.13.02.25.02.37.02.4.06.81.07 1.209 0 .39-.29.699-.66.729a.702.702 0 0 1-.769-.62c-.04-.25-.04-.499-.06-.759l-.06-.899h-.889c0 .49.01.96 0 1.429 0 .15-.03.32-.09.46-.13.289-.459.439-.769.379a.723.723 0 0 1-.579-.66c-.02-.399-.02-.799-.03-1.198v-.38h-1.29v.9c0 .24.02.489-.01.729a.69.69 0 0 1-.679.619.704.704 0 0 1-.73-.58c-.029-.16-.029-.33-.029-.499v-1.139h-1.209v.17c0 .5.01.99.01 1.488-.01.48-.38.81-.829.74-.36-.05-.6-.34-.61-.77-.01-.479-.01-.958-.02-1.438 0-.05 0-.11-.01-.15h-1.527v.44c.01.33.04.67.04.999 0 .41-.28.719-.66.739a.697.697 0 0 1-.769-.63c-.04-.329-.04-.659-.06-.978l-.03-.54H21.58v1.119c0 .21 0 .42-.02.62-.04.339-.33.579-.669.599-.42.02-.749-.3-.759-.75-.01-.469 0-.939 0-1.408 0-.05 0-.11-.01-.15h-1.388v.48c0 .39.02.769 0 1.148a.7.7 0 0 1-.72.67c-.38 0-.689-.3-.709-.69-.01-.14-.01-.27-.01-.41v-1.178h-1.079c0 .06-.01.1-.01.14-.06 1.459-.1 2.917-.18 4.365a59.07 59.07 0 0 1-.519 5.285 137.19 137.19 0 0 1-.72 4.515 53.029 53.029 0 0 1-1.108 4.805c-.51 1.848-1.109 3.676-1.848 5.444-.64 1.518-1.379 2.996-2.328 4.355-.01.02-.01.17-.02.19.02 0 .03.01.04.01 1.07.01 2.138.01 3.207.02.05 0 .12-.05.15-.09.12-.18.909-1.618 1.069-2.158.46-1.528.809-3.087 1.059-4.665.23-1.448.469-2.897.709-4.335.17-1.019.34-2.038.53-3.057.259-1.388 1.388-5.714 2.826-6.603.47-.38.94-.36 1.279.15.46.67.729 1.429.919 2.198.35 1.408.53 2.847.58 4.295.03 1.139.069 2.288-.02 3.426-.12 1.569-.34 3.137-.55 4.695-.22 1.639-.59 3.247-.95 4.865-.09.4-.189.92-.289 1.339h.18c1.468.01 2.947.02 4.415.02.22 0 .22 0 .22-.22-.03-1.079-.08-2.278-.08-3.356 0-2.847.01-5.684.02-8.531 0-1.09.08-2.178.25-3.247.14-.839.41-1.648.669-2.447.21-.64 1.768-3.327 2.008-3.486.38-.25.799-.17 1.009.24l.33.629c.918 1.708 1.588 3.506 1.937 5.414.15.809.24 1.618.3 2.437.1 1.269.2 2.547.23 3.816.03 1.169-.02 2.348-.05 3.526-.03 1.628-.07 3.387-.1 5.015v.26h3.156ZM59.16 4.256c-17.411.02-34.793.03-52.184.05.15 2.647.28 5.275.78 7.892h8.949c12.717.01 25.433.01 38.16.02h3.975c.08 0 .16.03.17-.11.06-.87.18-1.738.19-2.607.02-1.628-.01-3.257-.02-4.885 0-.11-.02-.22-.02-.36Zm-.35 9.41H7.984c.2.75.37 1.499.58 2.228.419 1.408 1.008 2.727 1.867 3.926.16.23.33.3.6.3 4.695-.03 9.38-.05 14.075-.07l26.221-.12c1.669-.01 3.327-.01 4.995-.02.1 0 .17-.01.23-.11.529-.87 1.059-1.738 1.438-2.677.34-.84.53-1.729.69-2.618.04-.27.08-.54.13-.839Zm-46.82 7.772c-.01.01-.14.03-.15.04.24.21.6.55.84.749.66.57 1.339 1.129 2.108 1.558.27.15.56.29.839.42.1.05.2.09.31.09.469 0 35.391-.03 35.471-.07.46-.22 2.737-1.409 3.656-2.707.04-.04.1-.06.15-.09-.01-.02-.03.09-.04.07-14.404.06-28.799-.13-43.183-.06ZM6.856 2.847c17.431-.02 34.853-.03 52.294-.05V1.468c-17.481.04-34.833.09-52.334.13.06.44-.01.84.04 1.249ZM29.92 54.97c.02-.59.05-1.299.07-1.878.02-1.11.04-2.228.05-3.337.02-1.318.07-2.627.03-3.946-.04-1.358-.16-2.707-.27-4.055-.08-.999-.24-1.988-.549-2.947-.34-1.039-.74-2.048-1.119-3.077-.03-.08-.07-.16-.12-.26-.05.08-.08.13-.11.19-.34.59-.549 1.22-.779 1.858a14.212 14.212 0 0 0-.859 4.785c-.03 4.136-.08 8.401.04 12.547 0 .04.01.08.02.13 1.199-.01 2.398-.01 3.596-.01Zm9.69 0c.01-.05.01-.09.02-.12.02-1.08.07-2.288.07-3.377 0-2.807-.01-5.604-.02-8.41-.01-1.569-.1-3.137-.59-4.645-.26-.81-.499-1.619-.869-2.388-.09-.18-.19-.36-.31-.57-.03.07-.05.11-.07.15-.139.35-.269.7-.409 1.04-.45 1.128-.859 2.277-1.079 3.486-.26 1.438-.36 2.896-.45 4.355a35.584 35.584 0 0 0-.039 3.576c.06 1.898.07 3.806.1 5.704.01.35.03.829.04 1.179 1.199.02 2.397.02 3.606.02ZM20.38 40.017c-.01 0-.03-.01-.04-.01-.02.05-.04.1-.05.15-.229.909-.459 1.818-.678 2.727-.25 1.069-.5 2.137-.73 3.206-.2.92-.4 1.848-.589 2.767-.3 1.429-.6 2.867-.9 4.306-.109.539-.219 1.198-.329 1.738.02.01.04.02.05.02.45 0 .9.01 1.349.01.04 0 .11-.07.12-.12.07-.24.12-.61.18-.85.409-1.727.809-3.456 1.068-5.224.22-1.518.4-3.046.56-4.575.13-1.378.04-2.767-.01-4.145Zm25.213-.01c-.01 0-.02.01-.03.01l-.03.38c-.05 1.498-.11 3.006.08 4.505.18 1.418.34 2.836.56 4.255.18 1.159.44 2.297.69 3.446.149.7.329 1.508.489 2.208.02.1.07.14.18.14.15-.01.299-.01.459-.01h.899c-.01-.05-.01-.08-.01-.11-.25-1.209-.5-2.548-.75-3.766-.369-1.758-.729-3.516-1.118-5.274-.37-1.679-.78-3.347-1.179-5.025-.07-.27-.16-.51-.24-.76Zm-26.051-4.595h-.05c-.03.04-.06.08-.1.12-.25.31-.37.689-.52 1.059-.689 1.608-1.038 3.306-1.358 5.024-.16.89-.29 1.788-.44 2.677-.2 1.189-.41 2.378-.59 3.576a41.563 41.563 0 0 1-.858 4.166c-.25.939-.53 1.988-1.059 2.807-.01.02-.01.04-.02.08.29 0 .56-.01.83 0 .119 0 .169-.04.189-.15.07-.34.15-.81.22-1.149.31-1.458.619-2.917.919-4.365.29-1.379.56-2.747.859-4.126.21-.959.46-1.908.659-2.867.36-1.708.85-3.366 1.618-4.944.08-.16.11-.3.06-.47-.11-.48-.23-.959-.36-1.438ZM51.387 54.91c-.04-.07-.06-.24-.09-.28-.17-.34-1.069-2.887-1.308-3.826-.31-1.239-.5-2.497-.69-3.756-.14-.939-.33-1.858-.469-2.797a78.524 78.524 0 0 0-.76-4.285c-.279-1.369-.718-2.667-1.258-3.946-.09-.22-.25-.42-.37-.62-.02.01-.05.01-.07.02-.14.55-.28 1.09-.409 1.639-.01.03.01.08.03.11.53 1.049.949 2.148 1.249 3.276.28 1.08.53 2.168.769 3.257.39 1.738.749 3.476 1.129 5.214l.959 4.515c.09.4.17.94.26 1.339.01.07.03.14.13.14h.898Z" fill="#256CA1"/><path d="M24.187 34.173c.01-.33.15-.71.31-1.069.429-.969.958-1.868 1.707-2.627.45-.46.99-.78 1.579-1.019.24-.1.47-.08.709.02.51.23.919.59 1.279 1 .769.858 1.378 1.807 1.748 2.906.06.18.1.39.08.58-.03.339-.29.559-.62.599a.707.707 0 0 1-.739-.44c-.09-.23-.15-.47-.25-.7-.39-.868-.919-1.657-1.628-2.297-.3-.27-.22-.25-.56-.06-.339.19-.639.45-.858.76-.43.619-.84 1.248-1.23 1.898-.129.21-.189.479-.249.719-.09.35-.37.59-.709.55-.35-.03-.58-.32-.57-.82Zm17.62.08c-.01.52-.399.85-.839.72-.24-.07-.4-.23-.44-.48-.059-.42-.249-.79-.459-1.139-.36-.6-.729-1.199-1.198-1.728-.24-.27-.53-.49-.85-.66-.1-.05-.17-.05-.26.02-.469.38-.838.85-1.168 1.35a6.106 6.106 0 0 0-.819 1.687c-.1.35-.38.55-.7.54-.309 0-.599-.19-.668-.5-.04-.15-.04-.34 0-.49.22-.838.649-1.578 1.138-2.277.37-.53.79-1.029 1.309-1.428.19-.14.4-.26.6-.38.269-.15.539-.13.818-.02.78.32 1.419.82 1.948 1.479a8.7 8.7 0 0 1 1.499 2.757c.04.19.06.37.09.549ZM38.211 8.031c.04-1.059.46-1.918 1.389-2.477 1.149-.7 2.587-.34 3.366.82.81 1.198.56 2.946-.56 3.855-1.328 1.089-3.256.61-3.945-.979a3.06 3.06 0 0 1-.25-1.219Zm3.786-.11c-.01-.08-.03-.24-.07-.4-.24-.848-1.188-1.138-1.798-.569-.53.5-.609 1.389-.18 1.968.41.56 1.18.6 1.649.09.26-.27.39-.61.4-1.089ZM25.155 5.364c1.03.05 1.779.49 2.238 1.349.62 1.149.33 2.597-.67 3.446-1.358 1.149-3.355.6-3.975-1.079-.53-1.458.25-3.236 1.888-3.626.19-.05.38-.07.52-.09Zm-1.118 2.787c0 .05.01.11.01.17.09.81.929 1.249 1.608.83.61-.38.81-1.26.41-1.859-.29-.45-.85-.61-1.319-.36-.48.26-.7.67-.71 1.22Zm31.696.06c-.04.54-.15 1.069-.41 1.548-.26.47-.63.81-1.179.88-.43.05-.789-.11-1.109-.4-.41-.38-.619-.87-.739-1.399a4.039 4.039 0 0 1 .12-2.207c.11-.33.3-.62.55-.86.559-.519 1.328-.519 1.887 0 .48.45.7 1.03.8 1.659.04.25.06.51.08.78Zm-1.739.91c.39-.52.34-1.859-.08-2.238-.38.519-.34 1.738.08 2.237ZM10.402 8.44c.02-.848.19-1.557.739-2.137.35-.38.779-.58 1.308-.49.49.09.82.39 1.06.81.559.989.409 2.557-.31 3.416-.56.67-1.389.78-2.018.27-.25-.2-.43-.46-.54-.76-.07-.19-.13-.389-.17-.599-.05-.18-.06-.38-.07-.51Zm1.788-1.128c-.4.42-.43 1.518-.14 1.808.37-.35.46-1.388.14-1.808Zm36.28.849c-.03.6-.05 1.199-.1 1.808-.03.36-.33.63-.699.64-.34.01-.67-.24-.719-.57-.03-.18-.01-.37-.01-.56.04-.988.09-1.967.14-2.956.02-.44.35-.73.749-.72.41.02.71.34.7.78l-.06 1.578Zm-30.107.04V6.773c0-.41.22-.7.57-.78.479-.11.888.24.888.77V9.02c0 .21.01.43 0 .64-.02.519-.42.849-.889.739-.34-.07-.56-.36-.57-.75V8.202Zm14.025-.12c0-.5-.01-.999 0-1.498.01-.42.33-.72.729-.71.35.01.66.27.7.62.02.18.02.35.02.53.01.839.01 1.668.02 2.507 0 .4-.21.689-.56.769-.42.1-.86-.19-.88-.63-.02-.529 0-1.048 0-1.578-.01-.01-.02-.01-.03-.01Zm.759 8.821c-7.392.07-14.774.02-22.166.09-.16 0-.33.01-.49-.01a.721.721 0 0 1-.639-.71c0-.37.26-.669.63-.719.22-.03.439-.02.669-.02 8.95-.09 17.89-.05 26.84-.14 5.834-.06 11.668.14 17.502.08.15 0 .3 0 .44.04.329.08.549.4.519.75-.03.33-.28.619-.62.649-.28.03-.569.03-.849.03-7.272.07-14.554-.11-21.836-.04Z" fill="#256CA1"/></svg>