<svg xmlns="http://www.w3.org/2000/svg" width="180" height="120" viewBox="0 0 256 170.656"><path d="M222.987 147.304c20.44-17.458 33.063-40.255 33.063-73.46a83.353 83.353 0 0 0-22.242-55.613 61.465 61.465 0 0 0-26.1-15.622A61.556 61.556 0 0 0 177.3 1.404c-25.97 5.699-44.395 34.645-38.624 60.471 5.77 25.827 34.716 44.274 60.715 38.455 3.007-.72 3.818 14.248-15.45 38.575-12.563 15.867-26.21 23.697-40.366 30.716a102.92 102.92 0 0 0 42.05-2.852 102.802 102.802 0 0 0 37.362-19.465zm-137.663 0c20.439-17.458 33.063-40.255 33.063-73.46A83.325 83.325 0 0 0 96.144 18.23 61.522 61.522 0 0 0 70.057 2.625a61.62 61.62 0 0 0-30.39-1.221c-26 5.699-44.425 34.645-38.654 60.471 5.77 25.827 34.746 44.274 60.716 38.455 3.005-.72 3.847 14.248-15.45 38.575-12.564 15.867-26.18 23.697-40.307 30.716a102.936 102.936 0 0 0 42.018-2.864 102.8 102.8 0 0 0 37.334-19.453z" fill="#0e7496" font-family="none" font-weight="none" font-size="none" text-anchor="none" style="mix-blend-mode:normal"/></svg>