<svg width="44" height="44" fill="none" xmlns="http://www.w3.org/2000/svg"><circle cx="22" cy="22" r="22" fill="#DB1111"/><g clip-path="url(#a)"><path d="M12.476 11.021h1.975l1.272 3.915h.123l1.213-3.915h1.992l-2.282 5.73v4.064h-1.96v-3.882l-2.333-5.912Zm6.782 4.218c0-.575.236-1.031.709-1.372.472-.341 1.106-.512 1.904-.512.725 0 1.32.18 1.783.54.464.359.696.82.696 1.387v3.833c0 .635-.228 1.133-.682 1.494-.455.362-1.08.543-1.877.543-.768 0-1.381-.187-1.842-.56-.46-.373-.69-.875-.69-1.506v-3.847Zm1.806 3.986c0 .205.061.362.187.474.124.112.303.166.535.166.237 0 .426-.055.566-.17a.576.576 0 0 0 .21-.47v-4.042a.46.46 0 0 0-.214-.392c-.143-.1-.33-.15-.562-.15a.85.85 0 0 0-.522.15c-.134.1-.2.23-.2.392v4.042Zm9.701-5.75v7.42H29.01v-.819a3.767 3.767 0 0 1-1.012.691c-.35.157-.69.236-1.02.236-.406 0-.712-.11-.918-.331-.206-.221-.31-.553-.31-.994v-6.204h1.758v5.69c0 .176.037.302.11.382.075.078.194.118.358.118.13 0 .293-.053.49-.157.198-.104.379-.237.544-.399v-5.633h1.756ZM29.12 26.608c-.086-.096-.224-.145-.412-.145-.197 0-.339.05-.425.145-.085.096-.128.256-.128.48v.461h1.094v-.462c0-.223-.043-.383-.129-.48Zm-5.192 3.479a.781.781 0 0 0 .3.057c.152 0 .262-.037.334-.112.072-.074.107-.197.107-.366v-2.672c0-.18-.044-.316-.132-.41-.088-.093-.217-.14-.385-.14a.705.705 0 0 0-.262.052.942.942 0 0 0-.255.163v3.24c.1.088.198.15.293.188Zm8.149-5.657c0-1.286-1.322-2.33-2.95-2.33-2.323-.078-4.7-.112-7.126-.108-2.425-.004-4.802.03-7.126.109-1.628 0-2.95 1.043-2.95 2.33a30.704 30.704 0 0 0-.136 3.054 30.74 30.74 0 0 0 .137 3.055c0 1.286 1.321 2.329 2.949 2.329 2.324.077 4.701.111 7.126.108 2.425.003 4.803-.03 7.126-.108 1.628 0 2.95-1.043 2.95-2.329a30.68 30.68 0 0 0 .136-3.055 30.643 30.643 0 0 0-.136-3.055ZM16.21 30.915v.078h-1.395V24.82H13.37v-1.123h4.283v1.124H16.21v6.093Zm4.964-5.248v5.325h-1.24v-.588a2.64 2.64 0 0 1-.712.494 1.73 1.73 0 0 1-.72.17c-.286 0-.502-.08-.647-.237-.146-.159-.218-.397-.218-.714V25.59h1.24v4.082c0 .125.025.218.076.273.053.057.137.085.253.085a.785.785 0 0 0 .346-.111 1.67 1.67 0 0 0 .383-.287V25.59h1.239v.076Zm4.77 1.269v2.953c0 .378-.098.667-.292.869-.194.2-.475.3-.841.3-.242 0-.458-.038-.648-.116a1.635 1.635 0 0 1-.53-.36v.41h-1.25v-7.295h1.25v2.323c.168-.163.345-.286.532-.37a1.38 1.38 0 0 1 .57-.127c.392 0 .692.114.899.34.206.228.31.56.31.995v.077Zm4.58.163v1.355h-2.37v.927c0 .28.04.474.122.583.082.108.221.163.419.163.205 0 .349-.047.431-.139.081-.09.122-.293.122-.607v-.369h1.275v.477c0 .545-.154.956-.465 1.232-.31.277-.774.414-1.391.414-.555 0-.992-.147-1.31-.44-.319-.292-.479-.695-.479-1.206v-2.467c0-.462.176-.839.525-1.13.35-.29.803-.437 1.358-.437.567 0 1.002.135 1.306.405.304.269.456.657.456 1.162v.076Z" fill="#fff"/></g><defs><clipPath id="a"><path fill="#fff" transform="translate(11 11)" d="M0 0h22v22H0z"/></clipPath></defs></svg>