<svg width="360" height="280" fill="none" xmlns="http://www.w3.org/2000/svg"><rect width="360" height="279" rx="20" fill="#C7EDEF"/><g clip-path="url(#a)"><path fill-rule="evenodd" clip-rule="evenodd" d="M320.77 211.119c-1.85-26.059 17.179-34.427 17.179-64.379 0-55.734-69.608-100.914-155.475-100.914C96.608 45.826 27 91.006 27 146.74c0 45.992 27.048 55.9 91.875 68.059 3.858 0 17.598 0 4.781 54.724 1.039 31.066 52.075 51.629 116.312 51.629 64.238 0 107.032-20.443 107.032-48.957 0-21.271-24.373-34.933-26.23-61.076Z" fill="#B7D1EF"/><path fill-rule="evenodd" clip-rule="evenodd" d="M160.454 61.458c-11.482 4.203-17.389 16.993-13.202 28.563 4.188 11.57 16.887 17.548 28.369 13.345 11.482-4.203 17.388-16.992 13.201-28.562-4.187-11.57-16.886-17.548-28.368-13.346Zm-8.009 26.662c-3.144-8.687 1.293-18.28 9.902-21.432 8.609-3.151 18.139 1.33 21.283 10.017 3.144 8.686-1.293 18.28-9.902 21.431-8.609 3.152-18.139-1.33-21.283-10.016Z" fill="#fff"/><path fill-rule="evenodd" clip-rule="evenodd" d="M163.782 70.647a1.773 1.773 0 0 1 2.277 1.07l3.396 9.389L175.618 84a1.794 1.794 0 0 1 .86 2.377 1.77 1.77 0 0 1-2.36.865l-6.831-3.209a1.786 1.786 0 0 1-.919-1.01l-3.647-10.084a1.792 1.792 0 0 1 1.061-2.293Z" fill="#fff" stroke="#fff" stroke-width=".553" stroke-linecap="round" stroke-linejoin="round"/><path fill-rule="evenodd" clip-rule="evenodd" d="M66.73 112.643c-1.845-.919-3.12-2.899-3.12-5.193 0-3.17 2.437-5.74 5.444-5.74 2.176 0 4.054 1.345 4.926 3.29 5.76-2.899 12.896-1.821 17.68 3.223 7.727 8.146 13.637 10.92 21.349 10.351 1.987-.151 3.94.619 5.355 2.112 1.114 1.174 1.118 3.072.01 4.24l-10.205 10.759.228.553c1.493 3.622.757 7.871-1.907 10.679-2.663 2.808-6.693 3.584-10.13 2.01l-.524-.241-10.205 10.76c-1.108 1.168-2.909 1.163-4.022-.011-1.406-1.482-2.136-3.536-2.002-5.643.546-8.124-2.084-14.354-9.82-22.509-4.784-5.044-5.806-12.567-3.057-18.64Zm43.805 12.047-1.797-.169c-7.298-.687-13.858-4.445-21.09-12.069-3.835-4.044-10.064-4.059-13.882-.035-3.818 4.026-3.803 10.593.032 14.637 7.237 7.629 10.803 14.545 11.452 22.229l.16 1.895 25.125-26.488Zm58.267 20.896c.106-2.207 1.966-3.926 4.132-3.82l8.172.399c2.167.107 3.853 1.999 3.748 4.206-.106 2.207-1.966 3.924-4.134 3.819l-8.171-.4c-2.167-.105-3.854-1.997-3.747-4.204Zm-12.086 12.284c.106-2.206 1.966-3.925 4.133-3.819l8.172.399c2.167.106 3.852 1.998 3.747 4.204-.106 2.207-1.965 3.926-4.132 3.82l-8.173-.399c-2.167-.106-3.853-1.998-3.747-4.205Zm-12.848 12.248c.106-2.207 1.965-3.925 4.133-3.82l8.172.4c2.168.105 3.853 1.997 3.747 4.204-.106 2.207-1.965 3.925-4.133 3.82l-8.171-.4c-2.168-.105-3.854-1.997-3.748-4.204Zm-13.574 11.407c.106-2.207 1.966-3.924 4.133-3.819l8.172.4c2.167.105 3.853 1.996 3.747 4.203-.106 2.208-1.966 3.926-4.132 3.821l-8.172-.4c-2.168-.106-3.854-1.997-3.748-4.205Zm55.883-14.978c.105-2.207 1.965-3.926 4.132-3.82l8.172.399c2.167.106 3.853 1.998 3.747 4.205-.105 2.207-1.965 3.925-4.133 3.819l-8.171-.399c-2.167-.106-3.854-1.997-3.747-4.204Zm-12.809 11.444c.106-2.207 1.966-3.925 4.133-3.82l8.172.4c2.167.105 3.853 1.997 3.747 4.205-.106 2.206-1.966 3.925-4.133 3.819l-8.171-.399c-2.168-.106-3.854-1.998-3.748-4.205Zm-12.848 12.247c.106-2.207 1.966-3.925 4.134-3.819l8.171.4c2.168.105 3.854 1.996 3.747 4.203-.106 2.207-1.964 3.927-4.132 3.82l-8.172-.399c-2.167-.106-3.853-1.998-3.748-4.205Zm-12.847 12.248c.106-2.207 1.966-3.925 4.133-3.819l8.172.399c2.167.106 3.853 1.997 3.747 4.204-.106 2.207-1.965 3.926-4.132 3.82l-8.172-.399c-2.168-.106-3.854-1.998-3.748-4.205Zm44.517-52.721a2.276 2.276 0 0 1-.149 3.104l-49.774 47.433a2.024 2.024 0 0 1-2.957-.145 2.276 2.276 0 0 1 .149-3.104l49.775-47.432a2.024 2.024 0 0 1 2.956.144Z" fill="#fff"/><path fill-rule="evenodd" clip-rule="evenodd" d="M170.896 130.696c4.678-4.457 11.899-4.104 16.129.788l7.92 9.164c.904 1.047.826 2.668-.174 3.621-1.284 1.224-1.384 3.304-.225 4.648a3.031 3.031 0 0 0 4.428.217 2.374 2.374 0 0 1 1.76-.666 2.39 2.39 0 0 1 1.689.834l7.92 9.164c4.229 4.893 3.865 12.474-.814 16.932l-46.134 43.964c-4.679 4.457-11.9 4.105-16.129-.788l-7.92-9.164c-.904-1.046-.826-2.668.174-3.621 1.285-1.224 1.385-3.305.223-4.648a3.03 3.03 0 0 0-4.427-.216 2.377 2.377 0 0 1-1.76.665 2.38 2.38 0 0 1-1.688-.834l-7.919-9.163-.001-.001c-4.229-4.893-3.865-12.474.814-16.931l46.134-43.965Zm12.506 4.241c-2.421-2.8-6.554-3.002-9.23-.451l-46.135 43.965c-2.678 2.551-2.886 6.889-.466 9.689h.001l6.535 7.563c3.092-1.485 6.861-.79 9.26 1.986 2.399 2.775 2.693 6.782.986 9.87l6.536 7.562c2.42 2.8 6.553 3.002 9.231.451l46.134-43.964.001-.001c2.677-2.55 2.885-6.888.465-9.688v-.001l-6.537-7.562c-3.091 1.485-6.86.789-9.259-1.986l-.001-.001c-2.398-2.775-2.692-6.781-.985-9.869l-6.536-7.563Zm-9.531 125.77a3.74 3.74 0 0 1 .291-5.341l19.878-17.412a3.886 3.886 0 0 1 5.423.335l3.456 3.822a3.733 3.733 0 0 1 .441 4.467l7.225.813c1.617.181 3.144.981 4.263 2.219l.255.282c.036.034.071.07.105.108l17.364 19.199c.034.038.067.077.098.117l3.899 4.311c2.354 2.603 2.346 6.48-.14 8.658l-23.341 20.446c-2.486 2.178-6.402 1.737-8.755-.866l-3.979-4.398-.023-.026-17.363-19.198a.268.268 0 0 1-.023-.026l-.334-.368c-1.118-1.237-1.748-2.824-1.744-4.424l.017-7.676a3.87 3.87 0 0 1-3.557-1.22l-3.456-3.822Zm3.251-2.423 3.027 3.347 19.519-17.097-3.028-3.348-19.518 17.098Zm7.86 15.264.021-9.152 15.991-14.007 9.239 1.04c.058.006.114.015.171.026l-25.415 22.262a2.387 2.387 0 0 1-.007-.169Zm45.94-.149 2.612 2.887c.868.96.866 2.268.115 2.926l-23.341 20.446c-.75.658-2.072.509-2.94-.451l-2.611-2.888 26.165-22.92ZM213.559 254.2l14.584 16.125-26.166 22.921-14.584-16.126 26.166-22.92Zm-3.544 14.842a.594.594 0 0 1 .832.049l1.935 2.14a.6.6 0 0 1-.048.853l-2.227 1.949 2.05 2.266a.6.6 0 0 1-.049.852l-2.093 1.834a.591.591 0 0 1-.831-.05l-2.066-2.283-2.245 1.967a.595.595 0 0 1-.832-.05l-1.935-2.14a.6.6 0 0 1 .049-.852l2.227-1.951-2.049-2.265a.6.6 0 0 1 .048-.853l2.093-1.833a.594.594 0 0 1 .832.05l2.065 2.283 2.244-1.966Z" fill="#fff"/><path d="M210.118 96.419s-8.871 8.273-11.355 46.054c0 0-1.349 18.18 11.604 15.517 12.988-2.628 7.098-50.137-.249-61.571Z" fill="#E6E8EF"/><path d="M256.358 33.854s6.246 2.273 6.494 9.587c.248 7.315-.319 10.51 2.803 15.233 3.159 4.687-1.561 11.505 1.455 16.476 3.017 4.971 2.023 6.356 1.349 6.782-.674.426-5.359-.533-8.694 1.065-3.336 1.598-6.352 3.018-10.149 1.278-3.797-1.74-3.904-8.699-2.662-12.392 1.242-3.728-3.478-10.475-.107-14.167 3.372-3.693-2.767-10.369-.461-13.671 2.307-3.302 1.313-12.534 9.972-10.19Z" fill="#8C2F1C"/><path d="M234.179 59.42s.497 17.931 0 19.85c-.496 1.916-3.725 4.082-10.077 7.313 0 0 6.316 8.132 18.311 7.883 11.994-.248 15.436-5.255 17.353-7.989 0 0-9.511-3.622-9.759-6.853-.32-3.87 0-20.204 0-20.204h-15.828Z" fill="#EA997D"/><path d="M246.809 59.42h-12.633s.354 12.534.177 17.896c4.117.035 12.101-2.628 12.456-17.896Z" fill="#D87E66"/><path d="M253.267 46.495c1.065 11.54-6.245 20.701-10.539 24.181-3.372 2.734-3.762 2.77-6.566 3.09-7.381.816-13.662-6.002-15.295-22.193-2.022-19.53 4.827-21.909 14.302-22.938 12.314-1.385 16.856 4.58 18.098 17.86Z" fill="#EA997D"/><path d="M221.187 51.395a.432.432 0 0 1-.319-.142.645.645 0 0 1-.071-.817c.674-1.03 2.307-3.231 5.004-1.313.213.142.354.461.248.745-.107.284-.355.426-.603.284-2.413-1.314-3.904.959-3.939.994-.071.178-.213.249-.32.249Zm20.193-2.627a.45.45 0 0 0 .319-.249c.178-.284.071-.604-.177-.781-1.135-.71-3.833-2.06-6.246.817-.213.248-.248.568-.035.816a.6.6 0 0 0 .816.036c2.342-2.202 4.861-.71 4.897-.675.142.036.284.071.426.036Z" fill="#9E3A20"/><path d="M231.128 62.225c-.781.071-1.455-.07-1.81-.639-1.1-1.704.319-4.865.426-5.255.071-.249.248-.426.496-.355.249.07.213.426.107.674-.391 1.243-.497 3.48.106 4.261.107.142.249.284.639.284.284 0 .497.213.497.498.071.497-.426.532-.461.532Z" fill="#D87E66"/><path d="M254.869 48.412s.745-4.687-.745-7.172c-1.704-2.84.248-5.859-2.698-7.776-2.199-1.42-1.171-8.345-9.616-8.522-3.62-.071-5.962-2.06-8.695-.036-2.129 1.598-8.02-2.237-11.036 3.942-1.81 3.87-5.323 6.32-4.507 10.084.816 3.764-.994 3.231.391 7.101 1.348 3.87.993 3.942 1.455 5.291 0 0 1.241 2.202 1.667 1.81 0 0 0-5.929.568-7.669.532-1.74-1.029-2.201.391-5.042 1.419-2.84 6.032-2.308 8.765-7.244 0 0 3.442 2.948 6.246 3.125 1.419.107 6.174 1.314 6.423 3.48.177 1.846 3.335 10.581 5.961 15.126.497.853.391 6.072.746 6.463 1.454 1.669 3.903-9.09 4.684-12.96Z" fill="#9E3A20"/><path d="M247.45 48.66s-.355-2.094 2.662-2.165c2.91-.071 3.69 6.96 1.277 8.45-2.412 1.492-3.903-1.526-3.903-1.526l-.036-4.758Z" fill="#EA997D"/><path d="M224.475 55.645c.546-.06.931-.63.86-1.273-.071-.643-.57-1.116-1.116-1.056-.545.06-.93.63-.859 1.273.071.644.57 1.117 1.115 1.056Zm13.7-1.524c.546-.06.93-.63.86-1.273-.071-.643-.571-1.116-1.116-1.056-.546.06-.93.63-.86 1.273.071.644.57 1.117 1.116 1.056Z" fill="#23242B"/><path d="M232.936 66.77c-1.703.213-2.945-.426-3.016-.497-.142-.071-.213-.284-.142-.462.071-.142.284-.213.461-.142.107.071 2.555 1.314 5.146-.71a.336.336 0 0 1 .461.071.336.336 0 0 1-.071.462 5.716 5.716 0 0 1-2.839 1.278Z" fill="#CE6565"/><path d="M217.537 159.41s20.724 5.326 45.884-.107c0 0 9.121 29.188 12.208 68.069 3.229 40.763 2.839 121.153 2.839 121.153s-4.933 3.161-15.366 1.278L239.68 216.507s-1.419 109.115-4.187 132.231c0 0-7.914 3.551-15.756-.036 0 0-11.391-119.341-9.794-142.848 1.277-18.996 7.558-43.674 7.594-46.444Z" fill="#362E42"/><path d="M231.268 82.678s9.404 6.036 21.505-.355c0 0 14.514 8.486 21.044 14.664 0 0-6.459 34.372-9.617 55.57-.213 1.349 2.307 2.131 1.526 4.758-.284.924-2.307 1.989-2.307 1.989s-27.573 6.675-45.92.106c0 0-1.81-.426-2.165-2.627-.141-.888 1.633-2.734 1.455-3.871-2.271-14.132-5.997-53.155-5.784-55.925.071 0 8.02-9.729 20.263-14.31Z" fill="#95CEF4"/><path d="m240.529 86.406 5.429 9.8 8.233-13.031-1.419-.852c-12.102 6.391-21.505.355-21.505.355-.746.284-1.491.568-2.201.887l5.43 12.606 6.033-9.765Z" fill="#7FBBDD"/><path d="m232.792 76.57 7.666 8.202 10.858-7.847 3.159 5.646-8.517 11.15-5.359-7.918-6.139 7.918-5.819-11.044 4.151-6.107Z" fill="#95CEF4"/><path d="M254.441 81.47s-4.507 23.151-15.473 46.054c0 0-9.191-35.97-9.475-46.09 0 0-4.365 2.522-5.11 3.16l-.035.888s-8.375 3.942-14.266 10.937c0 0 1.774 39.236 4.365 59.547 0 0-8.34 24.323-10.043 42.538-2.271 24.678 0 47.51 0 47.51 1.916 4.225 26.686 11.54 28.212 8.699 3.336-6.142 6.352-24.287 6.352-24.287s2.733 25.033 6.14 24.891c6.6-.213 30.199-2.166 31.015-8.273 3.336-25.353-2.59-57.594-2.59-57.594s-3.265-24.394-8.624-35.828c0 0 11.392-53.048 11.249-55.783 0 0-9.084-7.67-16.678-11.895l-.391-1.597-4.648-2.877Z" fill="#E6E8EF"/><path d="M240.6 129.69a.647.647 0 0 0 .249-.071c8.588-6.747 16.856-22.37 16.927-22.512l.107-.213-.178-.178c-1.1-1.207-3.371-3.444-4.4-4.438l5.572-.817.035-.248c.426-2.024.887-13.636.887-14.133 0-.213-.142-.355-.355-.39a.413.413 0 0 0-.39.355c0 .107-.461 11.22-.852 13.777l-6.529.959.532.532c.036.036 3.229 3.125 4.72 4.759-1.065 1.952-8.73 15.872-16.644 22.05-.142.142-.177.355-.071.497.178.036.284.071.39.071Zm-2.768-.319a.323.323 0 0 0 .249-.107.343.343 0 0 0 0-.497c-8.765-8.984-13.095-21.767-13.663-23.577l5.359-4.652-5.643-1.172c0-3.018.284-12.96.284-13.067 0-.213-.141-.355-.354-.355a.355.355 0 0 0-.355.355c0 .107-.319 10.724-.284 13.387v.284l4.79.994-4.613 4.013.071.213c.036.142 4.365 14.345 13.911 24.109.107.036.177.072.248.072Zm.392 100.238c-.178 0-.355-.142-.355-.319-.639-10.049-.355-34.336-.142-52.091.106-9.587.213-17.185.142-19.884-.249-7.741 0-26.098 0-26.276a.355.355 0 0 1 .71 0c0 .178-.249 18.535 0 26.24.071 2.735 0 10.298-.142 19.92-.213 17.719-.533 42.006.142 52.02 0 .212-.142.39-.355.39Z" fill="#BCC7E2"/><path d="M272.928 208.234s-4.543 1.526-10.22 1.704c-5.678.177-10.292-1.101-10.292-1.101l-.674-23.506 20.512-.604.674 23.507Zm-47.305 1.74s-3.974 1.384-8.942 1.384-8.943-1.42-8.943-1.42l.035-23.506 17.921.035-.071 23.507Z" fill="#DFE1E5"/><path d="M255.858 129.619c2.9 0 5.252-2.353 5.252-5.255a5.253 5.253 0 1 0-10.505 0 5.254 5.254 0 0 0 5.253 5.255Z" fill="#BABFCE"/><path d="M255.859 127.24a2.875 2.875 0 1 0-.003-5.75 2.875 2.875 0 0 0 .003 5.75Z" fill="#99A0B5"/><path d="M256.284 122.979h-.142a.918.918 0 0 1-.781-1.03c4.684-31.957-1.597-40.301-1.668-40.372a.908.908 0 0 1 .142-1.278.906.906 0 0 1 1.278.141c.283.356 6.849 9.02 2.058 41.793a.911.911 0 0 1-.887.746Zm-25.938-24.5c-.781-.995-1.881-1.562-3.336-1.74.178-11.682 2.342-15.162 2.378-15.233a.876.876 0 0 0-.249-1.243.915.915 0 0 0-1.277.249c-.106.142-2.484 3.763-2.697 16.262-1.384.178-2.449.71-3.23 1.67-1.703 2.094-.993 5.326-.958 5.467a.882.882 0 0 0 1.1.675c.497-.142.817-.603.71-1.101 0-.035-.532-2.521.603-3.94.568-.675 1.42-1.03 2.698-1.03 1.312 0 2.235.355 2.803 1.065 1.135 1.455.497 4.012.497 4.048a.885.885 0 0 0 .638 1.1.447.447 0 0 0 .213.036c.39 0 .781-.284.887-.675.071-.142.888-3.445-.78-5.61Z" fill="#737C93"/><path d="M231.268 133.454h-.035c-6.707-.462-9.546-26.276-9.866-29.223a.553.553 0 0 1 1.101-.107c.815 7.741 3.938 27.909 8.871 28.264.319.036.532.285.497.569-.071.284-.284.497-.568.497Z" fill="#97A0AF"/><path d="M220.835 133.454h-.178c-.319 0-.532-.284-.532-.568 0-.32.284-.533.568-.533 5.394.32 8.268-20.275 8.942-28.229.036-.284.284-.532.604-.497.32.036.532.284.497.604-.284 2.982-2.662 29.223-9.901 29.223Z" fill="#97A0AF"/><path d="M231.268 134.022c.588 0 1.064-.493 1.064-1.1 0-.609-.476-1.101-1.064-1.101-.588 0-1.065.492-1.065 1.101 0 .607.477 1.1 1.065 1.1Zm-10.613 0a1.1 1.1 0 1 0-.001-2.201 1.1 1.1 0 0 0 .001 2.201Z" fill="#737C93"/><path d="m214.27 150.675 10.468-19.423c.284-.532.817-.816 1.349-.532.532.284.603.887.319 1.42l-10.469 19.423s-.958-.213-1.667-.888Z" fill="#30323D"/><path d="M215.939 151.563c-.177.32-1.1 1.279-1.739 1.918-.248.035-.426-.072-.532-.284.177-.924.426-2.202.603-2.521 1.065.39 1.668.887 1.668.887Z" fill="#CC8664"/><path d="m214.198 153.48-.71.711s.071-.427.178-.994c.177.106.355.177.532.283Z" fill="#30323D"/><path d="M233.397 142.473s-11.107-1.278-12.704-1.101c-4.117.426-8.233 6.676-8.233 7.847 0 .639-.284 1.953 4.649 1.74 2.093-.106 3.619 2.06 7.7 2.202 0 0 5.998.639 9.156-1.172 0 0 4.365-6.001-.568-9.516Z" fill="#EA997D"/><path d="m241.453 143.254-6.955-1.917s-3.726 3.87-3.123 12.356l6.671 1.953 3.407-12.392Z" fill="#95CEF4"/><path d="M276.227 97.84s9.439 6.924 10.965 38.277c1.278 26.383-5.678 31.638-11.924 31.247-10.539-.675-38.822-11.434-38.822-11.434s-1.207-6.462 3.158-14.593c0 0 27.786 7.03 30.164 6.995l-1.171-18.677c.426-10.937 3.939-26.703 7.63-31.816Z" fill="#E6E8EF"/><path d="m269.205 133.489-.249-3.799c.249-6.285 1.42-13.706 3.016-19.92-.248-.071-.461-.142-.709-.213-1.668 6.498-2.804 14.168-3.052 20.133v.036l.248 4.154c.284-.142.497-.284.746-.391Zm-3.265 13.813c-6.388-1.385-18.95-4.474-26.225-6.32l-.284-.072-.142.249c-.141.284-.319.604-.461.888l.533.319c.035 0 .07 0 .106.036l.319-.639c2.413.603 18.276 4.58 25.977 6.249.071-.249.106-.461.177-.71Zm6.918 20.417c.142 0 .284-.106.319-.284.036-.178-.106-.319-.284-.355-5.749-.71-36.196-11.008-36.516-11.114a.284.284 0 0 0-.39.213.284.284 0 0 0 .213.39c1.242.427 30.838 10.404 36.623 11.15h.035Z" fill="#BCC7E2"/><path d="M228.925 164.523h-31.938l-26.26-46.87h31.938l26.26 46.87Z" fill="#6C9DC4"/><path d="M228.927 164.523h-1.526l-26.26-46.87h1.526l26.26 46.87Z" fill="#3C698E"/><path d="M186.483 145.669s3.939-1.066 4.684.426c.746 1.491-1.668 1.953-1.668 1.953s3.478-.923 3.975.533c.461 1.455-2.413 2.378-2.413 2.378s2.058-.248 2.377.746c.355.994-2.129 2.202-2.129 2.202s1.242.177 1.455.887c.248.71-2.235 1.42-2.235 1.42s-1.42.143-1.278-1.704c0 0-2.449-.391-1.81-2.308 0 0-2.661-1.136-1.455-3.089 0 0-2.839-.746-1.668-3.018l1.136-2.344 1.029 1.918Z" fill="#EA997D"/><path d="M212.851 132.601c-.32-7.03-.923-19.422-1.313-22.228a.418.418 0 0 0-.391-.319.417.417 0 0 0-.319.391c.355 2.733.958 15.02 1.313 22.086.248 0 .461.035.71.07Z" fill="#BCC7E2"/></g><defs><clipPath id="a"><rect x="14" width="346" height="280" rx="20" fill="#fff"/></clipPath></defs></svg>