<svg width="107" height="1" fill="none" xmlns="http://www.w3.org/2000/svg"><path d="M.768.832A.173.173 0 0 1 .64.784.173.173 0 0 1 .592.656V.544C.592.491.608.448.64.416A.173.173 0 0 1 .768.368h2.36c.053 0 .096.016.128.048a.173.173 0 0 1 .048.128v.112a.173.173 0 0 1-.048.128.173.173 0 0 1-.128.048H.768Zm5.178 0a.173.173 0 0 1-.128-.048.173.173 0 0 1-.048-.128V.544c0-.053.016-.096.048-.128a.173.173 0 0 1 .128-.048h2.36c.054 0 .096.016.128.048a.173.173 0 0 1 .048.128v.112a.173.173 0 0 1-.048.128.173.173 0 0 1-.128.048h-2.36Zm5.179 0a.173.173 0 0 1-.128-.048.173.173 0 0 1-.048-.128V.544c0-.053.016-.096.048-.128a.173.173 0 0 1 .128-.048h2.36c.053 0 .096.016.128.048a.173.173 0 0 1 .048.128v.112a.173.173 0 0 1-.048.128.173.173 0 0 1-.128.048h-2.36Zm5.178 0a.173.173 0 0 1-.128-.048.173.173 0 0 1-.048-.128V.544c0-.053.016-.096.048-.128a.173.173 0 0 1 .128-.048h2.36c.054 0 .096.016.128.048a.173.173 0 0 1 .048.128v.112a.173.173 0 0 1-.048.128.173.173 0 0 1-.128.048h-2.36Zm5.179 0a.173.173 0 0 1-.128-.048.173.173 0 0 1-.048-.128V.544c0-.053.016-.096.048-.128a.173.173 0 0 1 .128-.048h2.36c.053 0 .096.016.128.048a.173.173 0 0 1 .048.128v.112a.173.173 0 0 1-.048.128.173.173 0 0 1-.128.048h-2.36Zm5.178 0a.173.173 0 0 1-.128-.048.173.173 0 0 1-.048-.128V.544c0-.053.016-.096.048-.128a.173.173 0 0 1 .128-.048h2.36c.053 0 .096.016.128.048a.173.173 0 0 1 .048.128v.112a.173.173 0 0 1-.048.128.173.173 0 0 1-.128.048h-2.36Zm5.179 0a.173.173 0 0 1-.128-.048.173.173 0 0 1-.048-.128V.544c0-.053.016-.096.048-.128a.173.173 0 0 1 .128-.048h2.36c.053 0 .096.016.128.048a.173.173 0 0 1 .048.128v.112a.173.173 0 0 1-.048.128.173.173 0 0 1-.128.048h-2.36Zm5.178 0a.173.173 0 0 1-.128-.048.173.173 0 0 1-.048-.128V.544c0-.053.016-.096.048-.128a.173.173 0 0 1 .128-.048h2.36c.053 0 .096.016.128.048a.173.173 0 0 1 .048.128v.112a.173.173 0 0 1-.048.128.173.173 0 0 1-.128.048h-2.36Zm5.178 0a.173.173 0 0 1-.127-.048.173.173 0 0 1-.048-.128V.544c0-.053.015-.096.047-.128a.173.173 0 0 1 .129-.048h2.36c.053 0 .096.016.128.048a.173.173 0 0 1 .047.128v.112a.173.173 0 0 1-.047.128.173.173 0 0 1-.128.048h-2.36Zm5.179 0a.173.173 0 0 1-.128-.048.173.173 0 0 1-.048-.128V.544c0-.053.016-.096.048-.128a.173.173 0 0 1 .128-.048h2.36c.053 0 .096.016.128.048a.173.173 0 0 1 .048.128v.112a.173.173 0 0 1-.048.128.173.173 0 0 1-.128.048h-2.36Zm5.178 0a.173.173 0 0 1-.128-.048.173.173 0 0 1-.048-.128V.544c0-.053.016-.096.048-.128a.173.173 0 0 1 .128-.048h2.36c.054 0 .096.016.128.048a.173.173 0 0 1 .048.128v.112a.173.173 0 0 1-.048.128.173.173 0 0 1-.128.048h-2.36Zm5.179 0a.173.173 0 0 1-.128-.048.173.173 0 0 1-.048-.128V.544c0-.053.016-.096.048-.128a.173.173 0 0 1 .128-.048h2.36c.053 0 .096.016.128.048a.173.173 0 0 1 .048.128v.112a.173.173 0 0 1-.048.128.173.173 0 0 1-.128.048h-2.36Zm5.178 0a.173.173 0 0 1-.128-.048.173.173 0 0 1-.048-.128V.544c0-.053.016-.096.048-.128a.173.173 0 0 1 .128-.048h2.36c.054 0 .096.016.128.048a.173.173 0 0 1 .048.128v.112a.173.173 0 0 1-.048.128.173.173 0 0 1-.128.048h-2.36Zm5.179 0a.173.173 0 0 1-.128-.048.173.173 0 0 1-.048-.128V.544c0-.053.016-.096.048-.128a.173.173 0 0 1 .128-.048h2.36c.053 0 .096.016.128.048a.173.173 0 0 1 .048.128v.112a.173.173 0 0 1-.048.128.173.173 0 0 1-.128.048h-2.36Zm5.178 0a.173.173 0 0 1-.128-.048.173.173 0 0 1-.048-.128V.544c0-.053.016-.096.048-.128a.173.173 0 0 1 .128-.048h2.36c.053 0 .096.016.128.048a.173.173 0 0 1 .048.128v.112a.173.173 0 0 1-.048.128.173.173 0 0 1-.128.048h-2.36Zm5.179 0a.173.173 0 0 1-.128-.048.173.173 0 0 1-.048-.128V.544c0-.053.016-.096.048-.128a.173.173 0 0 1 .128-.048h2.36c.053 0 .096.016.128.048a.173.173 0 0 1 .048.128v.112a.173.173 0 0 1-.048.128.173.173 0 0 1-.128.048h-2.36Zm5.178 0a.173.173 0 0 1-.128-.048.173.173 0 0 1-.048-.128V.544c0-.053.016-.096.048-.128a.173.173 0 0 1 .128-.048h2.36c.053 0 .096.016.128.048a.173.173 0 0 1 .048.128v.112a.173.173 0 0 1-.048.128.173.173 0 0 1-.128.048h-2.36Zm5.178 0a.173.173 0 0 1-.128-.048.173.173 0 0 1-.048-.128V.544c0-.053.016-.096.048-.128a.173.173 0 0 1 .128-.048h2.36c.054 0 .096.016.128.048a.173.173 0 0 1 .048.128v.112a.173.173 0 0 1-.048.128.173.173 0 0 1-.128.048h-2.36Zm5.179 0a.173.173 0 0 1-.128-.048.173.173 0 0 1-.048-.128V.544c0-.053.016-.096.048-.128a.173.173 0 0 1 .128-.048h2.36c.053 0 .096.016.128.048a.173.173 0 0 1 .048.128v.112a.173.173 0 0 1-.048.128.173.173 0 0 1-.128.048h-2.36Zm5.178 0a.173.173 0 0 1-.128-.048.173.173 0 0 1-.048-.128V.544c0-.053.016-.096.048-.128a.173.173 0 0 1 .128-.048h2.36c.054 0 .096.016.128.048a.173.173 0 0 1 .048.128v.112a.173.173 0 0 1-.048.128.172.172 0 0 1-.128.048h-2.36Zm5.179 0a.172.172 0 0 1-.128-.048.173.173 0 0 1-.048-.128V.544c0-.053.016-.096.048-.128a.172.172 0 0 1 .128-.048h2.36c.053 0 .096.016.128.048a.173.173 0 0 1 .048.128v.112a.173.173 0 0 1-.048.128.174.174 0 0 1-.128.048h-2.36Z" fill="#4C4C4C"/></svg>