<svg width="15" height="15" fill="none" xmlns="http://www.w3.org/2000/svg"><path d="M7.5 0C3.367 0 0 3.367 0 7.5S3.367 15 7.5 15 15 11.633 15 7.5 11.633 0 7.5 0Zm0 13.75c-3.45 0-6.25-2.8-6.25-6.25s2.8-6.25 6.25-6.25 6.25 2.8 6.25 6.25-2.8 6.25-6.25 6.25Zm1.917-9.833a2.714 2.714 0 0 1 0 3.833 2.657 2.657 0 0 1-1.292.717v.283a.63.63 0 0 1-.625.625.63.63 0 0 1-.625-.625v-.833a.63.63 0 0 1 .625-.625 1.45 1.45 0 0 0 1.458-1.459c0-.391-.15-.758-.425-1.033-.55-.55-1.508-.55-2.058 0a1.45 1.45 0 0 0-.425 1.033.63.63 0 0 1-.625.625.63.63 0 0 1-.625-.625c0-.725.283-1.4.792-1.916 1.025-1.025 2.808-1.025 3.833 0h-.008Zm-1.084 7.125a.836.836 0 0 1-.833.833.836.836 0 0 1-.833-.833c0-.459.375-.834.833-.834.458 0 .833.375.833.834Z" fill="#0E7496"/></svg>