<svg width="16" height="16" fill="none" xmlns="http://www.w3.org/2000/svg"><path d="M10.208 16h-.12c-1.232-.011-2.497-.379-3.758-1.092-.99-.56-1.986-1.337-2.959-2.31C1.154 10.381.021 8.131.001 5.912-.012 4.505.148 2.458 1.673.933 2.27.337 3.013.006 3.767 0h.025c.913 0 1.76.5 2.212 1.304l.51.907.008.018c.26.54.386.955.412 1.345a1.793 1.793 0 0 1-.536 1.434L4.982 6.476c.21.582.75 1.838 1.773 2.863 1.013 1.011 2.235 1.527 2.813 1.73l1.42-1.473c.398-.397.87-.587 1.402-.564.409.018.84.155 1.398.444l.018.01.89.5A2.544 2.544 0 0 1 16 12.204v.022c-.005.751-.337 1.495-.933 2.09-.662.663-1.497 1.135-2.482 1.403-.695.189-1.474.281-2.377.281ZM3.792 1.25h-.016c-.424.003-.857.205-1.219.567C1.364 3.01 1.24 4.719 1.251 5.9c.016 1.88 1.027 3.836 3.004 5.813 1.997 1.998 3.964 3.019 5.845 3.035 1.177.011 2.882-.114 4.083-1.316.363-.363.564-.796.567-1.22V12.2a1.292 1.292 0 0 0-.666-1.123l-.88-.495c-.868-.448-1.118-.314-1.329-.104L9.95 12.474l-.35-.088c-.086-.021-2.101-.54-3.727-2.163l-.001-.001C4.25 8.6 3.69 6.56 3.668 6.474l-.092-.34L5.51 4.128c.183-.183.325-.437-.105-1.34l-.49-.873a1.294 1.294 0 0 0-1.122-.666Zm10.012.947A7.451 7.451 0 0 0 8.5 0v1.25a6.257 6.257 0 0 1 6.25 6.25H16a7.45 7.45 0 0 0-2.196-5.303ZM8.5 5v1.25c.69 0 1.25.56 1.25 1.25H11A2.5 2.5 0 0 0 8.5 5Zm0-2.5v1.25a3.754 3.754 0 0 1 3.75 3.75h1.25c0-2.757-2.243-5-5-5Z" fill="#0E7496"/></svg>