<svg width="320" height="192.125" viewBox="0 0 256 153.691" xmlns:xlink="http://www.w3.org/1999/xlink" xmlns="http://www.w3.org/2000/svg"><defs><linearGradient x1="0" y1="43.629" x2="58.423" y2="-150.29" gradientUnits="userSpaceOnUse" id="a"><stop offset=".279" stop-color="#0e7496"/><stop offset="1" stop-color="#fff"/></linearGradient><linearGradient xlink:href="#a" id="d" gradientUnits="userSpaceOnUse" x1="0" y1="43.629" x2="58.423" y2="-150.29"/><linearGradient xlink:href="#a" id="c" gradientUnits="userSpaceOnUse" x1="0" y1="43.629" x2="58.423" y2="-150.29"/><linearGradient xlink:href="#a" id="b" gradientUnits="userSpaceOnUse" x1="0" y1="43.629" x2="58.423" y2="-150.29"/></defs><g style="mix-blend-mode:normal;fill:url(#b)" transform="translate(0 -.35)"><g style="fill:url(#c)" fill="url(#a)" fill-rule="evenodd" stroke-miterlimit="10" font-family="none" font-weight="none" font-size="none" text-anchor="none"><path d="M214 .882c-1.466-.047-7-.005-9 5.01C203.56 9.503 200.965 13 191 13H15C6.716 13 0 19.716 0 28v150c0 8.284 6.716 15 15 15h290c8.284 0 15-6.716 15-15V13c0-9.275-9-12.114-14-12.114h-12.325z" style="fill:url(#d)" transform="matrix(.8 0 0 .8 0 -.355)"/></g></g></svg>