<svg width="13" height="16" fill="none" xmlns="http://www.w3.org/2000/svg"><path d="M6.5 16a.568.568 0 0 1-.344-.112C5.905 15.724 0 11.644 0 6.685a6.78 6.78 0 0 1 1.904-4.727A6.41 6.41 0 0 1 6.5 0a6.41 6.41 0 0 1 4.596 1.958A6.782 6.782 0 0 1 13 6.685c0 4.96-5.871 9.039-6.156 9.203A.568.568 0 0 1 6.5 16Zm0-14.663a5.152 5.152 0 0 0-3.697 1.559 5.45 5.45 0 0 0-1.545 3.789c0 3.63 4.017 6.952 5.242 7.875 1.225-.923 5.242-4.244 5.242-7.875a5.45 5.45 0 0 0-1.545-3.79A5.152 5.152 0 0 0 6.5 1.338Z" fill="#4C4C4C"/><path d="M6.5 8.668c-.456 0-.902-.139-1.281-.4a2.358 2.358 0 0 1-.85-1.064 2.435 2.435 0 0 1-.131-1.37 2.4 2.4 0 0 1 .631-1.215A2.288 2.288 0 0 1 6.05 3.97a2.247 2.247 0 0 1 1.333.135c.421.18.781.484 1.035.874.253.39.388.848.388 1.318 0 .629-.243 1.232-.675 1.677a2.274 2.274 0 0 1-1.631.694Zm0-3.45c-.207 0-.41.064-.582.182a1.072 1.072 0 0 0-.387.484 1.106 1.106 0 0 0 .228 1.175 1.022 1.022 0 0 0 1.143.234c.19-.082.355-.22.47-.397a1.1 1.1 0 0 0-.13-1.362 1.034 1.034 0 0 0-.742-.316Z" fill="#4C4C4C"/></svg>