<svg width="134" height="40" fill="none" xmlns="http://www.w3.org/2000/svg"><path d="M44.762 36.161 30.76 28.074a13.2 13.2 0 0 1-6.606-11.435V.168h-3.555v16.47a13.2 13.2 0 0 1-6.607 11.436L0 36.16l1.777 3.081 14.003-8.087a13.194 13.194 0 0 1 13.202 0l14.003 8.087 1.777-3.08Z" fill="#0C7395"/><path d="M55.456 8.087h-1.55v6.755h-2.084V0h2.084v6.28h1.491L60.394 0h2.518l-5.727 7.02 5.934 7.822h-2.498l-5.165-6.755Zm18.229 6.755H71.83V5.45h-3.703l-.168 2.656c-.267 4.444-1.225 6.735-3.782 6.735h-.346v-1.62h.208c.977 0 1.925-1.066 2.152-5.628l.168-3.763h7.347v11.01h-.02ZM84.39 6.527l-5.69 8.305h-1.866v-11h1.867v8.304l5.687-8.305h1.867v11.01h-1.867V6.528Zm12.313 8.315v-4.81h-5.44v4.81h-1.857V3.832h1.866v4.581h5.441V3.831h1.866v11.01h-1.876Zm12.571-8.315-5.688 8.305h-1.867v-11h1.867v8.304l5.688-8.305h1.866v11.01h-1.866V6.528Zm8.304 3.427h-1.412v4.888h-1.876V3.832h1.886v4.502h1.373l3.495-4.503h2.212l-4.157 5.194 4.582 5.817h-2.311l-3.792-4.888Zm6.853 1.984c0-2.597 2.943-3.377 7.446-3.87V7.8c0-2.024-1.106-2.676-2.498-2.676-1.551 0-2.439.82-2.518 2.192h-1.926c.168-2.37 2.291-3.703 4.424-3.703 3.051 0 4.404 1.432 4.374 4.543l-.019 2.537c-.02 1.867.059 3.11.286 4.158h-1.886c-.059-.405-.119-.86-.148-1.511-.672 1.145-1.797 1.777-3.762 1.777-2.054-.01-3.773-1.155-3.773-3.18Zm7.594-2.399c-3.377.326-5.53.84-5.53 2.35 0 1.047.8 1.738 2.133 1.738 1.738 0 3.397-.8 3.397-3.397v-.69ZM56.641 26.366h-4.828v-1.798h11.75v1.797h-4.828V39.4H56.65V26.366h-.01Zm8.68-1.808h10.073v1.808h-7.98v4.502h7.515v1.798h-7.514v4.927h7.969V39.4H65.31V24.558h.01ZM84.044 39.4l-4.088-12.936V39.4h-2.084V24.558h3.496l3.782 12.364 3.782-12.364h3.495V39.4h-2.083V26.464L86.246 39.4h-2.202Zm11.909-14.842h10.072v1.808h-7.979v4.502h7.515v1.798h-7.515v4.927h7.979V39.4H95.953V24.558Zm16.589 0c4.691 0 8.088 1.778 8.088 7.407 0 5.648-3.397 7.425-8.088 7.425h-4.048V24.558h4.048Zm-.059 1.758h-1.906v11.317h1.906c3.051 0 6.014-.613 6.014-5.669 0-5.026-2.963-5.648-6.014-5.648Z" fill="#4C4C4C"/></svg>