<svg xmlns="http://www.w3.org/2000/svg" width="800" height="800" viewBox="0 0 24 24" fill="none" stroke="#0e7496"><g clip-rule="evenodd" stroke-width="1.5" stroke-linecap="round" stroke-linejoin="round"><path d="M6.025 7.048c-1.81 2.713-1.451 6.37.85 8.658l2.55 2.008L11.7 20l2.274-2.286 2.55-2.008c2.302-2.289 2.66-5.945.85-8.658a6.832 6.832 0 0 0-3.062-2.526 6.796 6.796 0 0 0-5.224 0 6.832 6.832 0 0 0-3.063 2.526Z"/><path d="M11.7 13.143c1.224-.026 2.2-1.06 2.182-2.317-.016-1.256-1.018-2.263-2.243-2.254-1.225.008-2.214 1.029-2.214 2.285.013 1.276 1.031 2.299 2.275 2.286Z"/></g></svg>